<?xml version="1.0" encoding="UTF-8"?>
<svg width="800" height="600" viewBox="0 0 800 600" fill="none" xmlns="http://www.w3.org/2000/svg">
  <defs>
    <linearGradient id="staffingGradient" x1="0" y1="0" x2="1" y2="1">
      <stop offset="0%" stop-color="#9333EA"/>
      <stop offset="100%" stop-color="#C084FC"/>
    </linearGradient>
    <filter id="glow" x="-50%" y="-50%" width="200%" height="200%">
      <feGaussianBlur in="SourceGraphic" stdDeviation="4" result="blur"/>
      <feMerge>
        <feMergeNode in="blur"/>
        <feMergeNode in="SourceGraphic"/>
      </feMerge>
    </filter>
  </defs>

  <!-- Background Grid -->
  <pattern id="grid" width="40" height="40" patternUnits="userSpaceOnUse">
    <path d="M 40 0 L 0 0 0 40" fill="none" stroke="#9333EA" stroke-width="0.5" opacity="0.2"/>
  </pattern>
  <rect width="800" height="600" fill="url(#grid)"/>

  <!-- Central Hub -->
  <g transform="translate(400,300)">
    <!-- Connection Ring -->
    <circle r="120" stroke="url(#staffingGradient)" stroke-width="4" fill="none" filter="url(#glow)">
      <animate attributeName="r" values="115;120;115" dur="3s" repeatCount="indefinite"/>
      <animate attributeName="stroke-dasharray" values="0,50;50,0" dur="2s" repeatCount="indefinite"/>
    </circle>

    <!-- Team Members -->
    <g>
      <!-- Member 1 (Developer) -->
      <g transform="translate(-80,-80)">
        <circle r="30" fill="url(#staffingGradient)" filter="url(#glow)"/>
        <circle r="25" fill="#0A1628"/>
        <path d="M-10,-10 L10,0 L-10,10 Z" fill="url(#staffingGradient)"/>
      </g>

      <!-- Member 2 (Designer) -->
      <g transform="translate(80,-80)">
        <circle r="30" fill="url(#staffingGradient)" filter="url(#glow)"/>
        <circle r="25" fill="#0A1628"/>
        <path d="M-15,-15 L15,15 M-15,15 L15,-15" stroke="url(#staffingGradient)" stroke-width="4"/>
      </g>

      <!-- Member 3 (Manager) -->
      <g transform="translate(80,80)">
        <circle r="30" fill="url(#staffingGradient)" filter="url(#glow)"/>
        <circle r="25" fill="#0A1628"/>
        <rect x="-15" y="-15" width="30" height="30" stroke="url(#staffingGradient)" stroke-width="4" fill="none"/>
      </g>

      <!-- Member 4 (DevOps) -->
      <g transform="translate(-80,80)">
        <circle r="30" fill="url(#staffingGradient)" filter="url(#glow)"/>
        <circle r="25" fill="#0A1628"/>
        <circle cx="0" cy="0" r="12" stroke="url(#staffingGradient)" stroke-width="4" fill="none"/>
      </g>
    </g>

    <!-- Central Icon -->
    <circle r="50" fill="url(#staffingGradient)" filter="url(#glow)"/>
    <circle r="45" fill="#0A1628"/>
    <path d="M-20,-20 a40,40 0 1,1 40,40 v10 h-40 v-10" fill="url(#staffingGradient)"/>
    <circle cx="0" cy="-30" r="15" fill="url(#staffingGradient)"/>

    <!-- Connection Lines -->
    <g stroke="url(#staffingGradient)" stroke-width="2">
      <path d="M-50,-50 L-80,-80">
        <animate attributeName="stroke-dasharray" values="0,50;50,0" dur="2s" repeatCount="indefinite"/>
      </path>
      <path d="M50,-50 L80,-80">
        <animate attributeName="stroke-dasharray" values="0,50;50,0" dur="2s" repeatCount="indefinite"/>
      </path>
      <path d="M-50,50 L-80,80">
        <animate attributeName="stroke-dasharray" values="0,50;50,0" dur="2s" repeatCount="indefinite"/>
      </path>
      <path d="M50,50 L80,80">
        <animate attributeName="stroke-dasharray" values="0,50;50,0" dur="2s" repeatCount="indefinite"/>
      </path>
    </g>

    <!-- Animated Particles -->
    <g fill="#9333EA">
      <circle r="3">
        <animateMotion path="M-50,-50 L-80,-80" dur="1.5s" repeatCount="indefinite"/>
      </circle>
      <circle r="3">
        <animateMotion path="M50,-50 L80,-80" dur="1.5s" repeatCount="indefinite"/>
      </circle>
      <circle r="3">
        <animateMotion path="M-50,50 L-80,80" dur="1.5s" repeatCount="indefinite"/>
      </circle>
      <circle r="3">
        <animateMotion path="M50,50 L80,80" dur="1.5s" repeatCount="indefinite"/>
      </circle>
    </g>

    <!-- Skill Tags -->
    <g transform="translate(-150,-150)">
      <rect x="-40" y="-20" width="80" height="40" rx="5" fill="#1A2B44" filter="url(#glow)"/>
      <text x="0" y="5" text-anchor="middle" fill="url(#staffingGradient)" font-family="Arial" font-size="14">Full Stack</text>
    </g>

    <g transform="translate(150,-150)">
      <rect x="-40" y="-20" width="80" height="40" rx="5" fill="#1A2B44" filter="url(#glow)"/>
      <text x="0" y="5" text-anchor="middle" fill="url(#staffingGradient)" font-family="Arial" font-size="14">DevOps</text>
    </g>

    <g transform="translate(-150,150)">
      <rect x="-40" y="-20" width="80" height="40" rx="5" fill="#1A2B44" filter="url(#glow)"/>
      <text x="0" y="5" text-anchor="middle" fill="url(#staffingGradient)" font-family="Arial" font-size="14">UI/UX</text>
    </g>

    <g transform="translate(150,150)">
      <rect x="-40" y="-20" width="80" height="40" rx="5" fill="#1A2B44" filter="url(#glow)"/>
      <text x="0" y="5" text-anchor="middle" fill="url(#staffingGradient)" font-family="Arial" font-size="14">Cloud</text>
    </g>
  </g>
</svg> 