<?xml version="1.0" encoding="UTF-8"?>
<svg width="800" height="600" viewBox="0 0 800 600" fill="none" xmlns="http://www.w3.org/2000/svg">
  <!-- Background Elements -->
  <path d="M100,300 Q400,50 700,300" stroke="#F9A8D4" stroke-width="2" stroke-dasharray="8 8" opacity="0.3"/>
  <path d="M100,320 Q400,570 700,320" stroke="#F472B6" stroke-width="2" stroke-dasharray="8 8" opacity="0.3"/>
  
  <!-- Connected Nodes representing network -->
  <circle cx="200" cy="200" r="8" fill="#F472B6" opacity="0.8"/>
  <circle cx="400" cy="150" r="8" fill="#F472B6" opacity="0.8"/>
  <circle cx="600" cy="200" r="8" fill="#F472B6" opacity="0.8"/>
  <circle cx="300" cy="400" r="8" fill="#F472B6" opacity="0.8"/>
  <circle cx="500" cy="400" r="8" fill="#F472B6" opacity="0.8"/>
  
  <!-- Connection lines -->
  <line x1="200" y1="200" x2="400" y2="150" stroke="#F9A8D4" stroke-width="2" opacity="0.5"/>
  <line x1="400" y1="150" x2="600" y2="200" stroke="#F9A8D4" stroke-width="2" opacity="0.5"/>
  <line x1="300" y1="400" x2="500" y2="400" stroke="#F9A8D4" stroke-width="2" opacity="0.5"/>
  <line x1="200" y1="200" x2="300" y2="400" stroke="#F9A8D4" stroke-width="2" opacity="0.5"/>
  <line x1="600" y1="200" x2="500" y2="400" stroke="#F9A8D4" stroke-width="2" opacity="0.5"/>
  
  <!-- People Icons -->
  <g transform="translate(350,250)">
    <!-- Person 1 -->
    <circle cx="0" cy="0" r="20" fill="#F472B6"/>
    <circle cx="0" cy="-12" r="8" fill="#0A1628"/>
    <path d="M-12,5 Q0,20 12,5" stroke="#0A1628" stroke-width="2" fill="none"/>
  </g>
  
  <g transform="translate(450,250)">
    <!-- Person 2 -->
    <circle cx="0" cy="0" r="20" fill="#F9A8D4"/>
    <circle cx="0" cy="-12" r="8" fill="#0A1628"/>
    <path d="M-12,5 Q0,20 12,5" stroke="#0A1628" stroke-width="2" fill="none"/>
  </g>
  
  <!-- Abstract Shapes -->
  <rect x="150" y="300" width="40" height="40" rx="8" fill="#F472B6" opacity="0.2" transform="rotate(15)"/>
  <rect x="600" y="300" width="40" height="40" rx="8" fill="#F9A8D4" opacity="0.2" transform="rotate(-15)"/>
  
  <!-- Decorative Elements -->
  <circle cx="700" cy="150" r="5" fill="#F472B6" opacity="0.5"/>
  <circle cx="100" cy="450" r="5" fill="#F9A8D4" opacity="0.5"/>
  <circle cx="750" cy="400" r="3" fill="#F472B6" opacity="0.5"/>
  <circle cx="50" cy="200" r="3" fill="#F9A8D4" opacity="0.5"/>
</svg> 