<?xml version="1.0" encoding="UTF-8"?>
<svg width="400" height="300" viewBox="0 0 400 300" fill="none" xmlns="http://www.w3.org/2000/svg">
  <defs>
    <linearGradient id="managedGradient" x1="0" y1="0" x2="1" y2="1">
      <stop offset="0%" stop-color="#9333EA"/>
      <stop offset="100%" stop-color="#C084FC"/>
    </linearGradient>
    <filter id="glow" x="-50%" y="-50%" width="200%" height="200%">
      <feGaussianBlur in="SourceGraphic" stdDeviation="4" result="blur"/>
      <feMerge>
        <feMergeNode in="blur"/>
        <feMergeNode in="SourceGraphic"/>
      </feMerge>
    </filter>
  </defs>

  <!-- Background Grid -->
  <pattern id="grid" width="20" height="20" patternUnits="userSpaceOnUse">
    <path d="M 20 0 L 0 0 0 20" fill="none" stroke="#9333EA" stroke-width="0.5" opacity="0.2"/>
  </pattern>
  <rect width="400" height="300" fill="url(#grid)"/>

  <!-- Project Management -->
  <g transform="translate(200,150)">
    <!-- Project Timeline -->
    <path d="M-120,0 C-80,-50 80,-50 120,0" 
      stroke="url(#managedGradient)" 
      stroke-width="4" 
      fill="none" 
      filter="url(#glow)">
      <animate attributeName="stroke-dasharray" values="0,300;300,0" dur="3s" repeatCount="indefinite"/>
    </path>

    <!-- Milestone Points -->
    <g>
      <!-- Start -->
      <g transform="translate(-120,0)">
        <circle r="15" fill="url(#managedGradient)" filter="url(#glow)"/>
        <circle r="12" fill="#0A1628"/>
        <path d="M-6,-6 L6,6 M-6,6 L6,-6" stroke="url(#managedGradient)" stroke-width="2"/>
      </g>

      <!-- Development -->
      <g transform="translate(-40,-30)">
        <circle r="15" fill="url(#managedGradient)" filter="url(#glow)"/>
        <circle r="12" fill="#0A1628"/>
        <path d="M-6,0 L0,-6 L6,0 L0,6 Z" stroke="url(#managedGradient)" stroke-width="2" fill="none"/>
      </g>

      <!-- Testing -->
      <g transform="translate(40,-30)">
        <circle r="15" fill="url(#managedGradient)" filter="url(#glow)"/>
        <circle r="12" fill="#0A1628"/>
        <path d="M-6,-6 L6,6 M0,-8 L0,8" stroke="url(#managedGradient)" stroke-width="2"/>
      </g>

      <!-- Deployment -->
      <g transform="translate(120,0)">
        <circle r="15" fill="url(#managedGradient)" filter="url(#glow)"/>
        <circle r="12" fill="#0A1628"/>
        <path d="M-6,0 L6,0 M0,-6 L0,6" stroke="url(#managedGradient)" stroke-width="2"/>
      </g>
    </g>

    <!-- Team Members -->
    <g>
      <!-- Team Lead -->
      <g transform="translate(0,-80)">
        <circle r="25" fill="url(#managedGradient)" filter="url(#glow)"/>
        <circle r="22" fill="#0A1628"/>
        <path d="M-10,-10 a20,20 0 1,1 20,0 v15 h-20 v-15" fill="url(#managedGradient)"/>
        <circle cx="0" cy="-15" r="8" fill="url(#managedGradient)"/>
      </g>

      <!-- Team Members -->
      <g transform="translate(-60,40)">
        <circle r="20" fill="url(#managedGradient)" filter="url(#glow)"/>
        <circle r="17" fill="#0A1628"/>
        <path d="M-8,-8 a16,16 0 1,1 16,0 v12 h-16 v-12" fill="url(#managedGradient)"/>
        <circle cx="0" cy="-12" r="6" fill="url(#managedGradient)"/>
      </g>

      <g transform="translate(0,40)">
        <circle r="20" fill="url(#managedGradient)" filter="url(#glow)"/>
        <circle r="17" fill="#0A1628"/>
        <path d="M-8,-8 a16,16 0 1,1 16,0 v12 h-16 v-12" fill="url(#managedGradient)"/>
        <circle cx="0" cy="-12" r="6" fill="url(#managedGradient)"/>
      </g>

      <g transform="translate(60,40)">
        <circle r="20" fill="url(#managedGradient)" filter="url(#glow)"/>
        <circle r="17" fill="#0A1628"/>
        <path d="M-8,-8 a16,16 0 1,1 16,0 v12 h-16 v-12" fill="url(#managedGradient)"/>
        <circle cx="0" cy="-12" r="6" fill="url(#managedGradient)"/>
      </g>
    </g>

    <!-- Connection Lines -->
    <g stroke="url(#managedGradient)" stroke-width="2">
      <path d="M0,-55 L-60,40">
        <animate attributeName="stroke-dasharray" values="0,100;100,0" dur="2s" repeatCount="indefinite"/>
      </path>
      <path d="M0,-55 L0,40">
        <animate attributeName="stroke-dasharray" values="0,100;100,0" dur="2s" repeatCount="indefinite"/>
      </path>
      <path d="M0,-55 L60,40">
        <animate attributeName="stroke-dasharray" values="0,100;100,0" dur="2s" repeatCount="indefinite"/>
      </path>
    </g>

    <!-- Progress Indicators -->
    <g>
      <g transform="translate(-120,30)">
        <rect x="-25" y="-15" width="50" height="30" rx="5" fill="#1A2B44" filter="url(#glow)"/>
        <text x="0" y="5" text-anchor="middle" fill="url(#managedGradient)" font-family="Arial" font-size="14">Start</text>
      </g>

      <g transform="translate(-40,-60)">
        <rect x="-25" y="-15" width="50" height="30" rx="5" fill="#1A2B44" filter="url(#glow)"/>
        <text x="0" y="5" text-anchor="middle" fill="url(#managedGradient)" font-family="Arial" font-size="14">Dev</text>
      </g>

      <g transform="translate(40,-60)">
        <rect x="-25" y="-15" width="50" height="30" rx="5" fill="#1A2B44" filter="url(#glow)"/>
        <text x="0" y="5" text-anchor="middle" fill="url(#managedGradient)" font-family="Arial" font-size="14">Test</text>
      </g>

      <g transform="translate(120,30)">
        <rect x="-25" y="-15" width="50" height="30" rx="5" fill="#1A2B44" filter="url(#glow)"/>
        <text x="0" y="5" text-anchor="middle" fill="url(#managedGradient)" font-family="Arial" font-size="14">Ship</text>
      </g>
    </g>

    <!-- Animated Progress -->
    <g fill="#9333EA">
      <circle r="3">
        <animateMotion 
          path="M-120,0 C-80,-50 80,-50 120,0" 
          dur="3s" 
          repeatCount="indefinite"/>
      </circle>
    </g>
  </g>
</svg> 