<?xml version="1.0" encoding="UTF-8"?>
<svg width="400" height="300" viewBox="0 0 400 300" fill="none" xmlns="http://www.w3.org/2000/svg">
  <defs>
    <linearGradient id="skillGradient" x1="0" y1="0" x2="1" y2="1">
      <stop offset="0%" stop-color="#9333EA"/>
      <stop offset="100%" stop-color="#C084FC"/>
    </linearGradient>
    <filter id="glow" x="-50%" y="-50%" width="200%" height="200%">
      <feGaussianBlur in="SourceGraphic" stdDeviation="4" result="blur"/>
      <feMerge>
        <feMergeNode in="blur"/>
        <feMergeNode in="SourceGraphic"/>
      </feMerge>
    </filter>
  </defs>

  <!-- Background Grid -->
  <pattern id="grid" width="20" height="20" patternUnits="userSpaceOnUse">
    <path d="M 20 0 L 0 0 0 20" fill="none" stroke="#9333EA" stroke-width="0.5" opacity="0.2"/>
  </pattern>
  <rect width="400" height="300" fill="url(#grid)"/>

  <!-- Assessment Process -->
  <g transform="translate(200,150)">
    <!-- Central Assessment Hub -->
    <circle r="70" fill="url(#skillGradient)" filter="url(#glow)">
      <animate attributeName="r" values="65;70;65" dur="2s" repeatCount="indefinite"/>
    </circle>
    <circle r="65" fill="#0A1628"/>

    <!-- Skill Meters -->
    <g>
      <!-- Technical Skills -->
      <g transform="translate(-40,-30)">
        <rect x="-30" y="-10" width="60" height="20" rx="10" fill="#1A2B44"/>
        <rect x="-28" y="-8" width="48" height="16" rx="8" fill="url(#skillGradient)">
          <animate attributeName="width" values="0;48" dur="1.5s" fill="freeze"/>
        </rect>
      </g>

      <!-- Soft Skills -->
      <g transform="translate(-40,0)">
        <rect x="-30" y="-10" width="60" height="20" rx="10" fill="#1A2B44"/>
        <rect x="-28" y="-8" width="42" height="16" rx="8" fill="url(#skillGradient)">
          <animate attributeName="width" values="0;42" dur="1.5s" fill="freeze"/>
        </rect>
      </g>

      <!-- Experience -->
      <g transform="translate(-40,30)">
        <rect x="-30" y="-10" width="60" height="20" rx="10" fill="#1A2B44"/>
        <rect x="-28" y="-8" width="54" height="16" rx="8" fill="url(#skillGradient)">
          <animate attributeName="width" values="0;54" dur="1.5s" fill="freeze"/>
        </rect>
      </g>
    </g>

    <!-- Assessment Categories -->
    <g>
      <!-- Code Quality -->
      <g transform="translate(80,-60)">
        <circle r="25" fill="url(#skillGradient)" filter="url(#glow)"/>
        <circle r="22" fill="#0A1628"/>
        <path d="M-10,-10 L0,0 L-10,10 M10,-10 L0,0 L10,10" stroke="url(#skillGradient)" stroke-width="2" fill="none"/>
      </g>

      <!-- Problem Solving -->
      <g transform="translate(80,0)">
        <circle r="25" fill="url(#skillGradient)" filter="url(#glow)"/>
        <circle r="22" fill="#0A1628"/>
        <path d="M-10,0 L0,-10 L10,0 L0,10 Z" stroke="url(#skillGradient)" stroke-width="2" fill="none"/>
      </g>

      <!-- Communication -->
      <g transform="translate(80,60)">
        <circle r="25" fill="url(#skillGradient)" filter="url(#glow)"/>
        <circle r="22" fill="#0A1628"/>
        <path d="M-10,-5 Q0,10 10,-5" stroke="url(#skillGradient)" stroke-width="2" fill="none"/>
      </g>
    </g>

    <!-- Connection Lines -->
    <g stroke="url(#skillGradient)" stroke-width="2">
      <path d="M20,-20 L80,-60">
        <animate attributeName="stroke-dasharray" values="0,100;100,0" dur="2s" repeatCount="indefinite"/>
      </path>
      <path d="M20,0 L80,0">
        <animate attributeName="stroke-dasharray" values="0,100;100,0" dur="2s" repeatCount="indefinite"/>
      </path>
      <path d="M20,20 L80,60">
        <animate attributeName="stroke-dasharray" values="0,100;100,0" dur="2s" repeatCount="indefinite"/>
      </path>
    </g>

    <!-- Animated Particles -->
    <g fill="#9333EA">
      <circle r="2">
        <animateMotion path="M20,-20 L80,-60" dur="1.5s" repeatCount="indefinite"/>
      </circle>
      <circle r="2">
        <animateMotion path="M20,0 L80,0" dur="1.5s" repeatCount="indefinite"/>
      </circle>
      <circle r="2">
        <animateMotion path="M20,20 L80,60" dur="1.5s" repeatCount="indefinite"/>
      </circle>
    </g>

    <!-- Score Indicators -->
    <g>
      <g transform="translate(-80,-60)">
        <rect x="-25" y="-15" width="50" height="30" rx="5" fill="#1A2B44" filter="url(#glow)"/>
        <text x="0" y="5" text-anchor="middle" fill="url(#skillGradient)" font-family="Arial" font-size="14">95%</text>
      </g>

      <g transform="translate(-80,0)">
        <rect x="-25" y="-15" width="50" height="30" rx="5" fill="#1A2B44" filter="url(#glow)"/>
        <text x="0" y="5" text-anchor="middle" fill="url(#skillGradient)" font-family="Arial" font-size="14">92%</text>
      </g>

      <g transform="translate(-80,60)">
        <rect x="-25" y="-15" width="50" height="30" rx="5" fill="#1A2B44" filter="url(#glow)"/>
        <text x="0" y="5" text-anchor="middle" fill="url(#skillGradient)" font-family="Arial" font-size="14">98%</text>
      </g>
    </g>
  </g>
</svg> 