<?xml version="1.0" encoding="UTF-8"?>
<svg width="800" height="600" viewBox="0 0 800 600" fill="none" xmlns="http://www.w3.org/2000/svg">
  <!-- Search Circle -->
  <circle cx="400" cy="300" r="150" stroke="#F472B6" stroke-width="4" opacity="0.2"/>
  <circle cx="400" cy="300" r="148" stroke="#F9A8D4" stroke-width="1" stroke-dasharray="8 8" opacity="0.3"/>
  
  <!-- Magnifying Glass -->
  <g transform="translate(320,220) rotate(-45)">
    <circle cx="0" cy="0" r="60" stroke="#F472B6" stroke-width="8" fill="none"/>
    <line x1="42" y1="42" x2="100" y2="100" stroke="#F472B6" stroke-width="8" stroke-linecap="round"/>
  </g>
  
  <!-- Profile Cards -->
  <g transform="translate(200,150)">
    <!-- Card 1 -->
    <rect x="0" y="0" width="80" height="100" rx="8" fill="#F9A8D4" opacity="0.2"/>
    <circle cx="40" cy="30" r="15" fill="#F472B6" opacity="0.5"/>
    <rect x="20" y="60" width="40" height="4" rx="2" fill="#F472B6" opacity="0.5"/>
    <rect x="15" y="70" width="50" height="4" rx="2" fill="#F472B6" opacity="0.5"/>
  </g>
  
  <g transform="translate(500,400)">
    <!-- Card 2 -->
    <rect x="0" y="0" width="80" height="100" rx="8" fill="#F9A8D4" opacity="0.2"/>
    <circle cx="40" cy="30" r="15" fill="#F472B6" opacity="0.5"/>
    <rect x="20" y="60" width="40" height="4" rx="2" fill="#F472B6" opacity="0.5"/>
    <rect x="15" y="70" width="50" height="4" rx="2" fill="#F472B6" opacity="0.5"/>
  </g>
  
  <!-- Connection Lines -->
  <path d="M400,300 Q450,200 550,150" stroke="#F9A8D4" stroke-width="2" stroke-dasharray="4 4"/>
  <path d="M400,300 Q350,400 250,450" stroke="#F9A8D4" stroke-width="2" stroke-dasharray="4 4"/>
  
  <!-- Skill Tags -->
  <g transform="translate(600,200)">
    <rect x="0" y="0" width="60" height="25" rx="12.5" fill="#F472B6" opacity="0.2"/>
    <text x="30" y="17" font-family="Arial" font-size="12" fill="#F472B6" text-anchor="middle">React</text>
  </g>
  
  <g transform="translate(150,350)">
    <rect x="0" y="0" width="70" height="25" rx="12.5" fill="#F472B6" opacity="0.2"/>
    <text x="35" y="17" font-family="Arial" font-size="12" fill="#F472B6" text-anchor="middle">Python</text>
  </g>
  
  <!-- Decorative Elements -->
  <circle cx="700" cy="100" r="5" fill="#F472B6" opacity="0.3"/>
  <circle cx="100" cy="500" r="5" fill="#F9A8D4" opacity="0.3"/>
  <circle cx="750" cy="450" r="3" fill="#F472B6" opacity="0.3"/>
  <circle cx="50" cy="150" r="3" fill="#F9A8D4" opacity="0.3"/>
</svg> 