<?xml version="1.0" encoding="UTF-8"?>
<svg width="400" height="300" viewBox="0 0 400 300" fill="none" xmlns="http://www.w3.org/2000/svg">
  <defs>
    <linearGradient id="talentGradient" x1="0" y1="0" x2="1" y2="1">
      <stop offset="0%" stop-color="#9333EA"/>
      <stop offset="100%" stop-color="#C084FC"/>
    </linearGradient>
    <filter id="glow" x="-50%" y="-50%" width="200%" height="200%">
      <feGaussianBlur in="SourceGraphic" stdDeviation="4" result="blur"/>
      <feMerge>
        <feMergeNode in="blur"/>
        <feMergeNode in="SourceGraphic"/>
      </feMerge>
    </filter>
  </defs>

  <!-- Background Grid -->
  <pattern id="grid" width="20" height="20" patternUnits="userSpaceOnUse">
    <path d="M 20 0 L 0 0 0 20" fill="none" stroke="#9333EA" stroke-width="0.5" opacity="0.2"/>
  </pattern>
  <rect width="400" height="300" fill="url(#grid)"/>

  <!-- Search Process -->
  <g transform="translate(200,150)">
    <!-- Search Ring -->
    <circle r="80" stroke="url(#talentGradient)" stroke-width="4" fill="none" filter="url(#glow)">
      <animate attributeName="r" values="75;80;75" dur="3s" repeatCount="indefinite"/>
    </circle>

    <!-- Magnifying Glass -->
    <g transform="translate(-60,-60)">
      <circle r="30" stroke="url(#talentGradient)" stroke-width="4" fill="none"/>
      <path d="M20,20 L40,40" stroke="url(#talentGradient)" stroke-width="4"/>
    </g>

    <!-- Profile Cards -->
    <g>
      <!-- Card 1 -->
      <g transform="translate(40,-20)">
        <rect x="-30" y="-40" width="60" height="80" rx="5" fill="#1A2B44" filter="url(#glow)"/>
        <circle cx="0" cy="-25" r="10" fill="url(#talentGradient)"/>
        <rect x="-20" y="-5" width="40" height="5" rx="2" fill="url(#talentGradient)"/>
        <rect x="-15" y="5" width="30" height="5" rx="2" fill="url(#talentGradient)"/>
        <rect x="-25" y="20" width="50" height="5" rx="2" fill="url(#talentGradient)"/>
      </g>

      <!-- Card 2 -->
      <g transform="translate(20,40)">
        <rect x="-30" y="-40" width="60" height="80" rx="5" fill="#1A2B44" filter="url(#glow)"/>
        <circle cx="0" cy="-25" r="10" fill="url(#talentGradient)"/>
        <rect x="-20" y="-5" width="40" height="5" rx="2" fill="url(#talentGradient)"/>
        <rect x="-15" y="5" width="30" height="5" rx="2" fill="url(#talentGradient)"/>
        <rect x="-25" y="20" width="50" height="5" rx="2" fill="url(#talentGradient)"/>
      </g>
    </g>

    <!-- Skill Tags -->
    <g>
      <g transform="translate(-40,40)">
        <rect x="-25" y="-15" width="50" height="30" rx="15" fill="#1A2B44"/>
        <text x="0" y="5" text-anchor="middle" fill="url(#talentGradient)" font-family="Arial" font-size="12">React</text>
      </g>

      <g transform="translate(-20,-40)">
        <rect x="-25" y="-15" width="50" height="30" rx="15" fill="#1A2B44"/>
        <text x="0" y="5" text-anchor="middle" fill="url(#talentGradient)" font-family="Arial" font-size="12">Node.js</text>
      </g>
    </g>

    <!-- Animated Search Particles -->
    <g fill="#9333EA">
      <circle r="2">
        <animateMotion 
          path="M-60,-60 A80,80 0 0,1 60,60" 
          dur="3s" 
          repeatCount="indefinite"/>
      </circle>
      <circle r="2">
        <animateMotion 
          path="M60,60 A80,80 0 0,1 -60,-60" 
          dur="3s" 
          repeatCount="indefinite"/>
      </circle>
    </g>

    <!-- Match Indicators -->
    <g transform="translate(60,60)">
      <circle r="15" fill="url(#talentGradient)" filter="url(#glow)">
        <animate attributeName="r" values="15;18;15" dur="1s" repeatCount="indefinite"/>
      </circle>
      <path d="M-5,0 L-2,3 L5,-4" stroke="#0A1628" stroke-width="2"/>
    </g>
  </g>
</svg> 