<?xml version="1.0" encoding="UTF-8"?>
<svg width="800" height="600" viewBox="0 0 800 600" fill="none" xmlns="http://www.w3.org/2000/svg">
  <!-- Central Team Circle -->
  <circle cx="400" cy="300" r="100" fill="#F472B6" opacity="0.1"/>
  <circle cx="400" cy="300" r="98" stroke="#F9A8D4" stroke-width="2" stroke-dasharray="8 8" opacity="0.3"/>
  
  <!-- Team Members -->
  <g transform="translate(400,300)">
    <!-- Central Person -->
    <circle cx="0" cy="0" r="25" fill="#F472B6"/>
    <circle cx="0" cy="-15" r="10" fill="#0A1628"/>
    <path d="M-15,6 Q0,25 15,6" stroke="#0A1628" stroke-width="2.5" fill="none"/>
  </g>
  
  <!-- Surrounding Team Members -->
  <g transform="translate(350,250)">
    <circle cx="0" cy="0" r="20" fill="#F9A8D4"/>
    <circle cx="0" cy="-12" r="8" fill="#0A1628"/>
    <path d="M-12,5 Q0,20 12,5" stroke="#0A1628" stroke-width="2" fill="none"/>
  </g>
  
  <g transform="translate(450,250)">
    <circle cx="0" cy="0" r="20" fill="#F9A8D4"/>
    <circle cx="0" cy="-12" r="8" fill="#0A1628"/>
    <path d="M-12,5 Q0,20 12,5" stroke="#0A1628" stroke-width="2" fill="none"/>
  </g>
  
  <g transform="translate(350,350)">
    <circle cx="0" cy="0" r="20" fill="#F9A8D4"/>
    <circle cx="0" cy="-12" r="8" fill="#0A1628"/>
    <path d="M-12,5 Q0,20 12,5" stroke="#0A1628" stroke-width="2" fill="none"/>
  </g>
  
  <g transform="translate(450,350)">
    <circle cx="0" cy="0" r="20" fill="#F9A8D4"/>
    <circle cx="0" cy="-12" r="8" fill="#0A1628"/>
    <path d="M-12,5 Q0,20 12,5" stroke="#0A1628" stroke-width="2" fill="none"/>
  </g>
  
  <!-- New Team Members Being Added -->
  <g transform="translate(200,200)">
    <circle cx="0" cy="0" r="20" fill="#F472B6" opacity="0.6"/>
    <circle cx="0" cy="-12" r="8" fill="#0A1628"/>
    <path d="M-12,5 Q0,20 12,5" stroke="#0A1628" stroke-width="2" fill="none"/>
    <path d="M30,0 L80,0" stroke="#F9A8D4" stroke-width="2" stroke-dasharray="4 4"/>
  </g>
  
  <g transform="translate(600,400)">
    <circle cx="0" cy="0" r="20" fill="#F472B6" opacity="0.6"/>
    <circle cx="0" cy="-12" r="8" fill="#0A1628"/>
    <path d="M-12,5 Q0,20 12,5" stroke="#0A1628" stroke-width="2" fill="none"/>
    <path d="M-30,0 L-80,0" stroke="#F9A8D4" stroke-width="2" stroke-dasharray="4 4"/>
  </g>
  
  <!-- Connection Lines -->
  <line x1="400" y1="300" x2="350" y2="250" stroke="#F472B6" stroke-width="2" opacity="0.5"/>
  <line x1="400" y1="300" x2="450" y2="250" stroke="#F472B6" stroke-width="2" opacity="0.5"/>
  <line x1="400" y1="300" x2="350" y2="350" stroke="#F472B6" stroke-width="2" opacity="0.5"/>
  <line x1="400" y1="300" x2="450" y2="350" stroke="#F472B6" stroke-width="2" opacity="0.5"/>
  
  <!-- Plus Symbols -->
  <g transform="translate(150,300)">
    <line x1="-10" y1="0" x2="10" y2="0" stroke="#F472B6" stroke-width="3"/>
    <line x1="0" y1="-10" x2="0" y2="10" stroke="#F472B6" stroke-width="3"/>
  </g>
  
  <g transform="translate(650,300)">
    <line x1="-10" y1="0" x2="10" y2="0" stroke="#F472B6" stroke-width="3"/>
    <line x1="0" y1="-10" x2="0" y2="10" stroke="#F472B6" stroke-width="3"/>
  </g>
  
  <!-- Decorative Elements -->
  <rect x="100" y="100" width="30" height="30" rx="8" fill="#F472B6" opacity="0.2" transform="rotate(15)"/>
  <rect x="650" y="450" width="30" height="30" rx="8" fill="#F9A8D4" opacity="0.2" transform="rotate(-15)"/>
  
  <circle cx="700" cy="150" r="4" fill="#F472B6" opacity="0.3"/>
  <circle cx="100" cy="450" r="4" fill="#F9A8D4" opacity="0.3"/>
</svg> 