<?xml version="1.0" encoding="UTF-8"?>
<svg width="800" height="600" viewBox="0 0 800 600" fill="none" xmlns="http://www.w3.org/2000/svg">
  <!-- Background Elements -->
  <circle cx="400" cy="300" r="250" fill="#1A2B44" opacity="0.1"/>
  <circle cx="400" cy="300" r="200" fill="#10B981" opacity="0.05"/>
  
  <!-- Central Success Icon -->
  <circle cx="400" cy="300" r="80" fill="#10B981" opacity="0.2"/>
  <circle cx="400" cy="300" r="60" fill="#10B981"/>
  <path d="M370 300 L390 320 L430 280" stroke="white" stroke-width="8" stroke-linecap="round" stroke-linejoin="round"/>
  
  <!-- Result Metrics -->
  <!-- Real-time Sync -->
  <circle cx="250" cy="200" r="50" fill="#3B82F6"/>
  <text x="250" y="190" text-anchor="middle" fill="white" font-family="sans-serif" font-size="24" font-weight="bold">150+</text>
  <text x="250" y="210" text-anchor="middle" fill="white" font-family="sans-serif" font-size="12">Projects Synced</text>
  
  <!-- Data Accuracy -->
  <circle cx="550" cy="200" r="50" fill="#3B82F6"/>
  <text x="550" y="190" text-anchor="middle" fill="white" font-family="sans-serif" font-size="24" font-weight="bold">100%</text>
  <text x="550" y="210" text-anchor="middle" fill="white" font-family="sans-serif" font-size="12">Data Accuracy</text>
  
  <!-- Resource Efficiency -->
  <circle cx="250" cy="400" r="50" fill="#3B82F6"/>
  <text x="250" y="390" text-anchor="middle" fill="white" font-family="sans-serif" font-size="24" font-weight="bold">↑</text>
  <text x="250" y="410" text-anchor="middle" fill="white" font-family="sans-serif" font-size="12">Efficiency</text>
  
  <!-- Validation -->
  <circle cx="550" cy="400" r="50" fill="#3B82F6"/>
  <text x="550" y="390" text-anchor="middle" fill="white" font-family="sans-serif" font-size="24" font-weight="bold">✓</text>
  <text x="550" y="410" text-anchor="middle" fill="white" font-family="sans-serif" font-size="12">Validated Data</text>
  
  <!-- Connecting Lines -->
  <path d="M310 200 L340 300" stroke="#3B82F6" stroke-width="2" opacity="0.5"/>
  <path d="M490 200 L460 300" stroke="#3B82F6" stroke-width="2" opacity="0.5"/>
  <path d="M310 400 L340 300" stroke="#3B82F6" stroke-width="2" opacity="0.5"/>
  <path d="M490 400 L460 300" stroke="#3B82F6" stroke-width="2" opacity="0.5"/>
  
  <!-- Title -->
  <text x="400" y="120" text-anchor="middle" fill="#1A2B44" font-family="sans-serif" font-size="24" font-weight="bold">Integration Benefits</text>
  
  <!-- Subtitle -->
  <text x="400" y="500" text-anchor="middle" fill="gray" font-family="sans-serif" font-size="16">Immediate Results &amp; Continuous Improvement</text>
  
  <!-- Decorative Elements -->
  <circle cx="200" cy="300" r="8" fill="#10B981" opacity="0.3"/>
  <circle cx="600" cy="300" r="8" fill="#10B981" opacity="0.3"/>
</svg>