<?xml version="1.0" encoding="UTF-8"?>
<svg width="400" height="400" viewBox="0 0 400 400" fill="none" xmlns="http://www.w3.org/2000/svg">
  <!-- Background Elements -->
  <circle cx="200" cy="200" r="180" fill="#7C3AED" fill-opacity="0.05"/>
  <circle cx="200" cy="200" r="150" fill="#3B82F6" fill-opacity="0.05"/>
  
  <!-- Dashboard Grid -->
  <g transform="translate(100,100)">
    <!-- Main Dashboard -->
    <rect x="0" y="0" width="200" height="200" rx="12" fill="#1A2B44" stroke="#7C3AED" stroke-width="2"/>
    
    <!-- Charts -->
    <g transform="translate(20,20)">
      <!-- Bar Chart -->
      <g>
        <rect x="0" y="0" width="70" height="70" rx="8" fill="#243B61"/>
        <rect x="10" y="20" width="10" height="40" fill="#7C3AED" fill-opacity="0.8">
          <animate attributeName="height" values="0;40" dur="1s"/>
        </rect>
        <rect x="30" y="10" width="10" height="50" fill="#7C3AED" fill-opacity="0.6">
          <animate attributeName="height" values="0;50" dur="1s" delay="0.2s"/>
        </rect>
        <rect x="50" y="30" width="10" height="30" fill="#7C3AED" fill-opacity="0.4">
          <animate attributeName="height" values="0;30" dur="1s" delay="0.4s"/>
        </rect>
      </g>
      
      <!-- Line Chart -->
      <g transform="translate(90,0)">
        <rect x="0" y="0" width="70" height="70" rx="8" fill="#243B61"/>
        <path d="M10 50L25 20L45 40L60 10" stroke="#3B82F6" stroke-width="2" fill="none">
          <animate attributeName="stroke-dasharray" values="0,1000;1000,0" dur="2s"/>
        </path>
        <circle cx="10" cy="50" r="3" fill="#3B82F6"/>
        <circle cx="25" cy="20" r="3" fill="#3B82F6"/>
        <circle cx="45" cy="40" r="3" fill="#3B82F6"/>
        <circle cx="60" cy="10" r="3" fill="#3B82F6"/>
      </g>
      
      <!-- Donut Chart -->
      <g transform="translate(0,90)">
        <rect x="0" y="0" width="70" height="70" rx="8" fill="#243B61"/>
        <path d="M35 15A20 20 0 0 1 55 35L35 35Z" fill="#7C3AED">
          <animate attributeName="fill-opacity" values="0.4;0.8;0.4" dur="3s" repeatCount="indefinite"/>
        </path>
        <path d="M55 35A20 20 0 0 1 35 55L35 35Z" fill="#3B82F6">
          <animate attributeName="fill-opacity" values="0.4;0.8;0.4" dur="3s" repeatCount="indefinite" begin="1s"/>
        </path>
        <path d="M35 55A20 20 0 0 1 15 35L35 35Z" fill="#7C3AED">
          <animate attributeName="fill-opacity" values="0.4;0.8;0.4" dur="3s" repeatCount="indefinite" begin="2s"/>
        </path>
        <path d="M15 35A20 20 0 0 1 35 15L35 35Z" fill="#3B82F6">
          <animate attributeName="fill-opacity" values="0.4;0.8;0.4" dur="3s" repeatCount="indefinite" begin="3s"/>
        </path>
      </g>
      
      <!-- KPI Cards -->
      <g transform="translate(90,90)">
        <rect x="0" y="0" width="70" height="70" rx="8" fill="#243B61"/>
        <rect x="10" y="10" width="50" height="20" rx="4" fill="#7C3AED" fill-opacity="0.2"/>
        <rect x="10" y="40" width="50" height="20" rx="4" fill="#3B82F6" fill-opacity="0.2"/>
      </g>
    </g>
  </g>
  
  <!-- Floating Elements -->
  <g>
    <!-- Data Points -->
    <circle cx="80" cy="200" r="4" fill="#7C3AED">
      <animate attributeName="opacity" values="1;0;1" dur="2s" repeatCount="indefinite"/>
    </circle>
    <circle cx="320" cy="200" r="4" fill="#3B82F6">
      <animate attributeName="opacity" values="0;1;0" dur="1.5s" repeatCount="indefinite"/>
    </circle>
    <circle cx="200" cy="80" r="4" fill="#7C3AED">
      <animate attributeName="opacity" values="1;0;1" dur="3s" repeatCount="indefinite"/>
    </circle>
    <circle cx="200" cy="320" r="4" fill="#3B82F6">
      <animate attributeName="opacity" values="0;1;0" dur="2.5s" repeatCount="indefinite"/>
    </circle>
  </g>
  
  <!-- Connection Lines -->
  <g stroke="#7C3AED" stroke-width="2" stroke-dasharray="4 4">
    <path d="M80 200L150 200" stroke-opacity="0.3">
      <animate attributeName="stroke-dashoffset" values="0;100" dur="2s" repeatCount="indefinite"/>
    </path>
    <path d="M250 200L320 200" stroke-opacity="0.3">
      <animate attributeName="stroke-dashoffset" values="0;100" dur="2s" repeatCount="indefinite"/>
    </path>
    <path d="M200 80L200 150" stroke-opacity="0.3">
      <animate attributeName="stroke-dashoffset" values="0;100" dur="2s" repeatCount="indefinite"/>
    </path>
    <path d="M200 250L200 320" stroke-opacity="0.3">
      <animate attributeName="stroke-dashoffset" values="0;100" dur="2s" repeatCount="indefinite"/>
    </path>
  </g>
</svg>