<?xml version="1.0" encoding="UTF-8"?>
<svg width="400" height="300" viewBox="0 0 400 300" fill="none" xmlns="http://www.w3.org/2000/svg">
  <!-- Central Hub -->
  <circle cx="200" cy="150" r="50" fill="#1A2B44" stroke="#7C3AED" stroke-width="2"/>
  <circle cx="200" cy="150" r="40" fill="#243B61" stroke="#7C3AED" stroke-width="2" stroke-dasharray="4 4"/>
  
  <!-- Data Sources -->
  <g>
    <!-- Database -->
    <g transform="translate(50,50)">
      <path d="M0 20C0 8.954 13.431 0 30 0C46.569 0 60 8.954 60 20V60C60 71.046 46.569 80 30 80C13.431 80 0 71.046 0 60V20Z" fill="#1A2B44"/>
      <path d="M0 20C0 31.046 13.431 40 30 40C46.569 40 60 31.046 60 20" stroke="#7C3AED" stroke-width="2" fill="none"/>
      <path d="M0 40C0 51.046 13.431 60 30 60C46.569 60 60 51.046 60 40" stroke="#7C3AED" stroke-width="2" fill="none"/>
    </g>
    
    <!-- Cloud -->
    <g transform="translate(290,50)">
      <path d="M60 40C60 51.046 51.046 60 40 60H20C8.954 60 0 51.046 0 40C0 28.954 8.954 20 20 20C20 8.954 28.954 0 40 0C51.046 0 60 8.954 60 20C60 20 60 28.954 60 40Z" fill="#1A2B44" stroke="#3B82F6" stroke-width="2"/>
    </g>
    
    <!-- File System -->
    <g transform="translate(50,220)">
      <rect x="0" y="0" width="60" height="60" rx="8" fill="#1A2B44" stroke="#7C3AED" stroke-width="2"/>
      <rect x="10" y="10" width="40" height="10" rx="2" fill="#243B61"/>
      <rect x="10" y="25" width="40" height="10" rx="2" fill="#243B61"/>
      <rect x="10" y="40" width="40" height="10" rx="2" fill="#243B61"/>
    </g>
    
    <!-- API -->
    <g transform="translate(290,220)">
      <rect x="0" y="0" width="60" height="60" rx="8" fill="#1A2B44" stroke="#3B82F6" stroke-width="2"/>
      <path d="M15 30L25 20L35 30L45 20" stroke="#3B82F6" stroke-width="2" fill="none"/>
      <path d="M15 40L25 30L35 40L45 30" stroke="#3B82F6" stroke-width="2" fill="none"/>
    </g>
  </g>
  
  <!-- Connection Lines -->
  <g stroke="#7C3AED" stroke-width="2" stroke-dasharray="4 4">
    <path d="M110 90L160 150" stroke-opacity="0.6">
      <animate attributeName="stroke-dashoffset" values="0;100" dur="2s" repeatCount="indefinite"/>
    </path>
    <path d="M290 90L240 150" stroke-opacity="0.6">
      <animate attributeName="stroke-dashoffset" values="0;100" dur="2s" repeatCount="indefinite"/>
    </path>
    <path d="M110 250L160 150" stroke-opacity="0.6">
      <animate attributeName="stroke-dashoffset" values="0;100" dur="2s" repeatCount="indefinite"/>
    </path>
    <path d="M290 250L240 150" stroke-opacity="0.6">
      <animate attributeName="stroke-dashoffset" values="0;100" dur="2s" repeatCount="indefinite"/>
    </path>
  </g>
  
  <!-- Data Flow Particles -->
  <g>
    <circle cx="135" cy="120" r="3" fill="#7C3AED">
      <animate attributeName="opacity" values="1;0;1" dur="2s" repeatCount="indefinite"/>
    </circle>
    <circle cx="265" cy="120" r="3" fill="#3B82F6">
      <animate attributeName="opacity" values="0;1;0" dur="1.5s" repeatCount="indefinite"/>
    </circle>
    <circle cx="135" cy="180" r="3" fill="#7C3AED">
      <animate attributeName="opacity" values="1;0;1" dur="3s" repeatCount="indefinite"/>
    </circle>
    <circle cx="265" cy="180" r="3" fill="#3B82F6">
      <animate attributeName="opacity" values="0;1;0" dur="2.5s" repeatCount="indefinite"/>
    </circle>
  </g>
</svg> 