<?xml version="1.0" encoding="UTF-8"?>
<svg width="400" height="300" viewBox="0 0 400 300" fill="none" xmlns="http://www.w3.org/2000/svg">
  <!-- Dashboard Frame -->
  <rect x="50" y="50" width="300" height="200" rx="8" fill="#1A2B44" stroke="#7C3AED" stroke-width="2"/>
  
  <!-- Dashboard Grid -->
  <g transform="translate(70,70)">
    <!-- Chart 1: Mini Bar Chart -->
    <g>
      <rect x="0" y="0" width="120" height="70" rx="4" fill="#243B61"/>
      <rect x="10" y="30" width="15" height="30" fill="#7C3AED" fill-opacity="0.8"/>
      <rect x="35" y="20" width="15" height="40" fill="#7C3AED" fill-opacity="0.6"/>
      <rect x="60" y="35" width="15" height="25" fill="#7C3AED" fill-opacity="0.4"/>
      <rect x="85" y="15" width="15" height="45" fill="#7C3AED" fill-opacity="0.2"/>
    </g>
    
    <!-- Chart 2: Mini Line Chart -->
    <g transform="translate(140,0)">
      <rect x="0" y="0" width="120" height="70" rx="4" fill="#243B61"/>
      <path d="M10 50L40 20L70 40L100 10" stroke="#3B82F6" stroke-width="2" fill="none"/>
      <circle cx="10" cy="50" r="3" fill="#3B82F6"/>
      <circle cx="40" cy="20" r="3" fill="#3B82F6"/>
      <circle cx="70" cy="40" r="3" fill="#3B82F6"/>
      <circle cx="100" cy="10" r="3" fill="#3B82F6"/>
    </g>
    
    <!-- Chart 3: Mini Donut Chart -->
    <g transform="translate(0,90)">
      <rect x="0" y="0" width="120" height="70" rx="4" fill="#243B61"/>
      <circle cx="60" cy="35" r="25" fill="#7C3AED" fill-opacity="0.2"/>
      <path d="M60 35L60 10A25 25 0 0 1 81.7 47.5L60 35Z" fill="#7C3AED"/>
      <path d="M60 35L81.7 47.5A25 25 0 0 1 38.3 47.5L60 35Z" fill="#3B82F6"/>
      <path d="M60 35L38.3 47.5A25 25 0 0 1 60 10L60 35Z" fill="#7C3AED" fill-opacity="0.6"/>
    </g>
    
    <!-- Chart 4: KPI Cards -->
    <g transform="translate(140,90)">
      <rect x="0" y="0" width="120" height="70" rx="4" fill="#243B61"/>
      <rect x="10" y="10" width="45" height="20" rx="2" fill="#7C3AED" fill-opacity="0.2"/>
      <rect x="65" y="10" width="45" height="20" rx="2" fill="#3B82F6" fill-opacity="0.2"/>
      <rect x="10" y="40" width="45" height="20" rx="2" fill="#7C3AED" fill-opacity="0.2"/>
      <rect x="65" y="40" width="45" height="20" rx="2" fill="#3B82F6" fill-opacity="0.2"/>
    </g>
  </g>
  
  <!-- Interactive Elements -->
  <g>
    <circle cx="200" cy="150" r="4" fill="#7C3AED">
      <animate attributeName="opacity" values="1;0;1" dur="2s" repeatCount="indefinite"/>
    </circle>
    <circle cx="300" cy="100" r="4" fill="#3B82F6">
      <animate attributeName="opacity" values="0;1;0" dur="1.5s" repeatCount="indefinite"/>
    </circle>
    <circle cx="100" cy="200" r="4" fill="#7C3AED">
      <animate attributeName="opacity" values="1;0;1" dur="3s" repeatCount="indefinite"/>
    </circle>
  </g>
</svg> 