<?xml version="1.0" encoding="UTF-8"?>
<svg width="800" height="600" viewBox="0 0 800 600" fill="none" xmlns="http://www.w3.org/2000/svg">
  <!-- Background Grid -->
  <defs>
    <pattern id="grid" x="0" y="0" width="40" height="40" patternUnits="userSpaceOnUse">
      <path d="M 40 0 L 0 0 0 40" fill="none" stroke="#6366F1" stroke-width="0.5" stroke-opacity="0.1"/>
    </pattern>
  </defs>
  <rect width="800" height="600" fill="url(#grid)"/>

  <!-- Glowing Gradient -->
  <circle cx="400" cy="300" r="250" fill="url(#glow)" filter="blur(100px)"/>
  <defs>
    <radialGradient id="glow" cx="0.5" cy="0.5" r="0.5">
      <stop offset="0%" stop-color="#6366F120"/>
      <stop offset="100%" stop-color="#6366F100"/>
    </radialGradient>
  </defs>

  <!-- Neural Network -->
  <g transform="translate(200,150)">
    <!-- Input Layer -->
    <g>
      <circle cx="0" cy="0" r="15" fill="#1A2B44" stroke="#6366F1" stroke-width="2"/>
      <circle cx="0" cy="75" r="15" fill="#1A2B44" stroke="#6366F1" stroke-width="2"/>
      <circle cx="0" cy="150" r="15" fill="#1A2B44" stroke="#6366F1" stroke-width="2"/>
      <circle cx="0" cy="225" r="15" fill="#1A2B44" stroke="#6366F1" stroke-width="2"/>
      <animate attributeName="opacity" values="0.8;1;0.8" dur="2s" repeatCount="indefinite"/>
    </g>

    <!-- Hidden Layer 1 -->
    <g>
      <circle cx="150" cy="37.5" r="15" fill="#1A2B44" stroke="#6366F1" stroke-width="2"/>
      <circle cx="150" cy="112.5" r="15" fill="#1A2B44" stroke="#6366F1" stroke-width="2"/>
      <circle cx="150" cy="187.5" r="15" fill="#1A2B44" stroke="#6366F1" stroke-width="2"/>
      <animate attributeName="opacity" values="0.8;1;0.8" dur="2s" repeatCount="indefinite" begin="0.5s"/>
    </g>

    <!-- Hidden Layer 2 -->
    <g>
      <circle cx="300" cy="75" r="15" fill="#1A2B44" stroke="#6366F1" stroke-width="2"/>
      <circle cx="300" cy="150" r="15" fill="#1A2B44" stroke="#6366F1" stroke-width="2"/>
      <animate attributeName="opacity" values="0.8;1;0.8" dur="2s" repeatCount="indefinite" begin="1s"/>
    </g>

    <!-- Output Layer -->
    <g>
      <circle cx="450" cy="112.5" r="15" fill="#1A2B44" stroke="#6366F1" stroke-width="2"/>
      <animate attributeName="opacity" values="0.8;1;0.8" dur="2s" repeatCount="indefinite" begin="1.5s"/>
    </g>

    <!-- Connections -->
    <g stroke="#6366F1" stroke-width="1" stroke-opacity="0.3">
      <!-- Input to Hidden 1 -->
      <path d="M15,0 L135,37.5"/>
      <path d="M15,0 L135,112.5"/>
      <path d="M15,75 L135,37.5"/>
      <path d="M15,75 L135,112.5"/>
      <path d="M15,75 L135,187.5"/>
      <path d="M15,150 L135,112.5"/>
      <path d="M15,150 L135,187.5"/>
      <path d="M15,225 L135,187.5"/>

      <!-- Hidden 1 to Hidden 2 -->
      <path d="M165,37.5 L285,75"/>
      <path d="M165,37.5 L285,150"/>
      <path d="M165,112.5 L285,75"/>
      <path d="M165,112.5 L285,150"/>
      <path d="M165,187.5 L285,75"/>
      <path d="M165,187.5 L285,150"/>

      <!-- Hidden 2 to Output -->
      <path d="M315,75 L435,112.5"/>
      <path d="M315,150 L435,112.5"/>
    </g>

    <!-- Data Flow -->
    <g>
      <!-- Input to Hidden 1 -->
      <circle cx="75" cy="37.5" r="3" fill="#6366F1">
        <animate attributeName="cx" values="15;135" dur="2s" repeatCount="indefinite"/>
        <animate attributeName="cy" values="0;37.5" dur="2s" repeatCount="indefinite"/>
      </circle>
      <!-- Hidden 1 to Hidden 2 -->
      <circle cx="225" cy="112.5" r="3" fill="#6366F1">
        <animate attributeName="cx" values="165;285" dur="2s" repeatCount="indefinite"/>
        <animate attributeName="cy" values="112.5;150" dur="2s" repeatCount="indefinite"/>
      </circle>
      <!-- Hidden 2 to Output -->
      <circle cx="375" cy="93.75" r="3" fill="#6366F1">
        <animate attributeName="cx" values="315;435" dur="2s" repeatCount="indefinite"/>
        <animate attributeName="cy" values="75;112.5" dur="2s" repeatCount="indefinite"/>
      </circle>
    </g>
  </g>

  <!-- AI Features -->
  <g transform="translate(200,450)">
    <rect width="400" height="60" rx="10" fill="#1A2B44"/>
    <text x="30" y="35" fill="#6366F1" font-family="sans-serif" font-size="14">Machine Learning</text>
    <text x="180" y="35" fill="#6366F1" font-family="sans-serif" font-size="14">NLP</text>
    <text x="250" y="35" fill="#6366F1" font-family="sans-serif" font-size="14">Computer Vision</text>
    <text x="380" y="35" fill="#6366F1" font-family="sans-serif" font-size="14">AI</text>
  </g>

  <!-- Floating Elements -->
  <g>
    <circle cx="150" cy="100" r="30" fill="#6366F110" stroke="#6366F1" stroke-width="2">
      <animate attributeName="r" values="30;35;30" dur="3s" repeatCount="indefinite"/>
    </circle>
    <text x="135" y="105" fill="#6366F1" font-family="sans-serif" font-size="12">ML</text>
  </g>
  <g>
    <circle cx="650" cy="300" r="30" fill="#6366F110" stroke="#6366F1" stroke-width="2">
      <animate attributeName="r" values="30;35;30" dur="3s" repeatCount="indefinite"/>
    </circle>
    <text x="635" y="305" fill="#6366F1" font-family="sans-serif" font-size="12">AI</text>
  </g>

  <!-- Metrics -->
  <g>
    <text x="150" y="400" fill="#6366F1" font-family="monospace" font-size="12">
      Accuracy: 98.5%
      <animate attributeName="opacity" values="0.5;1;0.5" dur="2s" repeatCount="indefinite"/>
    </text>
    <text x="550" y="400" fill="#6366F1" font-family="monospace" font-size="12">
      Efficiency: +150%
      <animate attributeName="opacity" values="0.5;1;0.5" dur="2s" repeatCount="indefinite" begin="1s"/>
    </text>
  </g>

  <!-- Binary Data -->
  <g fill="#6366F1" font-family="monospace" font-size="10">
    <text x="100" y="200">10110</text>
    <text x="600" y="250">01001</text>
    <text x="300" y="100">11100</text>
    <animate attributeName="opacity" values="0.4;0.8;0.4" dur="3s" repeatCount="indefinite"/>
  </g>
</svg> 