<?xml version="1.0" encoding="UTF-8"?>
<svg width="400" height="400" viewBox="0 0 400 400" fill="none" xmlns="http://www.w3.org/2000/svg">
  <!-- Background Elements -->
  <circle cx="200" cy="200" r="180" fill="#3B82F6" fill-opacity="0.05"/>
  <circle cx="200" cy="200" r="150" fill="#10B981" fill-opacity="0.05"/>
  
  <!-- Infrastructure Grid -->
  <g transform="translate(100,100)">
    <!-- Server Racks -->
    <g transform="translate(0,0)">
      <rect x="0" y="0" width="60" height="200" rx="8" fill="#1A2B44" stroke="#3B82F6" stroke-width="2"/>
      <rect x="10" y="20" width="40" height="20" rx="4" fill="#243B61"/>
      <rect x="10" y="50" width="40" height="20" rx="4" fill="#243B61"/>
      <rect x="10" y="80" width="40" height="20" rx="4" fill="#243B61"/>
      <circle cx="45" cy="30" r="3" fill="#10B981"/>
      <circle cx="45" cy="60" r="3" fill="#10B981"/>
      <circle cx="45" cy="90" r="3" fill="#10B981"/>
    </g>
    
    <!-- Cloud Platform -->
    <g transform="translate(100,20)">
      <path d="M50 0C77.6142 0 100 22.3858 100 50C100 77.6142 77.6142 100 50 100C22.3858 100 0 77.6142 0 50C0 22.3858 22.3858 0 50 0Z" fill="#3B82F6" fill-opacity="0.1"/>
      <path d="M30 40C30 28.9543 38.9543 20 50 20H70C81.0457 20 90 28.9543 90 40V60C90 71.0457 81.0457 80 70 80H50C38.9543 80 30 71.0457 30 60V40Z" stroke="#3B82F6" stroke-width="2"/>
    </g>
    
    <!-- Connection Lines -->
    <g stroke="#3B82F6" stroke-opacity="0.3" stroke-width="2">
      <path d="M60 50L100 70" stroke-dasharray="4 4"/>
      <path d="M60 100L100 120" stroke-dasharray="4 4"/>
      <path d="M60 150L100 170" stroke-dasharray="4 4"/>
    </g>
    
    <!-- Data Flow -->
    <g>
      <circle cx="80" cy="60" r="4" fill="#10B981">
        <animate attributeName="opacity" values="1;0;1" dur="2s" repeatCount="indefinite"/>
      </circle>
      <circle cx="80" cy="110" r="4" fill="#10B981">
        <animate attributeName="opacity" values="0;1;0" dur="1.5s" repeatCount="indefinite"/>
      </circle>
      <circle cx="80" cy="160" r="4" fill="#10B981">
        <animate attributeName="opacity" values="1;0;1" dur="3s" repeatCount="indefinite"/>
      </circle>
    </g>
  </g>
  
  <!-- Animated Elements -->
  <g>
    <!-- Floating Shapes -->
    <rect x="50" y="150" width="20" height="20" rx="4" fill="#3B82F6" fill-opacity="0.2">
      <animate attributeName="y" values="150;160;150" dur="3s" repeatCount="indefinite"/>
    </rect>
    <circle cx="330" cy="250" r="15" fill="#10B981" fill-opacity="0.2">
      <animate attributeName="cy" values="250;260;250" dur="4s" repeatCount="indefinite"/>
    </circle>
    <path d="M280 100L300 120L280 140" stroke="#3B82F6" stroke-width="2" stroke-opacity="0.3">
      <animate attributeName="opacity" values="1;0;1" dur="2s" repeatCount="indefinite"/>
    </path>
  </g>
</svg> 