<?xml version="1.0" encoding="UTF-8"?>
<svg width="800" height="600" viewBox="0 0 800 600" fill="none" xmlns="http://www.w3.org/2000/svg">
  <!-- Background Grid -->
  <path d="M0 0h800v600H0z" fill="#0A1628" fill-opacity=".1"/>
  <path d="M50 50h700v500H50z" stroke="#3B82F6" stroke-opacity=".1" stroke-width="1" stroke-dasharray="4 4"/>
  
  <!-- Cloud Platform -->
  <g transform="translate(300,150)">
    <path d="M100 50C100 22.3858 122.386 0 150 0C177.614 0 200 22.3858 200 50C200 77.6142 177.614 100 150 100C122.386 100 100 77.6142 100 50Z" fill="#3B82F6" fill-opacity="0.1"/>
    <path d="M120 40C120 28.9543 128.954 20 140 20H160C171.046 20 180 28.9543 180 40V60C180 71.0457 171.046 80 160 80H140C128.954 80 120 71.0457 120 60V40Z" stroke="#3B82F6" stroke-width="2"/>
    <path d="M130 50L150 30L170 50" stroke="#3B82F6" stroke-width="2"/>
    <path d="M150 30V70" stroke="#3B82F6" stroke-width="2"/>
  </g>

  <!-- Server Rack -->
  <g transform="translate(200,300)">
    <rect x="0" y="0" width="160" height="200" rx="8" fill="#1A2B44"/>
    <rect x="10" y="20" width="140" height="30" rx="4" fill="#243B61"/>
    <rect x="10" y="60" width="140" height="30" rx="4" fill="#243B61"/>
    <rect x="10" y="100" width="140" height="30" rx="4" fill="#243B61"/>
    <circle cx="140" cy="35" r="3" fill="#10B981"/>
    <circle cx="140" cy="75" r="3" fill="#10B981"/>
    <circle cx="140" cy="115" r="3" fill="#10B981"/>
  </g>

  <!-- Network Lines -->
  <g stroke="#3B82F6" stroke-opacity="0.3" stroke-width="2">
    <path d="M280 200L200 300" stroke-dasharray="4 4"/>
    <path d="M400 200L360 300" stroke-dasharray="4 4"/>
    <path d="M500 250L360 350" stroke-dasharray="4 4"/>
  </g>

  <!-- Data Flow -->
  <g>
    <circle cx="280" cy="200" r="4" fill="#10B981">
      <animate attributeName="opacity" values="1;0;1" dur="2s" repeatCount="indefinite"/>
    </circle>
    <circle cx="400" cy="200" r="4" fill="#10B981">
      <animate attributeName="opacity" values="0;1;0" dur="2s" repeatCount="indefinite"/>
    </circle>
    <circle cx="500" cy="250" r="4" fill="#10B981">
      <animate attributeName="opacity" values="1;0;1" dur="1.5s" repeatCount="indefinite"/>
    </circle>
  </g>

  <!-- Security Shield -->
  <g transform="translate(500,300)">
    <path d="M50 0L100 25V75L50 100L0 75V25L50 0Z" fill="#3B82F6" fill-opacity="0.1" stroke="#3B82F6" stroke-width="2"/>
    <path d="M50 20L80 35V65L50 80L20 65V35L50 20Z" fill="#10B981" fill-opacity="0.1" stroke="#10B981" stroke-width="2"/>
    <path d="M45 40L55 50L65 40" stroke="#10B981" stroke-width="2" stroke-linecap="round"/>
  </g>
</svg> 