<?xml version="1.0" encoding="UTF-8"?>
<svg width="400" height="300" viewBox="0 0 400 300" fill="none" xmlns="http://www.w3.org/2000/svg">
  <!-- Shield -->
  <g transform="translate(150,50)">
    <path d="M50 0L100 25V75L50 100L0 75V25L50 0Z" fill="#3B82F6" fill-opacity="0.1" stroke="#3B82F6" stroke-width="2"/>
    <path d="M50 20L80 35V65L50 80L20 65V35L50 20Z" fill="#10B981" fill-opacity="0.1" stroke="#10B981" stroke-width="2"/>
    <path d="M45 40L55 50L65 40" stroke="#10B981" stroke-width="2" stroke-linecap="round"/>
  </g>
  
  <!-- Network Nodes -->
  <g transform="translate(50,150)">
    <!-- Node 1 -->
    <circle cx="50" cy="50" r="20" fill="#1A2B44" stroke="#3B82F6" stroke-width="2"/>
    <circle cx="50" cy="50" r="8" fill="#3B82F6"/>
    
    <!-- Node 2 -->
    <circle cx="150" cy="50" r="20" fill="#1A2B44" stroke="#3B82F6" stroke-width="2"/>
    <circle cx="150" cy="50" r="8" fill="#3B82F6"/>
    
    <!-- Node 3 -->
    <circle cx="250" cy="50" r="20" fill="#1A2B44" stroke="#3B82F6" stroke-width="2"/>
    <circle cx="250" cy="50" r="8" fill="#3B82F6"/>
    
    <!-- Secure Connections -->
    <path d="M70 50L130 50" stroke="#10B981" stroke-width="2" stroke-dasharray="4 4"/>
    <path d="M170 50L230 50" stroke="#10B981" stroke-width="2" stroke-dasharray="4 4"/>
    
    <!-- Data Flow -->
    <circle cx="100" cy="50" r="4" fill="#10B981">
      <animate attributeName="opacity" values="1;0;1" dur="2s" repeatCount="indefinite"/>
    </circle>
    <circle cx="200" cy="50" r="4" fill="#10B981">
      <animate attributeName="opacity" values="0;1;0" dur="2s" repeatCount="indefinite"/>
    </circle>
  </g>
  
  <!-- Firewall -->
  <g transform="translate(150,220)">
    <rect x="0" y="0" width="100" height="40" rx="4" fill="#1A2B44" stroke="#3B82F6" stroke-width="2"/>
    <path d="M20 10L80 30M80 10L20 30" stroke="#3B82F6" stroke-width="2"/>
  </g>
</svg> 