<?xml version="1.0" encoding="UTF-8"?>
<svg width="800" height="600" viewBox="0 0 800 600" fill="none" xmlns="http://www.w3.org/2000/svg">
  <!-- Background Circles -->
  <circle cx="400" cy="300" r="280" fill="url(#heroGradient)" opacity="0.1"/>
  <circle cx="400" cy="300" r="200" fill="url(#heroGradient)" opacity="0.15"/>
  
  <!-- Gradients -->
  <defs>
    <linearGradient id="heroGradient" x1="0" y1="0" x2="800" y2="600" gradientUnits="userSpaceOnUse">
      <stop offset="0%" stop-color="#3B82F6"/>
      <stop offset="100%" stop-color="#10B981"/>
    </linearGradient>
    <linearGradient id="secureGradient" x1="0" y1="0" x2="1" y2="1" gradientUnits="objectBoundingBox">
      <stop offset="0%" stop-color="#3B82F6"/>
      <stop offset="100%" stop-color="#1D4ED8"/>
    </linearGradient>
  </defs>

  <!-- Cloud Platform Base -->
  <path d="M200 300 C200 200 600 200 600 300 L600 400 C600 500 200 500 200 400 Z" 
        fill="#1A2B44" stroke="url(#heroGradient)" stroke-width="2"/>
  
  <!-- Security Shield -->
  <path d="M370 250 L430 250 L450 280 L400 350 L350 280 Z" 
        fill="url(#secureGradient)" opacity="0.9"/>
  <circle cx="400" cy="290" r="15" fill="#10B981"/>
  <path d="M395 290 L405 300 L415 280" stroke="white" stroke-width="3" stroke-linecap="round"/>

  <!-- CI/CD Pipeline -->
  <g transform="translate(250,320)">
    <!-- Pipeline Stages -->
    <rect x="0" y="0" width="60" height="40" rx="5" fill="#3B82F6" opacity="0.9"/>
    <rect x="100" y="0" width="60" height="40" rx="5" fill="#3B82F6" opacity="0.9"/>
    <rect x="200" y="0" width="60" height="40" rx="5" fill="#3B82F6" opacity="0.9"/>
    <rect x="300" y="0" width="60" height="40" rx="5" fill="#3B82F6" opacity="0.9"/>
    
    <!-- Connection Lines -->
    <path d="M60 20 H100 M160 20 H200 M260 20 H300" 
          stroke="url(#heroGradient)" stroke-width="2" stroke-dasharray="4 4"/>
    
    <!-- Stage Icons -->
    <circle cx="30" cy="20" r="10" fill="#10B981"/>
    <circle cx="130" cy="20" r="10" fill="#10B981"/>
    <circle cx="230" cy="20" r="10" fill="#10B981"/>
    <circle cx="330" cy="20" r="10" fill="#10B981"/>
  </g>

  <!-- Containers -->
  <g transform="translate(280,400)">
    <rect x="0" y="0" width="40" height="40" rx="5" fill="#3B82F6" opacity="0.7"/>
    <rect x="60" y="0" width="40" height="40" rx="5" fill="#3B82F6" opacity="0.7"/>
    <rect x="120" y="0" width="40" height="40" rx="5" fill="#3B82F6" opacity="0.7"/>
    <rect x="180" y="0" width="40" height="40" rx="5" fill="#3B82F6" opacity="0.7"/>
  </g>

  <!-- Automation Gears -->
  <g transform="translate(500,250)">
    <path d="M0 0 A30 30 0 1 1 0 60 A30 30 0 1 1 0 0" 
          fill="#10B981" opacity="0.6"/>
    <path d="M15 15 A15 15 0 1 1 15 45 A15 15 0 1 1 15 15" 
          fill="#3B82F6" opacity="0.8"/>
  </g>

  <!-- Financial Data Flow -->
  <g transform="translate(200,200)">
    <path d="M0 0 C100 0 300 0 400 0" 
          stroke="url(#heroGradient)" stroke-width="2" 
          stroke-dasharray="4 4"/>
    <circle cx="0" cy="0" r="4" fill="#10B981"/>
    <circle cx="100" cy="0" r="4" fill="#10B981"/>
    <circle cx="200" cy="0" r="4" fill="#10B981"/>
    <circle cx="300" cy="0" r="4" fill="#10B981"/>
    <circle cx="400" cy="0" r="4" fill="#10B981"/>
  </g>
</svg>