<?xml version="1.0" encoding="UTF-8"?>
<svg width="800" height="600" viewBox="0 0 800 600" fill="none" xmlns="http://www.w3.org/2000/svg">
  <!-- Background Elements -->
  <circle cx="400" cy="300" r="250" fill="#8B5CF6" fill-opacity="0.05"/>
  <circle cx="400" cy="300" r="200" fill="#60A5FA" fill-opacity="0.05"/>
  
  <!-- Central Hub -->
  <g transform="translate(350,250)">
    <rect x="0" y="0" width="100" height="100" rx="12" fill="#1A2B44" stroke="#8B5CF6" stroke-width="2"/>
    <path d="M25 50h50M50 25v50" stroke="#8B5CF6" stroke-width="2"/>
    <circle cx="50" cy="50" r="30" stroke="#8B5CF6" stroke-width="2" stroke-dasharray="4 4" fill="none">
      <animateTransform attributeName="transform" type="rotate" values="0 50 50;360 50 50" dur="10s" repeatCount="indefinite"/>
    </circle>
  </g>
  
  <!-- Connected Apps -->
  <g>
    <!-- App 1 (Mobile) -->
    <g transform="translate(200,200)">
      <rect x="0" y="0" width="80" height="120" rx="8" fill="#1A2B44" stroke="#60A5FA" stroke-width="2"/>
      <rect x="10" y="10" width="60" height="80" rx="4" fill="#243B61"/>
      <circle cx="40" cy="100" r="6" fill="#243B61" stroke="#60A5FA" stroke-width="2"/>
    </g>
    
    <!-- App 2 (Web) -->
    <g transform="translate(520,200)">
      <rect x="0" y="0" width="120" height="80" rx="8" fill="#1A2B44" stroke="#60A5FA" stroke-width="2"/>
      <rect x="10" y="10" width="100" height="60" rx="4" fill="#243B61"/>
      <circle cx="20" cy="20" r="4" fill="#60A5FA"/>
      <circle cx="35" cy="20" r="4" fill="#60A5FA"/>
    </g>
    
    <!-- App 3 (Desktop) -->
    <g transform="translate(200,400)">
      <rect x="0" y="0" width="120" height="100" rx="8" fill="#1A2B44" stroke="#60A5FA" stroke-width="2"/>
      <rect x="10" y="10" width="100" height="70" rx="4" fill="#243B61"/>
      <rect x="30" y="85" width="60" height="8" rx="4" fill="#243B61"/>
    </g>
    
    <!-- App 4 (Cloud) -->
    <g transform="translate(520,400)">
      <path d="M60 20C60 31.046 51.046 40 40 40H20C8.954 40 0 31.046 0 20C0 8.954 8.954 0 20 0C20 -11.046 28.954 -20 40 -20C51.046 -20 60 -11.046 60 0C60 0 60 8.954 60 20Z" 
            transform="translate(20,40)" fill="#1A2B44" stroke="#60A5FA" stroke-width="2"/>
      <circle cx="60" cy="60" r="20" fill="#243B61" stroke="#60A5FA" stroke-width="2"/>
    </g>
  </g>
  
  <!-- Connection Lines -->
  <g stroke="#8B5CF6" stroke-width="2" stroke-dasharray="4 4">
    <!-- Top Left -->
    <path d="M280 260L350 300">
      <animate attributeName="stroke-dashoffset" values="0;100" dur="3s" repeatCount="indefinite"/>
    </path>
    
    <!-- Top Right -->
    <path d="M520 240L450 300">
      <animate attributeName="stroke-dashoffset" values="0;100" dur="3s" repeatCount="indefinite"/>
    </path>
    
    <!-- Bottom Left -->
    <path d="M320 400L350 350">
      <animate attributeName="stroke-dashoffset" values="0;100" dur="3s" repeatCount="indefinite"/>
    </path>
    
    <!-- Bottom Right -->
    <path d="M520 440L450 350">
      <animate attributeName="stroke-dashoffset" values="0;100" dur="3s" repeatCount="indefinite"/>
    </path>
  </g>
  
  <!-- Data Flow Points -->
  <g>
    <circle cx="280" cy="260" r="4" fill="#8B5CF6">
      <animate attributeName="opacity" values="1;0;1" dur="2s" repeatCount="indefinite"/>
    </circle>
    <circle cx="520" cy="240" r="4" fill="#8B5CF6">
      <animate attributeName="opacity" values="0;1;0" dur="1.5s" repeatCount="indefinite"/>
    </circle>
    <circle cx="320" cy="400" r="4" fill="#8B5CF6">
      <animate attributeName="opacity" values="1;0;1" dur="3s" repeatCount="indefinite"/>
    </circle>
    <circle cx="520" cy="440" r="4" fill="#8B5CF6">
      <animate attributeName="opacity" values="0;1;0" dur="2.5s" repeatCount="indefinite"/>
    </circle>
  </g>
  
  <!-- Automation Gears -->
  <g>
    <!-- Top Left -->
    <path d="M40 0C62.0914 0 80 17.9086 80 40C80 62.0914 62.0914 80 40 80C17.9086 80 0 62.0914 0 40C0 17.9086 17.9086 0 40 0Z" 
          transform="translate(150,150)" fill="#1A2B44" stroke="#60A5FA" stroke-width="2">
      <animateTransform attributeName="transform" type="rotate" values="0 190 190;360 190 190" dur="10s" repeatCount="indefinite"/>
    </path>
    
    <!-- Bottom Right -->
    <path d="M40 0C62.0914 0 80 17.9086 80 40C80 62.0914 62.0914 80 40 80C17.9086 80 0 62.0914 0 40C0 17.9086 17.9086 0 40 0Z" 
          transform="translate(570,370)" fill="#1A2B44" stroke="#60A5FA" stroke-width="2">
      <animateTransform attributeName="transform" type="rotate" values="360 610 410;0 610 410" dur="8s" repeatCount="indefinite"/>
    </path>
  </g>
</svg> 