<?xml version="1.0" encoding="UTF-8"?>
<svg width="800" height="600" viewBox="0 0 800 600" fill="none" xmlns="http://www.w3.org/2000/svg">
  <!-- Background Grid -->
  <path d="M0 0h800v600H0z" fill="#0A1628" fill-opacity=".1"/>
  <path d="M50 50h700v500H50z" stroke="#8B5CF6" stroke-opacity=".1" stroke-width="1" stroke-dasharray="4 4"/>
  
  <!-- Mobile App Frame -->
  <g transform="translate(200,150)">
    <rect x="0" y="0" width="180" height="300" rx="20" fill="#1A2B44" stroke="#8B5CF6" stroke-width="2"/>
    <rect x="60" y="10" width="60" height="15" rx="7.5" fill="#243B61"/>
    
    <!-- App Screen -->
    <rect x="10" y="35" width="160" height="230" rx="4" fill="#243B61"/>
    
    <!-- UI Elements -->
    <rect x="20" y="45" width="140" height="40" rx="8" fill="#8B5CF6" fill-opacity="0.2"/>
    <rect x="20" y="95" width="65" height="65" rx="8" fill="#8B5CF6" fill-opacity="0.2"/>
    <rect x="95" y="95" width="65" height="65" rx="8" fill="#8B5CF6" fill-opacity="0.2"/>
    <rect x="20" y="170" width="140" height="20" rx="4" fill="#8B5CF6" fill-opacity="0.2"/>
    <rect x="20" y="200" width="140" height="20" rx="4" fill="#8B5CF6" fill-opacity="0.2"/>
    
    <!-- Home Button -->
    <circle cx="90" cy="280" r="15" fill="#243B61" stroke="#8B5CF6" stroke-width="2"/>
  </g>
  
  <!-- Web App Window -->
  <g transform="translate(420,150)">
    <rect x="0" y="0" width="250" height="200" rx="8" fill="#1A2B44" stroke="#8B5CF6" stroke-width="2"/>
    
    <!-- Window Controls -->
    <circle cx="20" cy="20" r="6" fill="#8B5CF6" fill-opacity="0.4"/>
    <circle cx="40" cy="20" r="6" fill="#8B5CF6" fill-opacity="0.4"/>
    <circle cx="60" cy="20" r="6" fill="#8B5CF6" fill-opacity="0.4"/>
    
    <!-- Content -->
    <rect x="20" y="40" width="210" height="30" rx="4" fill="#243B61"/>
    <rect x="20" y="80" width="100" height="100" rx="4" fill="#243B61"/>
    <rect x="130" y="80" width="100" height="100" rx="4" fill="#243B61"/>
  </g>
  
  <!-- Automation Flow -->
  <g transform="translate(150,100)">
    <path d="M500 200C450 200 450 150 400 150C350 150 350 200 300 200C250 200 250 150 200 150" 
          stroke="#60A5FA" stroke-width="2" fill="none" stroke-dasharray="4 4">
      <animate attributeName="stroke-dashoffset" values="0;100" dur="3s" repeatCount="indefinite"/>
    </path>
    
    <!-- Flow Points -->
    <g>
      <circle cx="500" cy="200" r="4" fill="#60A5FA">
        <animate attributeName="opacity" values="1;0;1" dur="2s" repeatCount="indefinite"/>
      </circle>
      <circle cx="400" cy="150" r="4" fill="#60A5FA">
        <animate attributeName="opacity" values="0;1;0" dur="1.5s" repeatCount="indefinite"/>
      </circle>
      <circle cx="300" cy="200" r="4" fill="#60A5FA">
        <animate attributeName="opacity" values="1;0;1" dur="3s" repeatCount="indefinite"/>
      </circle>
      <circle cx="200" cy="150" r="4" fill="#60A5FA">
        <animate attributeName="opacity" values="0;1;0" dur="2.5s" repeatCount="indefinite"/>
      </circle>
    </g>
  </g>
  
  <!-- Code Blocks -->
  <g transform="translate(100,400)">
    <rect x="0" y="0" width="120" height="100" rx="8" fill="#1A2B44" stroke="#8B5CF6" stroke-width="2"/>
    <rect x="10" y="10" width="100" height="10" rx="2" fill="#243B61"/>
    <rect x="10" y="30" width="80" height="10" rx="2" fill="#243B61"/>
    <rect x="10" y="50" width="90" height="10" rx="2" fill="#243B61"/>
    <rect x="10" y="70" width="70" height="10" rx="2" fill="#243B61"/>
  </g>
  
  <!-- Automation Gears -->
  <g transform="translate(600,400)">
    <path d="M40 0C62.0914 0 80 17.9086 80 40C80 62.0914 62.0914 80 40 80C17.9086 80 0 62.0914 0 40C0 17.9086 17.9086 0 40 0Z" 
          fill="#1A2B44" stroke="#60A5FA" stroke-width="2">
      <animateTransform attributeName="transform" type="rotate" values="0 40 40;360 40 40" dur="10s" repeatCount="indefinite"/>
    </path>
    <path d="M40 10C56.5685 10 70 23.4315 70 40C70 56.5685 56.5685 70 40 70C23.4315 70 10 56.5685 10 40C10 23.4315 23.4315 10 40 10Z" 
          fill="#243B61" stroke="#60A5FA" stroke-width="2">
      <animateTransform attributeName="transform" type="rotate" values="360 40 40;0 40 40" dur="8s" repeatCount="indefinite"/>
    </path>
  </g>
</svg> 