<?xml version="1.0" encoding="UTF-8"?>
<svg width="400" height="300" viewBox="0 0 400 300" fill="none" xmlns="http://www.w3.org/2000/svg">
  <!-- Process Flow -->
  <g transform="translate(50,50)">
    <!-- Process Steps -->
    <g>
      <!-- Step 1 -->
      <rect x="0" y="0" width="80" height="60" rx="8" fill="#1A2B44" stroke="#8B5CF6" stroke-width="2"/>
      <rect x="10" y="10" width="60" height="8" rx="2" fill="#243B61"/>
      <rect x="10" y="25" width="40" height="8" rx="2" fill="#243B61"/>
      <rect x="10" y="40" width="50" height="8" rx="2" fill="#243B61"/>
      
      <!-- Step 2 -->
      <rect x="120" y="0" width="80" height="60" rx="8" fill="#1A2B44" stroke="#8B5CF6" stroke-width="2"/>
      <rect x="130" y="10" width="60" height="8" rx="2" fill="#243B61"/>
      <rect x="130" y="25" width="40" height="8" rx="2" fill="#243B61"/>
      <rect x="130" y="40" width="50" height="8" rx="2" fill="#243B61"/>
      
      <!-- Step 3 -->
      <rect x="240" y="0" width="80" height="60" rx="8" fill="#1A2B44" stroke="#8B5CF6" stroke-width="2"/>
      <rect x="250" y="10" width="60" height="8" rx="2" fill="#243B61"/>
      <rect x="250" y="25" width="40" height="8" rx="2" fill="#243B61"/>
      <rect x="250" y="40" width="50" height="8" rx="2" fill="#243B61"/>
    </g>
    
    <!-- Connection Lines -->
    <g>
      <path d="M80 30L120 30" stroke="#60A5FA" stroke-width="2" stroke-dasharray="4 4">
        <animate attributeName="stroke-dashoffset" values="0;100" dur="2s" repeatCount="indefinite"/>
      </path>
      <path d="M200 30L240 30" stroke="#60A5FA" stroke-width="2" stroke-dasharray="4 4">
        <animate attributeName="stroke-dashoffset" values="0;100" dur="2s" repeatCount="indefinite"/>
      </path>
    </g>
  </g>
  
  <!-- Automation Gears -->
  <g transform="translate(50,150)">
    <!-- Large Gear -->
    <path d="M40 0C62.0914 0 80 17.9086 80 40C80 62.0914 62.0914 80 40 80C17.9086 80 0 62.0914 0 40C0 17.9086 17.9086 0 40 0Z" 
          fill="#1A2B44" stroke="#8B5CF6" stroke-width="2">
      <animateTransform attributeName="transform" type="rotate" values="0 40 40;360 40 40" dur="10s" repeatCount="indefinite"/>
    </path>
    
    <!-- Small Gear -->
    <path d="M40 10C56.5685 10 70 23.4315 70 40C70 56.5685 56.5685 70 40 70C23.4315 70 10 56.5685 10 40C10 23.4315 23.4315 10 40 10Z" 
          fill="#243B61" stroke="#8B5CF6" stroke-width="2">
      <animateTransform attributeName="transform" type="rotate" values="360 40 40;0 40 40" dur="8s" repeatCount="indefinite"/>
    </path>
  </g>
  
  <!-- Data Flow -->
  <g transform="translate(150,150)">
    <path d="M0 40C50 40 50 80 100 80C150 80 150 40 200 40" 
          stroke="#60A5FA" stroke-width="2" fill="none" stroke-dasharray="4 4">
      <animate attributeName="stroke-dashoffset" values="0;100" dur="3s" repeatCount="indefinite"/>
    </path>
    
    <!-- Flow Points -->
    <g>
      <circle cx="0" cy="40" r="4" fill="#60A5FA">
        <animate attributeName="opacity" values="1;0;1" dur="2s" repeatCount="indefinite"/>
      </circle>
      <circle cx="100" cy="80" r="4" fill="#60A5FA">
        <animate attributeName="opacity" values="0;1;0" dur="1.5s" repeatCount="indefinite"/>
      </circle>
      <circle cx="200" cy="40" r="4" fill="#60A5FA">
        <animate attributeName="opacity" values="1;0;1" dur="3s" repeatCount="indefinite"/>
      </circle>
    </g>
  </g>
  
  <!-- Status Indicators -->
  <g transform="translate(350,50)">
    <circle cx="0" cy="0" r="4" fill="#8B5CF6">
      <animate attributeName="opacity" values="1;0;1" dur="2s" repeatCount="indefinite"/>
    </circle>
    <circle cx="0" cy="40" r="4" fill="#8B5CF6">
      <animate attributeName="opacity" values="0;1;0" dur="1.5s" repeatCount="indefinite"/>
    </circle>
    <circle cx="0" cy="80" r="4" fill="#8B5CF6">
      <animate attributeName="opacity" values="1;0;1" dur="3s" repeatCount="indefinite"/>
    </circle>
  </g>
</svg> 