<?xml version="1.0" encoding="UTF-8"?>
<svg width="800" height="600" viewBox="0 0 800 600" fill="none" xmlns="http://www.w3.org/2000/svg">
  <!-- Background Grid -->
  <pattern id="grid" x="0" y="0" width="40" height="40" patternUnits="userSpaceOnUse">
    <path d="M 40 0 L 0 0 0 40" fill="none" stroke="#3B82F6" stroke-width="0.5" stroke-opacity="0.1"/>
  </pattern>
  <rect width="800" height="600" fill="url(#grid)"/>

  <!-- Gradients -->
  <defs>
    <radialGradient id="centerGlow" cx="0.5" cy="0.5" r="0.5">
      <stop offset="0%" stop-color="#FF6B2C" stop-opacity="0.2"/>
      <stop offset="100%" stop-color="#FF6B2C" stop-opacity="0"/>
    </radialGradient>
    
    <linearGradient id="connectionGradient" x1="0" y1="0" x2="1" y2="0">
      <stop offset="0%" stop-color="#FF6B2C"/>
      <stop offset="100%" stop-color="#3B82F6"/>
    </linearGradient>
  </defs>

  <!-- Central Hub -->
  <g transform="translate(400, 300)">
    <!-- Center Circle -->
    <circle r="60" fill="url(#centerGlow)" filter="blur(20px)"/>
    <circle r="40" fill="#FF6B2C" fill-opacity="0.2">
      <animate attributeName="r" values="40;45;40" dur="4s" repeatCount="indefinite"/>
    </circle>
    <circle r="35" fill="#FF6B2C" fill-opacity="0.3"/>
    
    <!-- Central Icon -->
    <path d="M -15,-15 L 15,-15 L 15,15 L -15,15 Z" stroke="#FF6B2C" stroke-width="2" fill="none"/>
    <path d="M -8,-8 L 8,-8 L 8,8 L -8,8 Z" fill="#FF6B2C" fill-opacity="0.6"/>
  </g>

  <!-- Service Nodes -->
  <g>
    <!-- Cloud Services -->
    <g transform="translate(250, 200)">
      <circle r="30" fill="#3B82F6" fill-opacity="0.2">
        <animate attributeName="r" values="30;35;30" dur="3s" repeatCount="indefinite"/>
      </circle>
      <path d="M -15,-5 Q -20,-15 -10,-15 L 10,-15 Q 20,-15 15,-5 Q 25,-5 25,5 Q 25,15 15,15 L -15,15 Q -25,15 -25,5 Q -25,-5 -15,-5" 
            stroke="#3B82F6" stroke-width="2" fill="none"/>
    </g>

    <!-- Security -->
    <g transform="translate(550, 200)">
      <circle r="30" fill="#FF6B2C" fill-opacity="0.2">
        <animate attributeName="r" values="30;35;30" dur="4s" repeatCount="indefinite"/>
      </circle>
      <path d="M 0,-15 L 15,0 L 0,15 L -15,0 Z" stroke="#FF6B2C" stroke-width="2" fill="none"/>
      <circle r="8" cx="0" cy="0" fill="#FF6B2C" fill-opacity="0.6"/>
    </g>

    <!-- Development -->
    <g transform="translate(250, 400)">
      <circle r="30" fill="#3B82F6" fill-opacity="0.2">
        <animate attributeName="r" values="30;35;30" dur="3.5s" repeatCount="indefinite"/>
      </circle>
      <path d="M -15,0 L -5,-10 L 5,0 L -5,10 Z" stroke="#3B82F6" stroke-width="2" fill="none"/>
      <path d="M 5,0 L 15,-10 L 25,0 L 15,10 Z" stroke="#3B82F6" stroke-width="2" fill="none"/>
    </g>

    <!-- Analytics -->
    <g transform="translate(550, 400)">
      <circle r="30" fill="#FF6B2C" fill-opacity="0.2">
        <animate attributeName="r" values="30;35;30" dur="4.5s" repeatCount="indefinite"/>
      </circle>
      <path d="M -15,15 L -15,5 L -5,5 L -5,-5 L 5,-5 L 5,-15 L 15,-15 L 15,15 Z" 
            stroke="#FF6B2C" stroke-width="2" fill="none"/>
    </g>
  </g>

  <!-- Connection Lines -->
  <g stroke="url(#connectionGradient)" stroke-width="2" stroke-opacity="0.3">
    <!-- Cloud Services Connection -->
    <path d="M 400,300 L 250,200">
      <animate attributeName="stroke-opacity" values="0.3;0.6;0.3" dur="3s" repeatCount="indefinite"/>
    </path>
    <circle r="4" fill="#3B82F6">
      <animateMotion dur="3s" repeatCount="indefinite" path="M 400,300 L 250,200"/>
    </circle>

    <!-- Security Connection -->
    <path d="M 400,300 L 550,200">
      <animate attributeName="stroke-opacity" values="0.3;0.6;0.3" dur="4s" repeatCount="indefinite"/>
    </path>
    <circle r="4" fill="#FF6B2C">
      <animateMotion dur="4s" repeatCount="indefinite" path="M 400,300 L 550,200"/>
    </circle>

    <!-- Development Connection -->
    <path d="M 400,300 L 250,400">
      <animate attributeName="stroke-opacity" values="0.3;0.6;0.3" dur="3.5s" repeatCount="indefinite"/>
    </path>
    <circle r="4" fill="#3B82F6">
      <animateMotion dur="3.5s" repeatCount="indefinite" path="M 400,300 L 250,400"/>
    </circle>

    <!-- Analytics Connection -->
    <path d="M 400,300 L 550,400">
      <animate attributeName="stroke-opacity" values="0.3;0.6;0.3" dur="4.5s" repeatCount="indefinite"/>
    </path>
    <circle r="4" fill="#FF6B2C">
      <animateMotion dur="4.5s" repeatCount="indefinite" path="M 400,300 L 550,400"/>
    </circle>
  </g>

  <!-- Service Labels -->
  <g font-family="system-ui" font-size="14" fill="white" text-anchor="middle">
    <text x="250" y="170">Cloud Services</text>
    <text x="550" y="170">Security</text>
    <text x="250" y="450">Development</text>
    <text x="550" y="450">Analytics</text>
  </g>

  <!-- Floating Particles -->
  <g>
    <circle cx="325" cy="250" r="3" fill="#3B82F6" fill-opacity="0.6">
      <animate attributeName="cy" values="250;240;250" dur="2s" repeatCount="indefinite"/>
      <animate attributeName="fill-opacity" values="0.6;0.3;0.6" dur="2s" repeatCount="indefinite"/>
    </circle>
    
    <circle cx="475" cy="350" r="3" fill="#FF6B2C" fill-opacity="0.6">
      <animate attributeName="cy" values="350;360;350" dur="3s" repeatCount="indefinite"/>
      <animate attributeName="fill-opacity" values="0.6;0.3;0.6" dur="3s" repeatCount="indefinite"/>
    </circle>
  </g>
</svg> 