<?xml version="1.0" encoding="UTF-8"?>
<svg width="800" height="600" viewBox="0 0 800 600" fill="none" xmlns="http://www.w3.org/2000/svg">
  <!-- Dynamic Background -->
  <defs>
    <linearGradient id="contactGradient" x1="0" y1="0" x2="800" y2="600" gradientUnits="userSpaceOnUse">
      <stop offset="0%" stop-color="#FF6B2C" stop-opacity="0.05"/>
      <stop offset="100%" stop-color="#3B82F6" stop-opacity="0.05"/>
    </linearGradient>
    <pattern id="contactGrid" width="40" height="40" patternUnits="userSpaceOnUse">
      <path d="M 40 0 L 0 0 0 40" fill="none" stroke="url(#contactGradient)" stroke-width="0.5"/>
    </pattern>
  </defs>

  <!-- Animated Background -->
  <rect width="800" height="600" fill="url(#contactGrid)">
    <animate attributeName="opacity" values="0.3;0.6;0.3" dur="4s" repeatCount="indefinite"/>
  </rect>

  <!-- Central Message Hub -->
  <g transform="translate(400,300)">
    <!-- Central Platform -->
    <circle r="100" fill="#1A2B44" stroke="#FF6B2C" stroke-width="2">
      <animate attributeName="r" values="100;105;100" dur="4s" repeatCount="indefinite"/>
    </circle>
    
    <!-- Rotating Rings -->
    <g>
      <circle r="130" fill="none" stroke="#3B82F6" stroke-width="1" stroke-dasharray="10 5">
        <animateTransform attributeName="transform" type="rotate" from="0" to="360" dur="30s" repeatCount="indefinite"/>
      </circle>
      <circle r="160" fill="none" stroke="#FF6B2C" stroke-width="1" stroke-dasharray="10 5">
        <animateTransform attributeName="transform" type="rotate" from="360" to="0" dur="40s" repeatCount="indefinite"/>
      </circle>
    </g>

    <!-- Message Icon -->
    <g transform="translate(0,0)">
      <path d="M-40 -20 L40 -20 L40 20 L-40 20 Z" stroke="#FF6B2C" stroke-width="4" fill="none">
        <animate attributeName="stroke-opacity" values="1;0.5;1" dur="3s" repeatCount="indefinite"/>
      </path>
      <path d="M-30 -10 L30 -10 M-30 0 L20 0 M-30 10 L10 10" stroke="#3B82F6" stroke-width="4" stroke-linecap="round">
        <animate attributeName="stroke-opacity" values="0.5;1;0.5" dur="3s" repeatCount="indefinite"/>
      </path>
    </g>
  </g>

  <!-- Communication Channels -->
  <g>
    <!-- Email -->
    <g transform="translate(200,200)">
      <circle r="40" fill="#1A2B44" stroke="#FF6B2C" stroke-width="2"/>
      <path d="M-20 -10 L20 -10 L20 10 L-20 10 Z M-20 -10 L0 0 L20 -10" stroke="#FF6B2C" stroke-width="2" fill="none"/>
      <path d="M40 0 C100 0, 150 50, 200 100" stroke="#FF6B2C" stroke-width="2" stroke-dasharray="4 4">
        <animate attributeName="stroke-dashoffset" values="0;8" dur="1s" repeatCount="indefinite"/>
      </path>
    </g>

    <!-- Phone -->
    <g transform="translate(600,200)">
      <circle r="40" fill="#1A2B44" stroke="#3B82F6" stroke-width="2"/>
      <path d="M-10 -15 C-10 -15, -15 0, -5 15 C5 30, 15 15, 15 15" stroke="#3B82F6" stroke-width="2" fill="none"/>
      <path d="M-40 0 C-100 0, -150 50, -200 100" stroke="#3B82F6" stroke-width="2" stroke-dasharray="4 4">
        <animate attributeName="stroke-dashoffset" values="0;8" dur="1s" repeatCount="indefinite"/>
      </path>
    </g>

    <!-- Chat -->
    <g transform="translate(200,400)">
      <circle r="40" fill="#1A2B44" stroke="#FF6B2C" stroke-width="2"/>
      <path d="M-20 -10 Q-20 10 0 10 T20 -10" stroke="#FF6B2C" stroke-width="2" fill="none"/>
      <path d="M40 0 C100 0, 150 -50, 200 -100" stroke="#FF6B2C" stroke-width="2" stroke-dasharray="4 4">
        <animate attributeName="stroke-dashoffset" values="0;8" dur="1s" repeatCount="indefinite"/>
      </path>
    </g>

    <!-- Meeting -->
    <g transform="translate(600,400)">
      <circle r="40" fill="#1A2B44" stroke="#3B82F6" stroke-width="2"/>
      <path d="M-15 -5 Q-15 10 0 10 T15 -5" stroke="#3B82F6" stroke-width="2" fill="none"/>
      <circle cx="0" cy="-10" r="8" stroke="#3B82F6" stroke-width="2" fill="none"/>
      <path d="M-40 0 C-100 0, -150 -50, -200 -100" stroke="#3B82F6" stroke-width="2" stroke-dasharray="4 4">
        <animate attributeName="stroke-dashoffset" values="0;8" dur="1s" repeatCount="indefinite"/>
      </path>
    </g>
  </g>

  <!-- Floating Elements -->
  <g>
    <!-- Particles -->
    <circle cx="300" cy="150" r="4" fill="#FF6B2C">
      <animate attributeName="cy" values="150;140;150" dur="3s" repeatCount="indefinite"/>
      <animate attributeName="opacity" values="1;0.5;1" dur="3s" repeatCount="indefinite"/>
    </circle>
    <circle cx="500" cy="450" r="4" fill="#3B82F6">
      <animate attributeName="cy" values="450;460;450" dur="2.5s" repeatCount="indefinite"/>
      <animate attributeName="opacity" values="0.5;1;0.5" dur="2.5s" repeatCount="indefinite"/>
    </circle>
  </g>

  <!-- Pulse Effects -->
  <g>
    <circle cx="400" cy="300" r="5" fill="#FF6B2C">
      <animate attributeName="r" values="5;40;5" dur="3s" repeatCount="indefinite"/>
      <animate attributeName="opacity" values="0.8;0;0.8" dur="3s" repeatCount="indefinite"/>
    </circle>
    <circle cx="400" cy="300" r="5" fill="#3B82F6">
      <animate attributeName="r" values="5;60;5" dur="4s" repeatCount="indefinite"/>
      <animate attributeName="opacity" values="0.8;0;0.8" dur="4s" repeatCount="indefinite"/>
    </circle>
  </g>

  <!-- Connection Lines -->
  <g>
    <path d="M200 200 Q400 300 600 200" stroke="#FF6B2C" stroke-width="2" stroke-dasharray="4 4" fill="none">
      <animate attributeName="d" 
             values="M200 200 Q400 300 600 200;M200 200 Q400 250 600 200;M200 200 Q400 300 600 200" 
             dur="6s" repeatCount="indefinite"/>
    </path>
    <path d="M200 400 Q400 300 600 400" stroke="#3B82F6" stroke-width="2" stroke-dasharray="4 4" fill="none">
      <animate attributeName="d" 
             values="M200 400 Q400 300 600 400;M200 400 Q400 350 600 400;M200 400 Q400 300 600 400" 
             dur="6s" repeatCount="indefinite"/>
    </path>
  </g>
</svg> 