<?xml version="1.0" encoding="UTF-8"?>
<svg width="800" height="600" viewBox="0 0 800 600" fill="none" xmlns="http://www.w3.org/2000/svg">
  <!-- Background Elements -->
  <circle cx="400" cy="300" r="250" fill="url(#gradient1)" opacity="0.1"/>
  <circle cx="400" cy="300" r="200" fill="url(#gradient2)" opacity="0.1"/>
  
  <!-- Cloud Platform -->
  <path d="M300 200 h200 a40 40 0 0 1 40 40 v120 a40 40 0 0 1 -40 40 h-200 a40 40 0 0 1 -40 -40 v-120 a40 40 0 0 1 40 -40" fill="#1A2B44" stroke="#3B82F6" stroke-width="2"/>
  
  <!-- CI/CD Pipeline -->
  <g transform="translate(320, 240)">
    <!-- Pipeline Stages -->
    <rect x="0" y="0" width="40" height="40" rx="8" fill="#10B981"/>
    <rect x="60" y="0" width="40" height="40" rx="8" fill="#3B82F6"/>
    <rect x="120" y="0" width="40" height="40" rx="8" fill="#6366F1"/>
    
    <!-- Connection Lines -->
    <path d="M42 20 h16" stroke="#3B82F6" stroke-width="2"/>
    <path d="M102 20 h16" stroke="#3B82F6" stroke-width="2"/>
    
    <!-- Stage Icons -->
    <path d="M10 20 l20 0 m-10 -10 v20" stroke="white" stroke-width="2"/>
    <circle cx="80" cy="20" r="8" stroke="white" stroke-width="2" fill="none"/>
    <path d="M130 15 l20 10 l-20 10 z" fill="white"/>
  </g>
  
  <!-- Containers -->
  <g transform="translate(320, 320)">
    <rect x="0" y="0" width="160" height="40" rx="8" fill="#1E3A8A" stroke="#3B82F6" stroke-width="2"/>
    <g transform="translate(20, 10)">
      <!-- Container Icons -->
      <rect x="0" y="0" width="20" height="20" rx="4" fill="#3B82F6"/>
      <rect x="40" y="0" width="20" height="20" rx="4" fill="#3B82F6"/>
      <rect x="80" y="0" width="20" height="20" rx="4" fill="#3B82F6"/>
    </g>
  </g>
  
  <!-- Automation Gears -->
  <g transform="translate(520, 260)">
    <path d="M0 0 a30 30 0 1 0 60 0 a30 30 0 1 0 -60 0" fill="none" stroke="#10B981" stroke-width="2"/>
    <path d="M15 0 a15 15 0 1 0 30 0 a15 15 0 1 0 -30 0" fill="none" stroke="#10B981" stroke-width="2"/>
    <!-- Gear Teeth -->
    <path d="M30 -35 v10 M30 25 v10 M-5 0 h10 M55 0 h10" stroke="#10B981" stroke-width="2"/>
    <path d="M8 -22 l7 7 M45 15 l7 7 M8 22 l7 -7 M45 -15 l7 -7" stroke="#10B981" stroke-width="2"/>
  </g>
  
  <!-- Metrics and Data Points -->
  <g transform="translate(320, 400)">
    <!-- Graph Lines -->
    <path d="M0 0 l40 -20 l40 30 l40 -40 l40 20" stroke="#10B981" stroke-width="2" fill="none"/>
    <circle cx="0" cy="0" r="3" fill="#10B981"/>
    <circle cx="40" cy="-20" r="3" fill="#10B981"/>
    <circle cx="80" cy="10" r="3" fill="#10B981"/>
    <circle cx="120" cy="-30" r="3" fill="#10B981"/>
    <circle cx="160" cy="-10" r="3" fill="#10B981"/>
  </g>

  <!-- Gradients -->
  <defs>
    <linearGradient id="gradient1" x1="0%" y1="0%" x2="100%" y2="100%">
      <stop offset="0%" style="stop-color:#3B82F6;stop-opacity:0.2"/>
      <stop offset="100%" style="stop-color:#10B981;stop-opacity:0.2"/>
    </linearGradient>
    <linearGradient id="gradient2" x1="100%" y1="0%" x2="0%" y2="100%">
      <stop offset="0%" style="stop-color:#3B82F6;stop-opacity:0.1"/>
      <stop offset="100%" style="stop-color:#10B981;stop-opacity:0.1"/>
    </linearGradient>
  </defs>
</svg>