<?xml version="1.0" encoding="UTF-8"?>
<svg width="400" height="300" viewBox="0 0 400 300" fill="none" xmlns="http://www.w3.org/2000/svg">
  <!-- Kubernetes Cluster -->
  <g transform="translate(50,50)">
    <!-- Master Node -->
    <rect x="0" y="0" width="100" height="60" rx="8" fill="#1A2B44" stroke="#F59E0B" stroke-width="2"/>
    <circle cx="20" cy="30" r="10" fill="#243B61" stroke="#F59E0B" stroke-width="2"/>
    <path d="M50 20h30M50 40h30" stroke="#F59E0B" stroke-width="2"/>
    
    <!-- Worker Nodes -->
    <g transform="translate(0,80)">
      <!-- Node 1 -->
      <rect x="0" y="0" width="80" height="50" rx="6" fill="#1A2B44" stroke="#F59E0B" stroke-width="2"/>
      <rect x="10" y="10" width="25" height="30" rx="4" fill="#243B61" stroke="#22C55E" stroke-width="2"/>
      <rect x="45" y="10" width="25" height="30" rx="4" fill="#243B61" stroke="#22C55E" stroke-width="2"/>
      
      <!-- Node 2 -->
      <rect x="100" y="0" width="80" height="50" rx="6" fill="#1A2B44" stroke="#F59E0B" stroke-width="2"/>
      <rect x="110" y="10" width="25" height="30" rx="4" fill="#243B61" stroke="#22C55E" stroke-width="2"/>
      <rect x="145" y="10" width="25" height="30" rx="4" fill="#243B61" stroke="#22C55E" stroke-width="2"/>
      
      <!-- Node 3 -->
      <rect x="200" y="0" width="80" height="50" rx="6" fill="#1A2B44" stroke="#F59E0B" stroke-width="2"/>
      <rect x="210" y="10" width="25" height="30" rx="4" fill="#243B61" stroke="#22C55E" stroke-width="2"/>
      <rect x="245" y="10" width="25" height="30" rx="4" fill="#243B61" stroke="#22C55E" stroke-width="2"/>
    </g>
    
    <!-- Connection Lines -->
    <path d="M50 60v20" stroke="#F59E0B" stroke-width="2" stroke-dasharray="4 4"/>
    <path d="M50 70h190" stroke="#F59E0B" stroke-width="2" stroke-dasharray="4 4"/>
    <path d="M40 70v10" stroke="#F59E0B" stroke-width="2" stroke-dasharray="4 4"/>
    <path d="M140 70v10" stroke="#F59E0B" stroke-width="2" stroke-dasharray="4 4"/>
    <path d="M240 70v10" stroke="#F59E0B" stroke-width="2" stroke-dasharray="4 4"/>
  </g>
  
  <!-- Container Flow -->
  <g transform="translate(50,200)">
    <!-- Flow Path -->
    <path d="M0 0C50 0 50 40 100 40C150 40 150 0 200 0C250 0 250 40 300 40" 
          stroke="#F59E0B" stroke-width="2" fill="none" stroke-dasharray="4 4">
      <animate attributeName="stroke-dashoffset" values="0;100" dur="2s" repeatCount="indefinite"/>
    </path>
    
    <!-- Moving Containers -->
    <g>
      <rect x="0" y="-10" width="20" height="20" rx="4" fill="#243B61" stroke="#22C55E" stroke-width="2">
        <animateMotion dur="4s" repeatCount="indefinite"
          path="M0 0C50 0 50 40 100 40C150 40 150 0 200 0C250 0 250 40 300 40"/>
      </rect>
      <rect x="100" y="30" width="20" height="20" rx="4" fill="#243B61" stroke="#22C55E" stroke-width="2">
        <animateMotion dur="4s" repeatCount="indefinite" begin="2s"
          path="M0 0C50 0 50 40 100 40C150 40 150 0 200 0C250 0 250 40 300 40"/>
      </rect>
    </g>
  </g>
  
  <!-- Status Indicators -->
  <g>
    <circle cx="350" cy="100" r="4" fill="#22C55E">
      <animate attributeName="opacity" values="1;0;1" dur="2s" repeatCount="indefinite"/>
    </circle>
    <circle cx="350" cy="150" r="4" fill="#22C55E">
      <animate attributeName="opacity" values="0;1;0" dur="1.5s" repeatCount="indefinite"/>
    </circle>
    <circle cx="350" cy="200" r="4" fill="#22C55E">
      <animate attributeName="opacity" values="1;0;1" dur="3s" repeatCount="indefinite"/>
    </circle>
  </g>
</svg> 