<?xml version="1.0" encoding="UTF-8"?>
<svg width="400" height="300" viewBox="0 0 400 300" fill="none" xmlns="http://www.w3.org/2000/svg">
  <!-- Code Editor -->
  <g transform="translate(50,50)">
    <rect x="0" y="0" width="140" height="200" rx="8" fill="#1A2B44" stroke="#F59E0B" stroke-width="2"/>
    
    <!-- Code Lines -->
    <g>
      <rect x="10" y="20" width="120" height="12" rx="2" fill="#243B61"/>
      <rect x="20" y="23" width="60" height="6" rx="1" fill="#F59E0B" fill-opacity="0.5"/>
      
      <rect x="10" y="40" width="120" height="12" rx="2" fill="#243B61"/>
      <rect x="20" y="43" width="80" height="6" rx="1" fill="#F59E0B" fill-opacity="0.5"/>
      
      <rect x="10" y="60" width="120" height="12" rx="2" fill="#243B61"/>
      <rect x="20" y="63" width="70" height="6" rx="1" fill="#F59E0B" fill-opacity="0.5"/>
      
      <rect x="10" y="80" width="120" height="12" rx="2" fill="#243B61"/>
      <rect x="20" y="83" width="90" height="6" rx="1" fill="#F59E0B" fill-opacity="0.5"/>
      
      <rect x="10" y="100" width="120" height="12" rx="2" fill="#243B61"/>
      <rect x="20" y="103" width="50" height="6" rx="1" fill="#F59E0B" fill-opacity="0.5"/>
    </g>
  </g>
  
  <!-- Infrastructure Components -->
  <g transform="translate(240,50)">
    <!-- Cloud Platform -->
    <path d="M60 40C60 51.046 51.046 60 40 60H20C8.954 60 0 51.046 0 40C0 28.954 8.954 20 20 20C20 8.954 28.954 0 40 0C51.046 0 60 8.954 60 20C60 20 60 28.954 60 40Z" 
          fill="#1A2B44" stroke="#22C55E" stroke-width="2"/>
    
    <!-- Server Rack -->
    <g transform="translate(0,80)">
      <rect x="0" y="0" width="60" height="80" rx="4" fill="#1A2B44" stroke="#22C55E" stroke-width="2"/>
      <rect x="5" y="10" width="50" height="15" rx="2" fill="#243B61"/>
      <rect x="5" y="32.5" width="50" height="15" rx="2" fill="#243B61"/>
      <rect x="5" y="55" width="50" height="15" rx="2" fill="#243B61"/>
    </g>
  </g>
  
  <!-- Transformation Flow -->
  <g transform="translate(190,100)">
    <!-- Arrow Path -->
    <path d="M0 0L50 50L0 100" stroke="#F59E0B" stroke-width="2" fill="none" stroke-dasharray="4 4">
      <animate attributeName="stroke-dashoffset" values="0;100" dur="2s" repeatCount="indefinite"/>
    </path>
    
    <!-- Flow Indicators -->
    <circle cx="0" cy="0" r="4" fill="#F59E0B">
      <animate attributeName="opacity" values="1;0;1" dur="2s" repeatCount="indefinite"/>
    </circle>
    <circle cx="25" cy="25" r="4" fill="#F59E0B">
      <animate attributeName="opacity" values="0;1;0" dur="1.5s" repeatCount="indefinite"/>
    </circle>
    <circle cx="0" cy="100" r="4" fill="#F59E0B">
      <animate attributeName="opacity" values="1;0;1" dur="3s" repeatCount="indefinite"/>
    </circle>
  </g>
  
  <!-- Status Indicators -->
  <g transform="translate(320,80)">
    <circle cx="0" cy="0" r="4" fill="#22C55E">
      <animate attributeName="opacity" values="1;0;1" dur="2s" repeatCount="indefinite"/>
    </circle>
    <circle cx="0" cy="40" r="4" fill="#22C55E">
      <animate attributeName="opacity" values="0;1;0" dur="1.5s" repeatCount="indefinite"/>
    </circle>
    <circle cx="0" cy="80" r="4" fill="#22C55E">
      <animate attributeName="opacity" values="1;0;1" dur="3s" repeatCount="indefinite"/>
    </circle>
  </g>
</svg> 