<?xml version="1.0" encoding="UTF-8"?>
<svg width="500" height="400" viewBox="0 0 500 400" fill="none" xmlns="http://www.w3.org/2000/svg">
  <defs>
    <linearGradient id="blueGradient" x1="0" y1="0" x2="1" y2="1">
      <stop offset="0%" stop-color="#3B82F6"/>
      <stop offset="100%" stop-color="#2563EB"/>
    </linearGradient>
    <linearGradient id="greenGradient" x1="0" y1="0" x2="1" y2="1">
      <stop offset="0%" stop-color="#10B981"/>
      <stop offset="100%" stop-color="#059669"/>
    </linearGradient>
  </defs>

  <!-- Background -->
  <rect width="500" height="400" fill="#1A2B44"/>

  <!-- IoT Device -->
  <g transform="translate(50,150)">
    <rect width="120" height="160" rx="8" fill="#243B61" stroke="#3B82F6" stroke-width="2"/>
    <text x="20" y="30" fill="white" font-size="14" font-family="system-ui">LDS Device</text>
    
    <!-- Status Indicators -->
    <g transform="translate(20,50)">
      <circle cx="10" cy="10" r="5" fill="#10B981">
        <animate attributeName="opacity" values="1;0.5;1" dur="2s" repeatCount="indefinite"/>
      </circle>
      <text x="25" y="15" fill="white" font-size="12" font-family="system-ui">Active</text>
    </g>
    
    <!-- Data Points -->
    <g transform="translate(20,80)">
      <rect width="80" height="20" rx="4" fill="#3B82F6" opacity="0.3"/>
      <text x="10" y="15" fill="white" font-size="12" font-family="system-ui">Flow Rate</text>
    </g>
    
    <g transform="translate(20,110)">
      <rect width="80" height="20" rx="4" fill="#3B82F6" opacity="0.3"/>
      <text x="10" y="15" fill="white" font-size="12" font-family="system-ui">Pressure</text>
    </g>
  </g>

  <!-- Cloud Platform -->
  <g transform="translate(250,50)">
    <rect width="200" height="100" rx="8" fill="#243B61" stroke="#3B82F6" stroke-width="2"/>
    <text x="20" y="30" fill="white" font-size="14" font-family="system-ui">AWS Cloud Platform</text>
    
    <!-- Cloud Icon -->
    <g transform="translate(150,20)">
      <path d="M20 40 C30 40 40 35 40 25 C40 15 30 10 20 10 C10 10 0 15 0 25 C0 35 10 40 20 40" 
            fill="url(#blueGradient)"/>
    </g>
    
    <!-- Processing Indicators -->
    <g transform="translate(20,50)">
      <rect width="160" height="30" rx="4" fill="#3B82F6" opacity="0.2"/>
      <rect width="100" height="30" rx="4" fill="url(#blueGradient)">
        <animate attributeName="width" values="0;160;0" dur="3s" repeatCount="indefinite"/>
      </rect>
      <text x="10" y="20" fill="white" font-size="12" font-family="system-ui">Processing Data</text>
    </g>
  </g>

  <!-- Data Flow -->
  <g transform="translate(170,200)">
    <!-- Connection Lines -->
    <path d="M0 0 L80 -80" stroke="#3B82F6" stroke-width="2" stroke-dasharray="4"/>
    <path d="M80 -80 L200 -80" stroke="#3B82F6" stroke-width="2" stroke-dasharray="4"/>
    
    <!-- Data Packets -->
    <circle cx="20" cy="-20" r="4" fill="#3B82F6">
      <animate attributeName="cx" values="0;80" dur="1s" repeatCount="indefinite"/>
      <animate attributeName="cy" values="0;-80" dur="1s" repeatCount="indefinite"/>
    </circle>
    <circle cx="120" cy="-80" r="4" fill="#3B82F6">
      <animate attributeName="cx" values="80;200" dur="1s" repeatCount="indefinite"/>
    </circle>
  </g>

  <!-- Alert System -->
  <g transform="translate(250,200)">
    <rect width="200" height="120" rx="8" fill="#243B61" stroke="#10B981" stroke-width="2"/>
    <text x="20" y="30" fill="white" font-size="14" font-family="system-ui">Alert System</text>
    
    <!-- Alert Icons -->
    <g transform="translate(20,50)">
      <circle cx="10" cy="10" r="8" fill="url(#greenGradient)"/>
      <text x="25" y="15" fill="white" font-size="12" font-family="system-ui">SMS Alert</text>
    </g>
    
    <g transform="translate(120,50)">
      <circle cx="10" cy="10" r="8" fill="url(#greenGradient)"/>
      <text x="25" y="15" fill="white" font-size="12" font-family="system-ui">Email</text>
    </g>
    
    <!-- Status -->
    <g transform="translate(20,90)">
      <rect width="160" height="20" rx="4" fill="#10B981" opacity="0.3"/>
      <text x="10" y="15" fill="white" font-size="12" font-family="system-ui">Monitoring Active</text>
    </g>
  </g>
</svg> 