<?xml version="1.0" encoding="UTF-8"?>
<svg width="800" height="600" viewBox="0 0 800 600" fill="none" xmlns="http://www.w3.org/2000/svg">
  <!-- Background Elements -->
  <circle cx="400" cy="300" r="250" fill="#1A2B44" opacity="0.1"/>
  <circle cx="400" cy="300" r="200" fill="#EF4444" opacity="0.05"/>
  
  <!-- Disconnected Systems -->
  <rect x="150" y="200" width="150" height="100" rx="10" fill="#3B82F6" opacity="0.7"/>
  <rect x="500" y="200" width="150" height="100" rx="10" fill="#10B981" opacity="0.7"/>
  
  <!-- Manual Process Symbols -->
  <rect x="300" y="350" width="200" height="30" rx="5" fill="#EF4444" opacity="0.3"/>
  <rect x="300" y="390" width="200" height="30" rx="5" fill="#EF4444" opacity="0.3"/>
  <rect x="300" y="430" width="200" height="30" rx="5" fill="#EF4444" opacity="0.3"/>
  
  <!-- Warning Symbols -->
  <path d="M380 150 L420 150 L400 120 Z" fill="#EF4444"/>
  <circle cx="400" cy="145" r="2" fill="white"/>
  <rect x="398" y="135" width="4" height="8" fill="white"/>
  
  <!-- Broken Connection Line -->
  <path d="M300 250 L350 250" stroke="#EF4444" stroke-width="4" stroke-dasharray="8 8"/>
  <path d="M450 250 L500 250" stroke="#EF4444" stroke-width="4" stroke-dasharray="8 8"/>
  <circle cx="400" cy="250" r="20" fill="#EF4444" opacity="0.2"/>
  <path d="M390 240 L410 260 M410 240 L390 260" stroke="#EF4444" stroke-width="4"/>
  
  <!-- Labels -->
  <text x="225" y="250" text-anchor="middle" fill="white" font-family="sans-serif" font-size="16">System A</text>
  <text x="575" y="250" text-anchor="middle" fill="white" font-family="sans-serif" font-size="16">System B</text>
  <text x="400" y="330" text-anchor="middle" fill="#EF4444" font-family="sans-serif" font-size="14">Manual Data Entry</text>
</svg>