<?xml version="1.0" encoding="UTF-8"?>
<svg width="800" height="600" viewBox="0 0 800 600" fill="none" xmlns="http://www.w3.org/2000/svg">
  <!-- Background Elements -->
  <circle cx="400" cy="300" r="250" fill="#1A2B44" opacity="0.1"/>
  <circle cx="400" cy="300" r="200" fill="#3B82F6" opacity="0.05"/>
  
  <!-- Timeline Track -->
  <path d="M200 300 L600 300" stroke="#243B61" stroke-width="4"/>
  
  <!-- Step 1: Analysis -->
  <circle cx="200" cy="300" r="30" fill="#3B82F6"/>
  <text x="200" y="305" text-anchor="middle" fill="white" font-family="sans-serif" font-size="14">1</text>
  <text x="200" y="350" text-anchor="middle" fill="white" font-family="sans-serif" font-size="12">Analysis</text>
  
  <!-- Step 2: Configuration -->
  <circle cx="300" cy="300" r="30" fill="#3B82F6"/>
  <text x="300" y="305" text-anchor="middle" fill="white" font-family="sans-serif" font-size="14">2</text>
  <text x="300" y="350" text-anchor="middle" fill="white" font-family="sans-serif" font-size="12">Config</text>
  
  <!-- Step 3: Testing -->
  <circle cx="400" cy="300" r="30" fill="#3B82F6"/>
  <text x="400" y="305" text-anchor="middle" fill="white" font-family="sans-serif" font-size="14">3</text>
  <text x="400" y="350" text-anchor="middle" fill="white" font-family="sans-serif" font-size="12">Testing</text>
  
  <!-- Step 4: Training -->
  <circle cx="500" cy="300" r="30" fill="#3B82F6"/>
  <text x="500" y="305" text-anchor="middle" fill="white" font-family="sans-serif" font-size="14">4</text>
  <text x="500" y="350" text-anchor="middle" fill="white" font-family="sans-serif" font-size="12">Training</text>
  
  <!-- Step 5: Go-Live -->
  <circle cx="600" cy="300" r="30" fill="#10B981"/>
  <text x="600" y="305" text-anchor="middle" fill="white" font-family="sans-serif" font-size="14">5</text>
  <text x="600" y="350" text-anchor="middle" fill="white" font-family="sans-serif" font-size="12">Go-Live</text>
  
  <!-- Progress Indicators -->
  <path d="M230 300 L270 300" stroke="#3B82F6" stroke-width="4"/>
  <path d="M330 300 L370 300" stroke="#3B82F6" stroke-width="4"/>
  <path d="M430 300 L470 300" stroke="#3B82F6" stroke-width="4"/>
  <path d="M530 300 L570 300" stroke="#10B981" stroke-width="4"/>
  
  <!-- Title -->
  <text x="400" y="200" text-anchor="middle" fill="white" font-family="sans-serif" font-size="24" font-weight="bold">Implementation Timeline</text>
  <text x="400" y="230" text-anchor="middle" fill="gray" font-family="sans-serif" font-size="16">4-Week Process</text>
  
  <!-- Decorative Elements -->
  <circle cx="200" cy="400" r="8" fill="#3B82F6" opacity="0.3"/>
  <circle cx="600" cy="400" r="8" fill="#10B981" opacity="0.3"/>
</svg>