<?xml version="1.0" encoding="UTF-8"?>
<svg width="800" height="600" viewBox="0 0 800 600" fill="none" xmlns="http://www.w3.org/2000/svg">
  <!-- Background Elements -->
  <path d="M400 50C600 50 750 200 750 400C750 600 600 750 400 750C200 750 50 600 50 400C50 200 200 50 400 50Z" fill="url(#gradient1)" fill-opacity="0.1"/>
  <path d="M400 150C550 150 650 250 650 400C650 550 550 650 400 650C250 650 150 550 150 400C150 250 250 150 400 150Z" fill="url(#gradient2)" fill-opacity="0.1"/>
  
  <!-- Main Building Icon -->
  <rect x="300" y="200" width="200" height="300" rx="20" fill="#1A2B44"/>
  <rect x="330" y="240" width="140" height="40" rx="8" fill="#F59E0B"/>
  <rect x="330" y="300" width="140" height="40" rx="8" fill="#22C55E"/>
  <rect x="330" y="360" width="140" height="40" rx="8" fill="#F59E0B"/>
  <rect x="330" y="420" width="140" height="40" rx="8" fill="#22C55E"/>
  
  <!-- Connection Lines -->
  <path d="M500 320L600 320" stroke="#F59E0B" stroke-width="4" stroke-dasharray="8 8"/>
  <path d="M200 320L300 320" stroke="#22C55E" stroke-width="4" stroke-dasharray="8 8"/>
  
  <!-- Floating Icons -->
  <circle cx="180" cy="320" r="30" fill="#1A2B44"/>
  <path d="M165 320L195 320M180 305L180 335" stroke="#22C55E" stroke-width="4"/>
  
  <circle cx="620" cy="320" r="30" fill="#1A2B44"/>
  <path d="M605 320L635 320M620 305L620 335" stroke="#F59E0B" stroke-width="4"/>
  
  <!-- Gradients -->
  <defs>
    <linearGradient id="gradient1" x1="0" y1="0" x2="800" y2="600" gradientUnits="userSpaceOnUse">
      <stop offset="0%" stop-color="#F59E0B"/>
      <stop offset="100%" stop-color="#22C55E"/>
    </linearGradient>
    <linearGradient id="gradient2" x1="800" y1="0" x2="0" y2="600" gradientUnits="userSpaceOnUse">
      <stop offset="0%" stop-color="#22C55E"/>
      <stop offset="100%" stop-color="#F59E0B"/>
    </linearGradient>
  </defs>
</svg> 