<?xml version="1.0" encoding="UTF-8"?>
<svg width="400" height="300" viewBox="0 0 400 300" fill="none" xmlns="http://www.w3.org/2000/svg">
  <!-- Image Processing -->
  <g transform="translate(50,50)">
    <!-- Original Image Frame -->
    <rect x="0" y="0" width="100" height="100" rx="8" fill="#1A2B44" stroke="#7C3AED" stroke-width="2"/>
    
    <!-- Image Content -->
    <g transform="translate(10,10)">
      <rect x="0" y="0" width="80" height="60" fill="#243B61"/>
      <circle cx="20" cy="20" r="10" fill="#3B82F6" fill-opacity="0.5"/>
      <rect x="40" y="30" width="30" height="20" fill="#7C3AED" fill-opacity="0.5"/>
    </g>
    
    <!-- Processing Steps -->
    <g transform="translate(120,0)">
      <!-- Step 1: Edge Detection -->
      <rect x="0" y="0" width="80" height="80" rx="4" fill="#1A2B44" stroke="#3B82F6" stroke-width="2"/>
      <path d="M20 20L60 20M20 40L60 40M20 60L60 60" stroke="#3B82F6" stroke-width="2"/>
      
      <!-- Step 2: Feature Extraction -->
      <rect x="100" y="0" width="80" height="80" rx="4" fill="#1A2B44" stroke="#7C3AED" stroke-width="2"/>
      <g transform="translate(110,10)" stroke="#7C3AED" stroke-width="2">
        <circle cx="30" cy="30" r="20" fill="none"/>
        <path d="M30 10L30 50M10 30L50 30" stroke-dasharray="2 2"/>
      </g>
    </g>
  </g>
  
  <!-- Object Detection -->
  <g transform="translate(50,170)">
    <!-- Detection Frame -->
    <rect x="0" y="0" width="300" height="100" rx="8" fill="#1A2B44" stroke="#7C3AED" stroke-width="2"/>
    
    <!-- Objects -->
    <g>
      <!-- Object 1 -->
      <rect x="20" y="20" width="40" height="40" rx="4" fill="none" stroke="#3B82F6" stroke-width="2" stroke-dasharray="4 4"/>
      <text x="20" y="70" font-family="monospace" font-size="10" fill="#3B82F6">Car 95%</text>
      
      <!-- Object 2 -->
      <rect x="80" y="30" width="30" height="50" rx="4" fill="none" stroke="#7C3AED" stroke-width="2" stroke-dasharray="4 4"/>
      <text x="80" y="90" font-family="monospace" font-size="10" fill="#7C3AED">Person 98%</text>
      
      <!-- Object 3 -->
      <rect x="130" y="20" width="45" height="30" rx="4" fill="none" stroke="#3B82F6" stroke-width="2" stroke-dasharray="4 4"/>
      <text x="130" y="60" font-family="monospace" font-size="10" fill="#3B82F6">Sign 92%</text>
    </g>
  </g>
  
  <!-- Analysis Flow -->
  <g>
    <!-- Flow Lines -->
    <g stroke="#7C3AED" stroke-width="2" stroke-dasharray="4 4">
      <path d="M150 100L150 170">
        <animate attributeName="stroke-dashoffset" values="0;100" dur="2s" repeatCount="indefinite"/>
      </path>
      <path d="M250 100L250 170">
        <animate attributeName="stroke-dashoffset" values="0;100" dur="2s" repeatCount="indefinite"/>
      </path>
    </g>
    
    <!-- Flow Particles -->
    <circle cx="150" cy="135" r="3" fill="#7C3AED">
      <animate attributeName="opacity" values="1;0;1" dur="2s" repeatCount="indefinite"/>
    </circle>
    <circle cx="250" cy="135" r="3" fill="#3B82F6">
      <animate attributeName="opacity" values="0;1;0" dur="1.5s" repeatCount="indefinite"/>
    </circle>
  </g>
  
  <!-- Metrics -->
  <g transform="translate(320,50)">
    <!-- Accuracy Meter -->
    <circle cx="30" cy="30" r="25" fill="none" stroke="#243B61" stroke-width="4"/>
    <path d="M30 30L30 5" stroke="#7C3AED" stroke-width="2">
      <animateTransform
        attributeName="transform"
        type="rotate"
        from="0 30 30"
        to="360 30 30"
        dur="4s"
        repeatCount="indefinite"
      />
    </path>
    
    <!-- Processing Stats -->
    <g transform="translate(0,80)">
      <rect x="0" y="0" width="60" height="15" rx="2" fill="#1A2B44"/>
      <rect x="0" y="0" width="45" height="15" rx="2" fill="#3B82F6">
        <animate attributeName="width" values="0;45" dur="2s" repeatCount="indefinite"/>
      </rect>
      
      <rect x="0" y="25" width="60" height="15" rx="2" fill="#1A2B44"/>
      <rect x="0" y="25" width="52" height="15" rx="2" fill="#7C3AED">
        <animate attributeName="width" values="0;52" dur="1.5s" repeatCount="indefinite"/>
      </rect>
    </g>
  </g>
</svg> 