<?xml version="1.0" encoding="UTF-8"?>
<svg width="400" height="300" viewBox="0 0 400 300" fill="none" xmlns="http://www.w3.org/2000/svg">
  <!-- Background Grid Pattern -->
  <defs>
    <pattern id="grid" x="0" y="0" width="20" height="20" patternUnits="userSpaceOnUse">
      <path d="M 20 0 L 0 0 0 20" fill="none" stroke="#243B61" stroke-width="0.5" opacity="0.2"/>
    </pattern>
    <linearGradient id="glow" x1="0%" y1="0%" x2="100%" y2="100%">
      <stop offset="0%" style="stop-color:#3B82F6;stop-opacity:0.2"/>
      <stop offset="100%" style="stop-color:#10B981;stop-opacity:0.2"/>
    </linearGradient>
  </defs>
  
  <!-- Background -->
  <rect width="400" height="300" fill="url(#grid)"/>
  <rect width="400" height="300" fill="url(#glow)"/>

  <!-- Data Systems -->
  <g transform="translate(200, 150)">
    <!-- Left Database -->
    <g transform="translate(-120, 0)">
      <rect x="-40" y="-50" width="80" height="100" rx="10" fill="#1A2B44" stroke="#3B82F6" stroke-width="2"/>
      <rect x="-30" y="-30" width="60" height="10" rx="2" fill="#3B82F6" opacity="0.8"/>
      <rect x="-30" y="-15" width="60" height="10" rx="2" fill="#3B82F6" opacity="0.6"/>
      <rect x="-30" y="0" width="60" height="10" rx="2" fill="#3B82F6" opacity="0.4"/>
      <rect x="-30" y="15" width="60" height="10" rx="2" fill="#3B82F6" opacity="0.2"/>
      <text x="0" y="40" fill="#3B82F6" font-family="monospace" font-size="10" text-anchor="middle">Source</text>
    </g>

    <!-- Right Database -->
    <g transform="translate(120, 0)">
      <rect x="-40" y="-50" width="80" height="100" rx="10" fill="#1A2B44" stroke="#10B981" stroke-width="2"/>
      <rect x="-30" y="-30" width="60" height="10" rx="2" fill="#10B981" opacity="0.2"/>
      <rect x="-30" y="-15" width="60" height="10" rx="2" fill="#10B981" opacity="0.4"/>
      <rect x="-30" y="0" width="60" height="10" rx="2" fill="#10B981" opacity="0.6"/>
      <rect x="-30" y="15" width="60" height="10" rx="2" fill="#10B981" opacity="0.8"/>
      <text x="0" y="40" fill="#10B981" font-family="monospace" font-size="10" text-anchor="middle">Target</text>
    </g>

    <!-- Sync Indicator -->
    <g>
      <circle cx="0" cy="0" r="30" fill="#1A2B44" stroke="#3B82F6" stroke-width="2"/>
      <!-- Sync Arrows -->
      <path d="M-15,0 A15,15 0 0,1 15,0" stroke="#3B82F6" stroke-width="2" fill="none">
        <animate attributeName="stroke-dasharray" values="0,100;100,0" dur="2s" repeatCount="indefinite"/>
      </path>
      <path d="M15,0 A15,15 0 0,1 -15,0" stroke="#10B981" stroke-width="2" fill="none">
        <animate attributeName="stroke-dasharray" values="100,0;0,100" dur="2s" repeatCount="indefinite"/>
      </path>
      <!-- Rotating Ring -->
      <circle cx="0" cy="0" r="20" fill="none" stroke="#3B82F6" stroke-width="2" stroke-dasharray="4,4">
        <animateTransform
          attributeName="transform"
          type="rotate"
          from="0 0 0"
          to="360 0 0"
          dur="10s"
          repeatCount="indefinite"
        />
      </circle>
    </g>

    <!-- Data Flow -->
    <g>
      <!-- Left Flow -->
      <path d="M-80,0 L-30,0" stroke="#3B82F6" stroke-width="2" stroke-dasharray="4,4">
        <animate attributeName="stroke-dashoffset" values="8;0" dur="1s" repeatCount="indefinite"/>
      </path>
      <circle r="3" fill="#3B82F6">
        <animateMotion
          path="M-80,0 L-30,0"
          dur="2s"
          repeatCount="indefinite"
        />
      </circle>

      <!-- Right Flow -->
      <path d="M30,0 L80,0" stroke="#10B981" stroke-width="2" stroke-dasharray="4,4">
        <animate attributeName="stroke-dashoffset" values="0;8" dur="1s" repeatCount="indefinite"/>
      </path>
      <circle r="3" fill="#10B981">
        <animateMotion
          path="M30,0 L80,0"
          dur="2s"
          repeatCount="indefinite"
        />
      </circle>
    </g>
  </g>

  <!-- Status Indicators -->
  <g>
    <circle cx="50" cy="50" r="5" fill="#3B82F6">
      <animate attributeName="opacity" values="0.2;1;0.2" dur="1.5s" repeatCount="indefinite"/>
    </circle>
    <circle cx="350" cy="250" r="5" fill="#10B981">
      <animate attributeName="opacity" values="0.2;1;0.2" dur="2s" repeatCount="indefinite"/>
    </circle>
  </g>
</svg> 