<svg width="400" height="300" viewBox="0 0 400 300" fill="none" xmlns="http://www.w3.org/2000/svg">
  <!-- Background Grid -->
  <defs>
    <pattern id="grid" x="0" y="0" width="40" height="40" patternUnits="userSpaceOnUse">
      <path d="M 40 0 L 0 0 0 40" fill="none" stroke="#243B61" stroke-width="0.5" stroke-dasharray="4 4"/>
    </pattern>
    <linearGradient id="orangeGradient" x1="0%" y1="0%" x2="100%" y2="100%">
      <stop offset="0%" style="stop-color:#FF6B2C;stop-opacity:0.4"/>
      <stop offset="100%" style="stop-color:#FF8F59;stop-opacity:0.1"/>
    </linearGradient>
  </defs>
  <rect width="400" height="300" fill="url(#grid)" opacity="0.1"/>

  <!-- Main Elements -->
  <g transform="translate(50, 30)">
    <!-- Deployment Pipeline -->
    <g transform="translate(20, 100)">
      <!-- Pipeline Stages -->
      <rect x="0" y="0" width="60" height="60" rx="8" fill="#1A2B44" stroke="#FF6B2C" stroke-width="2"/>
      <path d="M15 30 L45 30 M30 15 L30 45" stroke="#FF6B2C" stroke-width="2"/>
      
      <path d="M60 30 L90 30" stroke="#FF6B2C" stroke-width="2" stroke-dasharray="4 4"/>
      
      <rect x="90" y="0" width="60" height="60" rx="8" fill="#1A2B44" stroke="#FF6B2C" stroke-width="2"/>
      <circle cx="120" cy="30" r="15" fill="none" stroke="#FF6B2C" stroke-width="2"/>
      <path d="M120 15 L120 45" stroke="#FF6B2C" stroke-width="2"/>
      
      <path d="M150 30 L180 30" stroke="#FF6B2C" stroke-width="2" stroke-dasharray="4 4"/>
      
      <rect x="180" y="0" width="60" height="60" rx="8" fill="#1A2B44" stroke="#FF6B2C" stroke-width="2"/>
      <path d="M195 15 L225 45 M195 45 L225 15" stroke="#FF6B2C" stroke-width="2"/>
    </g>

    <!-- Growth Chart -->
    <g transform="translate(20, 180)">
      <rect x="0" y="0" width="220" height="80" rx="8" fill="url(#orangeGradient)" stroke="#FF6B2C" stroke-width="2"/>
      <path d="M20 60 L200 60" stroke="#FF6B2C" stroke-width="2" opacity="0.4"/>
      <path d="M20 20 L70 40 L120 30 L170 15 L200 10" 
            stroke="#FF6B2C" 
            stroke-width="2" 
            fill="none"
            stroke-linecap="round"/>
      <!-- Data Points -->
      <circle cx="70" cy="40" r="3" fill="#FF6B2C"/>
      <circle cx="120" cy="30" r="3" fill="#FF6B2C"/>
      <circle cx="170" cy="15" r="3" fill="#FF6B2C"/>
    </g>

    <!-- Cloud Platform -->
    <g transform="translate(270, 80)">
      <!-- Cloud Shape -->
      <path d="M30 50 
               C30 36, 40 25, 55 25
               C55 15, 65 5, 80 5
               C95 5, 105 15, 105 25
               C120 25, 130 36, 130 50
               C130 66, 115 80, 80 80
               C45 80, 30 66, 30 50Z" 
            fill="#1A2B44" 
            stroke="#FF6B2C" 
            stroke-width="2"/>
      
      <!-- Server Icons -->
      <rect x="55" y="35" width="20" height="30" rx="4" fill="none" stroke="#FF6B2C" stroke-width="2" opacity="0.6"/>
      <rect x="85" y="35" width="20" height="30" rx="4" fill="none" stroke="#FF6B2C" stroke-width="2" opacity="0.6"/>
    </g>
  </g>

  <!-- Animated Elements -->
  <g>
    <!-- Data Flow Particles -->
    <circle cx="0" cy="0" r="3" fill="#FF6B2C">
      <animateMotion 
        path="M70 160 L120 150 L170 135 L220 130" 
        dur="2s" 
        repeatCount="indefinite"/>
    </circle>
    <circle cx="0" cy="0" r="3" fill="#FF6B2C" opacity="0.6">
      <animateMotion 
        path="M70 160 L120 150 L170 135 L220 130" 
        dur="2s" 
        begin="0.5s"
        repeatCount="indefinite"/>
    </circle>
  </g>
</svg> 