<svg width="400" height="300" viewBox="0 0 400 300" fill="none" xmlns="http://www.w3.org/2000/svg">
  <!-- Background Grid -->
  <defs>
    <pattern id="grid" x="0" y="0" width="40" height="40" patternUnits="userSpaceOnUse">
      <path d="M 40 0 L 0 0 0 40" fill="none" stroke="#243B61" stroke-width="0.5" stroke-dasharray="4 4"/>
    </pattern>
    <linearGradient id="orangeGradient" x1="0%" y1="0%" x2="100%" y2="100%">
      <stop offset="0%" style="stop-color:#FF6B2C;stop-opacity:0.4"/>
      <stop offset="100%" style="stop-color:#FF8F59;stop-opacity:0.1"/>
    </linearGradient>
  </defs>
  <rect width="400" height="300" fill="url(#grid)" opacity="0.1"/>

  <!-- Main Elements -->
  <g transform="translate(50, 30)">
    <!-- Central Hub -->
    <circle cx="150" cy="120" r="80" fill="#1A2B44" stroke="#FF6B2C" stroke-width="2"/>
    <circle cx="150" cy="120" r="60" fill="none" stroke="#FF6B2C" stroke-width="2" stroke-dasharray="4 4"/>
    
    <!-- Understanding (Left) -->
    <g transform="translate(20, 90)">
      <rect width="60" height="60" rx="8" fill="#1A2B44" stroke="#FF6B2C" stroke-width="2"/>
      <path d="M15 30 L45 30 M30 15 L30 45" stroke="#FF6B2C" stroke-width="2"/>
      <circle cx="30" cy="30" r="20" fill="none" stroke="#FF6B2C" stroke-width="2" opacity="0.4"/>
    </g>

    <!-- Solutions (Top) -->
    <g transform="translate(120, 20)">
      <!-- Puzzle Pieces -->
      <rect width="60" height="60" rx="8" fill="#1A2B44" stroke="#FF6B2C" stroke-width="2"/>
      <path d="M15 15 L45 15 M15 30 L45 30 M15 45 L45 45" stroke="#FF6B2C" stroke-width="2" opacity="0.6"/>
      <circle cx="30" cy="30" r="15" fill="#FF6B2C" opacity="0.2"/>
    </g>

    <!-- Delivery (Right) -->
    <g transform="translate(220, 90)">
      <rect width="60" height="60" rx="8" fill="#1A2B44" stroke="#FF6B2C" stroke-width="2"/>
      <path d="M15 15 L45 45 M15 45 L45 15" stroke="#FF6B2C" stroke-width="2"/>
    </g>

    <!-- Connection Lines -->
    <path d="M80 120 L110 120" stroke="#FF6B2C" stroke-width="2" stroke-dasharray="4 4"/>
    <path d="M150 80 L150 100" stroke="#FF6B2C" stroke-width="2" stroke-dasharray="4 4"/>
    <path d="M190 120 L220 120" stroke="#FF6B2C" stroke-width="2" stroke-dasharray="4 4"/>

    <!-- Growth Chart -->
    <g transform="translate(20, 180)">
      <rect width="260" height="80" rx="8" fill="url(#orangeGradient)" stroke="#FF6B2C" stroke-width="2"/>
      <path d="M20 60 L240 60" stroke="#FF6B2C" stroke-width="2" opacity="0.4"/>
      <path d="M20 50 L80 40 L140 20 L200 15 L240 10" 
            stroke="#FF6B2C" 
            stroke-width="2" 
            fill="none"
            stroke-linecap="round"/>
      <!-- Data Points -->
      <circle cx="80" cy="40" r="3" fill="#FF6B2C"/>
      <circle cx="140" cy="20" r="3" fill="#FF6B2C"/>
      <circle cx="200" cy="15" r="3" fill="#FF6B2C"/>
    </g>
  </g>

  <!-- Animated Elements -->
  <g>
    <!-- Rotating Circle -->
    <circle cx="200" cy="150" r="4" fill="#FF6B2C">
      <animateTransform
        attributeName="transform"
        type="rotate"
        from="0 200 150"
        to="360 200 150"
        dur="4s"
        repeatCount="indefinite"/>
    </circle>
    
    <!-- Pulsing Elements -->
    <circle cx="100" cy="120" r="4" fill="#FF6B2C" opacity="0.6">
      <animate
        attributeName="r"
        values="4;6;4"
        dur="2s"
        repeatCount="indefinite"/>
      <animate
        attributeName="opacity"
        values="0.6;0.2;0.6"
        dur="2s"
        repeatCount="indefinite"/>
    </circle>
    
    <!-- Moving Particle -->
    <circle cx="0" cy="0" r="3" fill="#FF6B2C">
      <animateMotion
        path="M100 240 L200 220 L300 210"
        dur="3s"
        repeatCount="indefinite"/>
    </circle>
  </g>
</svg> 