<svg width="400" height="300" viewBox="0 0 400 300" fill="none" xmlns="http://www.w3.org/2000/svg">
  <!-- Background Grid -->
  <defs>
    <pattern id="grid" x="0" y="0" width="40" height="40" patternUnits="userSpaceOnUse">
      <path d="M 40 0 L 0 0 0 40" fill="none" stroke="#243B61" stroke-width="0.5" stroke-dasharray="4 4"/>
    </pattern>
    <linearGradient id="orangeGradient" x1="0%" y1="0%" x2="100%" y2="100%">
      <stop offset="0%" style="stop-color:#FF6B2C;stop-opacity:0.4"/>
      <stop offset="100%" style="stop-color:#FF8F59;stop-opacity:0.1"/>
    </linearGradient>
  </defs>
  <rect width="400" height="300" fill="url(#grid)" opacity="0.1"/>

  <!-- Main Elements -->
  <g transform="translate(50, 30)">
    <!-- Central Hub -->
    <circle cx="150" cy="120" r="70" fill="#1A2B44" stroke="#FF6B2C" stroke-width="2"/>
    <circle cx="150" cy="120" r="50" fill="none" stroke="#FF6B2C" stroke-width="2" stroke-dasharray="4 4"/>
    
    <!-- Puzzle Pieces -->
    <g transform="translate(120, 90)">
      <!-- Piece 1 -->
      <path d="M0 0 L20 0 A10 10 0 0 1 20 20 L0 20 L0 0" 
            fill="#FF6B2C" opacity="0.4"/>
      <!-- Piece 2 -->
      <path d="M30 0 L50 0 L50 20 A10 10 0 0 0 30 20 L30 0" 
            fill="#FF6B2C" opacity="0.6"/>
      <!-- Piece 3 -->
      <path d="M0 30 L20 30 A10 10 0 0 1 20 50 L0 50 L0 30" 
            fill="#FF6B2C" opacity="0.5"/>
      <!-- Piece 4 -->
      <path d="M30 30 L50 30 L50 50 A10 10 0 0 0 30 50 L30 30" 
            fill="#FF6B2C" opacity="0.3"/>
    </g>

    <!-- Connected Elements -->
    <g transform="translate(250, 70)">
      <!-- Code Window -->
      <rect x="0" y="0" width="100" height="80" rx="8" fill="#1A2B44" stroke="#FF6B2C" stroke-width="2"/>
      <rect x="10" y="10" width="60" height="8" rx="4" fill="#FF6B2C" opacity="0.6"/>
      <rect x="10" y="30" width="80" height="8" rx="4" fill="#FF6B2C" opacity="0.4"/>
      <rect x="10" y="50" width="40" height="8" rx="4" fill="#FF6B2C" opacity="0.6"/>
    </g>

    <!-- Connection Lines -->
    <path d="M190 120 C 220 120, 220 110, 250 110" stroke="#FF6B2C" stroke-width="2" stroke-dasharray="4 4"/>
    <path d="M190 120 C 220 120, 220 170, 250 170" stroke="#FF6B2C" stroke-width="2" stroke-dasharray="4 4"/>

    <!-- Solution Box -->
    <g transform="translate(250, 170)">
      <rect x="0" y="0" width="100" height="60" rx="8" fill="url(#orangeGradient)" stroke="#FF6B2C" stroke-width="2"/>
      <circle cx="20" cy="30" r="10" fill="#FF6B2C" opacity="0.4"/>
      <path d="M40 30 L80 30" stroke="#FF6B2C" stroke-width="2"/>
      <path d="M40 20 L70 20" stroke="#FF6B2C" stroke-width="2" opacity="0.6"/>
      <path d="M40 40 L60 40" stroke="#FF6B2C" stroke-width="2" opacity="0.4"/>
    </g>
  </g>

  <!-- Animated Elements -->
  <g transform="translate(150, 120)">
    <circle r="4" fill="#FF6B2C" opacity="0.6">
      <animateMotion 
        path="M0 0 L30 -20 L60 0 L30 20 Z" 
        dur="4s" 
        repeatCount="indefinite"/>
    </circle>
  </g>
</svg> 