<?xml version="1.0" encoding="UTF-8"?>
<svg width="800" height="600" viewBox="0 0 800 600" fill="none" xmlns="http://www.w3.org/2000/svg">
  <!-- Dynamic Background -->
  <defs>
    <linearGradient id="gridGradient" x1="0" y1="0" x2="800" y2="600" gradientUnits="userSpaceOnUse">
      <stop offset="0%" stop-color="#FF6B2C" stop-opacity="0.05"/>
      <stop offset="100%" stop-color="#3B82F6" stop-opacity="0.05"/>
    </linearGradient>
    <pattern id="gridPattern" width="40" height="40" patternUnits="userSpaceOnUse">
      <path d="M 40 0 L 0 0 0 40" fill="none" stroke="url(#gridGradient)" stroke-width="0.5"/>
    </pattern>
  </defs>
  
  <!-- Animated Background -->
  <rect width="800" height="600" fill="url(#gridPattern)">
    <animate attributeName="opacity" values="0.3;0.6;0.3" dur="4s" repeatCount="indefinite"/>
  </rect>

  <!-- Central Cloud Hub -->
  <g transform="translate(400,300)">
    <!-- Main Cloud Platform -->
    <circle r="120" fill="#1A2B44" stroke="#3B82F6" stroke-width="2">
      <animate attributeName="r" values="120;125;120" dur="4s" repeatCount="indefinite"/>
    </circle>
    
    <!-- Orbital Rings -->
    <g transform="rotate(0)">
      <circle r="160" fill="none" stroke="#3B82F6" stroke-width="1" stroke-dasharray="4 4">
        <animateTransform attributeName="transform" type="rotate" from="0" to="360" dur="20s" repeatCount="indefinite"/>
      </circle>
      <circle r="200" fill="none" stroke="#FF6B2C" stroke-width="1" stroke-dasharray="4 4">
        <animateTransform attributeName="transform" type="rotate" from="360" to="0" dur="30s" repeatCount="indefinite"/>
      </circle>
    </g>
  </g>

  <!-- AWS Services Cluster -->
  <g transform="translate(200,200)">
    <!-- AWS Cloud -->
    <path d="M-60 -60 h120 v120 h-120 z" rx="20" fill="#1A2B44" stroke="#FF6B2C" stroke-width="2"/>
    <text x="0" y="0" fill="#FF6B2C" font-family="monospace" font-size="24" text-anchor="middle">AWS</text>
    
    <!-- Service Icons -->
    <g transform="translate(0,30)">
      <!-- EC2 -->
      <g transform="translate(-40,-20)">
        <rect x="-15" y="-15" width="30" height="30" rx="6" fill="#FF6B2C" fill-opacity="0.1"/>
        <path d="M-8 0h16M0 -8v16" stroke="#FF6B2C" stroke-width="2"/>
      </g>
      
      <!-- Lambda -->
      <g transform="translate(40,-20)">
        <rect x="-15" y="-15" width="30" height="30" rx="6" fill="#FF6B2C" fill-opacity="0.1"/>
        <path d="M-8 -8l16 16M8 -8l-16 16" stroke="#FF6B2C" stroke-width="2"/>
      </g>
    </g>
    
    <!-- Data Flow -->
    <path d="M60 0 C100 0, 150 50, 200 50" stroke="#FF6B2C" stroke-width="2" stroke-dasharray="4 4">
      <animate attributeName="stroke-dashoffset" values="0;8" dur="1s" repeatCount="indefinite"/>
    </path>
  </g>

  <!-- Azure Services Cluster -->
  <g transform="translate(600,400)">
    <!-- Azure Cloud -->
    <path d="M-60 -60 h120 v120 h-120 z" rx="20" fill="#1A2B44" stroke="#3B82F6" stroke-width="2"/>
    <text x="0" y="0" fill="#3B82F6" font-family="monospace" font-size="24" text-anchor="middle">Azure</text>
    
    <!-- Service Icons -->
    <g transform="translate(0,30)">
      <!-- Functions -->
      <g transform="translate(-40,-20)">
        <rect x="-15" y="-15" width="30" height="30" rx="6" fill="#3B82F6" fill-opacity="0.1"/>
        <path d="M-8 0h16M0 -8v16" stroke="#3B82F6" stroke-width="2"/>
      </g>
      
      <!-- Cognitive Services -->
      <g transform="translate(40,-20)">
        <rect x="-15" y="-15" width="30" height="30" rx="6" fill="#3B82F6" fill-opacity="0.1"/>
        <circle cx="0" cy="0" r="8" stroke="#3B82F6" stroke-width="2" fill="none"/>
        <path d="M-4 -4l8 8M4 -4l-8 8" stroke="#3B82F6" stroke-width="2"/>
      </g>
    </g>
    
    <!-- Data Flow -->
    <path d="M-60 0 C-100 0, -150 -50, -200 -50" stroke="#3B82F6" stroke-width="2" stroke-dasharray="4 4">
      <animate attributeName="stroke-dashoffset" values="0;8" dur="1s" repeatCount="indefinite"/>
    </path>
  </g>

  <!-- Floating Particles -->
  <g>
    <circle cx="300" cy="150" r="4" fill="#FF6B2C">
      <animate attributeName="cy" values="150;140;150" dur="3s" repeatCount="indefinite"/>
      <animate attributeName="opacity" values="1;0.5;1" dur="3s" repeatCount="indefinite"/>
    </circle>
    <circle cx="500" cy="450" r="4" fill="#3B82F6">
      <animate attributeName="cy" values="450;460;450" dur="2.5s" repeatCount="indefinite"/>
      <animate attributeName="opacity" values="0.5;1;0.5" dur="2.5s" repeatCount="indefinite"/>
    </circle>
  </g>

  <!-- Connection Lines -->
  <g>
    <path d="M200 300 Q400 200 600 300" stroke="#FF6B2C" stroke-width="2" stroke-dasharray="4 4" fill="none">
      <animate attributeName="d" 
             values="M200 300 Q400 200 600 300;M200 300 Q400 400 600 300;M200 300 Q400 200 600 300" 
             dur="6s" repeatCount="indefinite"/>
    </path>
    <path d="M200 300 Q400 400 600 300" stroke="#3B82F6" stroke-width="2" stroke-dasharray="4 4" fill="none">
      <animate attributeName="d" 
             values="M200 300 Q400 400 600 300;M200 300 Q400 200 600 300;M200 300 Q400 400 600 300" 
             dur="6s" repeatCount="indefinite"/>
    </path>
  </g>

  <!-- Pulse Effects -->
  <g>
    <circle cx="400" cy="300" r="5" fill="#FF6B2C">
      <animate attributeName="r" values="5;20;5" dur="2s" repeatCount="indefinite"/>
      <animate attributeName="opacity" values="1;0;1" dur="2s" repeatCount="indefinite"/>
    </circle>
    <circle cx="400" cy="300" r="5" fill="#3B82F6">
      <animate attributeName="r" values="5;30;5" dur="3s" repeatCount="indefinite"/>
      <animate attributeName="opacity" values="1;0;1" dur="3s" repeatCount="indefinite"/>
    </circle>
  </g>
</svg> 