<?xml version="1.0" encoding="UTF-8"?>
<svg width="800" height="600" viewBox="0 0 800 600" fill="none" xmlns="http://www.w3.org/2000/svg">
  <!-- Definitions -->
  <defs>
    <!-- Gradients -->
    <linearGradient id="bgGradient" x1="0" y1="0" x2="800" y2="600">
      <stop offset="0%" stop-color="#1A2B44" stop-opacity="0.1"/>
      <stop offset="50%" stop-color="#243B61" stop-opacity="0.15"/>
      <stop offset="100%" stop-color="#1A2B44" stop-opacity="0.1"/>
    </linearGradient>
    
    <linearGradient id="orangeGradient" x1="0" y1="0" x2="1" y2="0">
      <stop offset="0%" stop-color="#F97316"/>
      <stop offset="100%" stop-color="#FB923C"/>
    </linearGradient>
    
    <linearGradient id="blueGradient" x1="0" y1="0" x2="1" y2="0">
      <stop offset="0%" stop-color="#3B82F6"/>
      <stop offset="100%" stop-color="#60A5FA"/>
    </linearGradient>
    
    <linearGradient id="purpleGradient" x1="0" y1="0" x2="1" y2="0">
      <stop offset="0%" stop-color="#8B5CF6"/>
      <stop offset="100%" stop-color="#A78BFA"/>
    </linearGradient>
    
    <linearGradient id="tealGradient" x1="0" y1="0" x2="1" y2="0">
      <stop offset="0%" stop-color="#2DD4BF"/>
      <stop offset="100%" stop-color="#5EEAD4"/>
    </linearGradient>
    
    <!-- Patterns -->
    <pattern id="gridPattern" width="40" height="40" patternUnits="userSpaceOnUse">
      <path d="M 40 0 L 0 0 0 40" fill="none" stroke="#243B61" stroke-width="0.5"/>
    </pattern>
    
    <!-- Filters -->
    <filter id="glow">
      <feGaussianBlur stdDeviation="2" result="coloredBlur"/>
      <feMerge>
        <feMergeNode in="coloredBlur"/>
        <feMergeNode in="SourceGraphic"/>
      </feMerge>
    </filter>

    <!-- Animation Paths -->
    <path id="orbitPath" d="M0 0A80 80 0 1 1 0 0.01" fill="none"/>
  </defs>

  <!-- Background -->
  <rect width="800" height="600" fill="url(#bgGradient)"/>
  <rect width="800" height="600" fill="url(#gridPattern)" opacity="0.1"/>

  <!-- Central Hub Machine -->
  <g transform="translate(400,300)">
    <!-- Core Machine -->
    <circle cx="0" cy="0" r="100" fill="#1A2B44" stroke="#3B82F6" stroke-width="2"/>
    <circle cx="0" cy="0" r="80" fill="#243B61" stroke="#F97316" stroke-width="2" stroke-dasharray="4 4">
      <animateTransform
        attributeName="transform"
        type="rotate"
        from="0 0 0"
        to="360 0 0"
        dur="30s"
        repeatCount="indefinite"/>
    </circle>
    <circle cx="0" cy="0" r="60" fill="#1A2B44" stroke="#2DD4BF" stroke-width="2" stroke-dasharray="8 8">
      <animateTransform
        attributeName="transform"
        type="rotate"
        from="360 0 0"
        to="0 0 0"
        dur="20s"
        repeatCount="indefinite"/>
    </circle>
    
    <!-- Central Gear -->
    <g filter="url(#glow)">
      <path d="M0,-15 L5,-5 L15,-5 L15,5 L5,5 L0,15 L-5,5 L-15,5 L-15,-5 L-5,-5 Z" 
            fill="#1A2B44" stroke="#F97316" stroke-width="2">
        <animateTransform
          attributeName="transform"
          type="rotate"
          from="0 0 0"
          to="360 0 0"
          dur="10s"
          repeatCount="indefinite"/>
      </path>
    </g>
    
    <!-- Central Icon -->
    <circle cx="0" cy="0" r="20" fill="#1A2B44" stroke="#3B82F6" stroke-width="2"/>
    <path d="M-10,0 L10,0 M0,-10 L0,10" stroke="#3B82F6" stroke-width="2"/>
  </g>

  <!-- DevOps Module (Top) -->
  <g transform="translate(400,120)">
    <!-- DevOps Infinity Loop -->
    <g filter="url(#glow)">
      <path d="M-40,0 C-40,-20 -20,-40 0,-40 C20,-40 40,-20 40,0 C40,20 20,40 0,40 C-20,40 -40,20 -40,0" 
            fill="none" stroke="url(#orangeGradient)" stroke-width="3">
        <animate attributeName="stroke-dasharray" values="0,200;200,0" dur="3s" repeatCount="indefinite"/>
      </path>
      <path d="M40,0 C40,-20 20,-40 0,-40 C-20,-40 -40,-20 -40,0 C-40,20 -20,40 0,40 C20,40 40,20 40,0" 
            fill="none" stroke="url(#orangeGradient)" stroke-width="3">
        <animate attributeName="stroke-dasharray" values="200,0;0,200" dur="3s" repeatCount="indefinite"/>
      </path>
    </g>
    
    <!-- Pipeline Stages -->
    <rect x="-60" y="20" width="30" height="20" rx="5" fill="#1A2B44" stroke="#F97316" stroke-width="2"/>
    <rect x="-20" y="20" width="30" height="20" rx="5" fill="#1A2B44" stroke="#F97316" stroke-width="2"/>
    <rect x="20" y="20" width="30" height="20" rx="5" fill="#1A2B44" stroke="#F97316" stroke-width="2"/>
    
    <!-- Connection to Center -->
    <path d="M0,60 L0,180" stroke="#F97316" stroke-width="2" stroke-dasharray="4 4">
      <animate attributeName="stroke-dashoffset" values="0;16" dur="1s" repeatCount="indefinite"/>
    </path>
  </g>

  <!-- Cloud Infrastructure (Left) -->
  <g transform="translate(200,250)">
    <!-- Cloud Shape -->
    <path d="M0,20 Q-20,-10 -40,10 Q-70,-10 -60,20 Q-90,20 -70,40 Q-80,60 -60,60 Q-70,90 -40,70 Q-20,100 0,70 Q30,100 20,60 Q50,70 40,40 Q70,30 40,20 Q50,-10 20,0 Q10,-20 0,20" 
          fill="#1A2B44" stroke="url(#blueGradient)" stroke-width="2"/>
    
    <!-- Server Icons -->
    <rect x="-30" y="30" width="20" height="30" rx="2" fill="#1A2B44" stroke="#3B82F6" stroke-width="2"/>
    <rect x="0" y="30" width="20" height="30" rx="2" fill="#1A2B44" stroke="#3B82F6" stroke-width="2"/>
    
    <!-- Connection to Center -->
    <path d="M40,40 L180,40" stroke="#3B82F6" stroke-width="2" stroke-dasharray="4 4">
      <animate attributeName="stroke-dashoffset" values="0;16" dur="1s" repeatCount="indefinite"/>
    </path>
  </g>

  <!-- AI/ML Module (Right) -->
  <g transform="translate(600,250)">
    <!-- Neural Network -->
    <g filter="url(#glow)">
      <circle cx="-40" cy="0" r="8" fill="#1A2B44" stroke="#8B5CF6" stroke-width="2"/>
      <circle cx="-20" cy="-20" r="8" fill="#1A2B44" stroke="#8B5CF6" stroke-width="2"/>
      <circle cx="-20" cy="20" r="8" fill="#1A2B44" stroke="#8B5CF6" stroke-width="2"/>
      <circle cx="0" cy="0" r="8" fill="#1A2B44" stroke="#8B5CF6" stroke-width="2"/>
      <circle cx="20" cy="-20" r="8" fill="#1A2B44" stroke="#8B5CF6" stroke-width="2"/>
      <circle cx="20" cy="20" r="8" fill="#1A2B44" stroke="#8B5CF6" stroke-width="2"/>
      <circle cx="40" cy="0" r="8" fill="#1A2B44" stroke="#8B5CF6" stroke-width="2"/>
      
      <!-- Neural Connections -->
      <path d="M-40,0 L-20,-20 L0,0 L20,-20 L40,0 M-20,20 L0,0 L20,20" stroke="#8B5CF6" stroke-width="2">
        <animate attributeName="stroke-dasharray" values="0,200;200,0" dur="3s" repeatCount="indefinite"/>
      </path>
    </g>
    
    <!-- Connection to Center -->
    <path d="M-40,40 L-180,40" stroke="#8B5CF6" stroke-width="2" stroke-dasharray="4 4">
      <animate attributeName="stroke-dashoffset" values="0;16" dur="1s" repeatCount="indefinite"/>
    </path>
  </g>

  <!-- Integration Module (Bottom Left) -->
  <g transform="translate(250,450)">
    <!-- Integration Gears -->
    <g filter="url(#glow)">
      <path d="M-30,-10 L-25,-3 L-15,-3 L-15,3 L-25,3 L-30,10 L-35,3 L-45,3 L-45,-3 L-35,-3 Z" 
            fill="#1A2B44" stroke="#2DD4BF" stroke-width="2">
        <animateTransform
          attributeName="transform"
          type="rotate"
          from="0 -30 0"
          to="360 -30 0"
          dur="10s"
          repeatCount="indefinite"/>
      </path>
      
      <path d="M30,-10 L35,-3 L45,-3 L45,3 L35,3 L30,10 L25,3 L15,3 L15,-3 L25,-3 Z" 
            fill="#1A2B44" stroke="#2DD4BF" stroke-width="2">
        <animateTransform
          attributeName="transform"
          type="rotate"
          from="0 30 0"
          to="-360 30 0"
          dur="10s"
          repeatCount="indefinite"/>
      </path>
    </g>
    
    <!-- Integration Flow -->
    <path d="M-30,0 L30,0" stroke="#2DD4BF" stroke-width="2" stroke-dasharray="4 4">
      <animate attributeName="stroke-dashoffset" values="0;16" dur="1s" repeatCount="indefinite"/>
    </path>
    
    <!-- Connection to Center -->
    <path d="M0,-20 L130,-130" stroke="#2DD4BF" stroke-width="2" stroke-dasharray="4 4">
      <animate attributeName="stroke-dashoffset" values="0;16" dur="1s" repeatCount="indefinite"/>
    </path>
  </g>

  <!-- Mobile Apps Module (Bottom Right) -->
  <g transform="translate(550,450)">
    <!-- Mobile Device -->
    <rect x="-30" y="-50" width="60" height="100" rx="10" fill="#1A2B44" stroke="#F97316" stroke-width="2"/>
    <rect x="-20" y="-40" width="40" height="70" rx="5" fill="#243B61"/>
    
    <!-- App Interface -->
    <rect x="-15" y="-35" width="30" height="10" rx="2" fill="#F97316" opacity="0.5"/>
    <rect x="-15" y="-20" width="30" height="10" rx="2" fill="#F97316" opacity="0.5"/>
    <rect x="-15" y="-5" width="30" height="10" rx="2" fill="#F97316" opacity="0.5"/>
    <rect x="-15" y="10" width="30" height="10" rx="2" fill="#F97316" opacity="0.5"/>
    
    <!-- Home Button -->
    <circle cx="0" cy="40" r="5" fill="#243B61" stroke="#F97316" stroke-width="1"/>
    
    <!-- Connection to Center -->
    <path d="M0,-50 L-130,-130" stroke="#F97316" stroke-width="2" stroke-dasharray="4 4">
      <animate attributeName="stroke-dashoffset" values="0;16" dur="1s" repeatCount="indefinite"/>
    </path>
  </g>

  <!-- Data Flow Particles -->
  <g filter="url(#glow)">
    <!-- DevOps Flow -->
    <circle cx="0" cy="0" r="4" fill="#F97316">
      <animateMotion path="M400 180L400 300" dur="2s" repeatCount="indefinite"/>
      <animate attributeName="opacity" values="0;1;0" dur="2s" repeatCount="indefinite"/>
    </circle>
    
    <!-- Cloud Flow -->
    <circle cx="0" cy="0" r="4" fill="#3B82F6">
      <animateMotion path="M240 290L400 300" dur="2s" repeatCount="indefinite"/>
      <animate attributeName="opacity" values="0;1;0" dur="2s" repeatCount="indefinite"/>
    </circle>
    
    <!-- AI Flow -->
    <circle cx="0" cy="0" r="4" fill="#8B5CF6">
      <animateMotion path="M560 290L400 300" dur="2s" repeatCount="indefinite"/>
      <animate attributeName="opacity" values="0;1;0" dur="2s" repeatCount="indefinite"/>
    </circle>
    
    <!-- Integration Flow -->
    <circle cx="0" cy="0" r="4" fill="#2DD4BF">
      <animateMotion path="M250 430L380 320" dur="2s" repeatCount="indefinite"/>
      <animate attributeName="opacity" values="0;1;0" dur="2s" repeatCount="indefinite"/>
    </circle>
    
    <!-- Mobile Flow -->
    <circle cx="0" cy="0" r="4" fill="#F97316">
      <animateMotion path="M550 400L420 320" dur="2s" repeatCount="indefinite"/>
      <animate attributeName="opacity" values="0;1;0" dur="2s" repeatCount="indefinite"/>
    </circle>
  </g>

  <!-- Metrics and Labels -->
  <g>
    <!-- DevOps Metrics -->
    <rect x="350" y="80" width="100" height="30" rx="15" fill="#1A2B44" stroke="#F97316" stroke-width="2"/>
    <text x="400" y="100" text-anchor="middle" fill="#F97316" font-family="Arial" font-size="12">+95% Speed</text>
    
    <!-- Cloud Metrics -->
    <rect x="150" y="200" width="100" height="30" rx="15" fill="#1A2B44" stroke="#3B82F6" stroke-width="2"/>
    <text x="200" y="220" text-anchor="middle" fill="#3B82F6" font-family="Arial" font-size="12">99.9% Uptime</text>
    
    <!-- AI Metrics -->
    <rect x="550" y="200" width="100" height="30" rx="15" fill="#1A2B44" stroke="#8B5CF6" stroke-width="2"/>
    <text x="600" y="220" text-anchor="middle" fill="#8B5CF6" font-family="Arial" font-size="12">98.5% Accuracy</text>
    
    <!-- Integration Metrics -->
    <rect x="200" y="500" width="100" height="30" rx="15" fill="#1A2B44" stroke="#2DD4BF" stroke-width="2"/>
    <text x="250" y="520" text-anchor="middle" fill="#2DD4BF" font-family="Arial" font-size="12">100% Connected</text>
    
    <!-- Mobile Metrics -->
    <rect x="500" y="500" width="100" height="30" rx="15" fill="#1A2B44" stroke="#F97316" stroke-width="2"/>
    <text x="550" y="520" text-anchor="middle" fill="#F97316" font-family="Arial" font-size="12">+85% Efficiency</text>
  </g>
</svg> 