<?xml version="1.0" encoding="UTF-8"?>
<svg width="800" height="600" viewBox="0 0 800 600" fill="none" xmlns="http://www.w3.org/2000/svg">
  <!-- Definitions -->
  <defs>
    <!-- Gradients -->
    <linearGradient id="bgGradient" x1="0" y1="0" x2="800" y2="600">
      <stop offset="0%" stop-color="#1A2B44" stop-opacity="0.1"/>
      <stop offset="50%" stop-color="#243B61" stop-opacity="0.15"/>
      <stop offset="100%" stop-color="#1A2B44" stop-opacity="0.1"/>
    </linearGradient>
    
    <linearGradient id="orangeGradient" x1="0" y1="0" x2="1" y2="0">
      <stop offset="0%" stop-color="#F97316"/>
      <stop offset="100%" stop-color="#FB923C"/>
    </linearGradient>
    
    <linearGradient id="blueGradient" x1="0" y1="0" x2="1" y2="0">
      <stop offset="0%" stop-color="#3B82F6"/>
      <stop offset="100%" stop-color="#60A5FA"/>
    </linearGradient>
    
    <linearGradient id="purpleGradient" x1="0" y1="0" x2="1" y2="0">
      <stop offset="0%" stop-color="#8B5CF6"/>
      <stop offset="100%" stop-color="#A78BFA"/>
    </linearGradient>
    
    <linearGradient id="tealGradient" x1="0" y1="0" x2="1" y2="0">
      <stop offset="0%" stop-color="#2DD4BF"/>
      <stop offset="100%" stop-color="#5EEAD4"/>
    </linearGradient>
    
    <!-- Patterns -->
    <pattern id="gridPattern" width="40" height="40" patternUnits="userSpaceOnUse">
      <path d="M 40 0 L 0 0 0 40" fill="none" stroke="#243B61" stroke-width="0.5"/>
    </pattern>
    
    <!-- Filters -->
    <filter id="glow">
      <feGaussianBlur stdDeviation="2" result="coloredBlur"/>
      <feMerge>
        <feMergeNode in="coloredBlur"/>
        <feMergeNode in="SourceGraphic"/>
      </feMerge>
    </filter>

    <!-- Animation Paths -->
    <path id="orbitPath" d="M0 0A80 80 0 1 1 0 0.01" fill="none"/>
  </defs>

  <!-- Background -->
  <rect width="800" height="600" fill="url(#bgGradient)"/>
  <rect width="800" height="600" fill="url(#gridPattern)" opacity="0.1"/>

  <!-- Enterprise Digital Transformation Platform -->
  <g transform="translate(400, 300)">
    <!-- Platform Base -->
    <rect x="-200" y="-10" width="400" height="20" rx="5" fill="#1A2B44" stroke="#3B82F6" stroke-width="2"/>
    
    <!-- Central Hub -->
    <circle cx="0" cy="-80" r="60" fill="#1A2B44" stroke="#3B82F6" stroke-width="2"/>
    <circle cx="0" cy="-80" r="45" fill="#243B61" stroke="#F97316" stroke-width="2" stroke-dasharray="4 4">
      <animateTransform
        attributeName="transform"
        type="rotate"
        from="0 0 -80"
        to="360 0 -80"
        dur="30s"
        repeatCount="indefinite"/>
    </circle>
    
    <!-- Hub Icon -->
    <path d="M-20,-80 L20,-80 M0,-100 L0,-60" stroke="#3B82F6" stroke-width="2"/>
    <circle cx="0" cy="-80" r="10" fill="#1A2B44" stroke="#3B82F6" stroke-width="2"/>
    
    <!-- Connecting Pillars -->
    <rect x="-160" y="-150" width="20" height="140" rx="5" fill="#1A2B44" stroke="#F97316" stroke-width="2"/>
    <rect x="-80" y="-150" width="20" height="140" rx="5" fill="#1A2B44" stroke="#8B5CF6" stroke-width="2"/>
    <rect x="60" y="-150" width="20" height="140" rx="5" fill="#1A2B44" stroke="#2DD4BF" stroke-width="2"/>
    <rect x="140" y="-150" width="20" height="140" rx="5" fill="#1A2B44" stroke="#3B82F6" stroke-width="2"/>
    
    <!-- Solution Modules -->
    <!-- Cloud Infrastructure -->
    <g transform="translate(-150, -180)">
      <rect x="-40" y="-30" width="80" height="60" rx="5" fill="#1A2B44" stroke="url(#blueGradient)" stroke-width="2"/>
      
      <!-- Cloud Icon -->
      <path d="M0,-10 Q-15,-25 -25,-10 Q-40,-20 -25,0 Q-40,15 -20,15 Q-15,25 0,15 Q15,25 20,15 Q40,15 25,0 Q40,-20 25,-10 Q15,-25 0,-10" 
            fill="none" stroke="#3B82F6" stroke-width="2"/>
      
      <!-- Server Icons -->
      <rect x="-10" y="0" width="20" height="10" rx="2" fill="#1A2B44" stroke="#3B82F6" stroke-width="1"/>
      
      <!-- Label -->
      <text x="0" y="35" text-anchor="middle" fill="#3B82F6" font-family="Arial" font-size="10">Cloud</text>
    </g>
    
    <!-- AI/ML -->
    <g transform="translate(-70, -180)">
      <rect x="-40" y="-30" width="80" height="60" rx="5" fill="#1A2B44" stroke="url(#purpleGradient)" stroke-width="2"/>
      
      <!-- Neural Network -->
      <circle cx="-15" cy="-10" r="5" fill="#1A2B44" stroke="#8B5CF6" stroke-width="1.5"/>
      <circle cx="15" cy="-10" r="5" fill="#1A2B44" stroke="#8B5CF6" stroke-width="1.5"/>
      <circle cx="0" cy="10" r="5" fill="#1A2B44" stroke="#8B5CF6" stroke-width="1.5"/>
      
      <path d="M-15,-10 L15,-10 L0,10 L-15,-10" stroke="#8B5CF6" stroke-width="1.5"/>
      
      <!-- Label -->
      <text x="0" y="35" text-anchor="middle" fill="#8B5CF6" font-family="Arial" font-size="10">AI/ML</text>
    </g>
    
    <!-- Integration -->
    <g transform="translate(70, -180)">
      <rect x="-40" y="-30" width="80" height="60" rx="5" fill="#1A2B44" stroke="url(#tealGradient)" stroke-width="2"/>
      
      <!-- Integration Gears -->
      <path d="M-15,-5 L-12,-2 L-8,-2 L-8,2 L-12,2 L-15,5 L-18,2 L-22,2 L-22,-2 L-18,-2 Z" 
            fill="#1A2B44" stroke="#2DD4BF" stroke-width="1.5">
        <animateTransform
          attributeName="transform"
          type="rotate"
          from="0 -15 0"
          to="360 -15 0"
          dur="10s"
          repeatCount="indefinite"/>
      </path>
      
      <path d="M15,-5 L18,-2 L22,-2 L22,2 L18,2 L15,5 L12,2 L8,2 L8,-2 L12,-2 Z" 
            fill="#1A2B44" stroke="#2DD4BF" stroke-width="1.5">
        <animateTransform
          attributeName="transform"
          type="rotate"
          from="0 15 0"
          to="-360 15 0"
          dur="10s"
          repeatCount="indefinite"/>
      </path>
      
      <path d="M-15,0 L15,0" stroke="#2DD4BF" stroke-width="1.5"/>
      
      <!-- Label -->
      <text x="0" y="35" text-anchor="middle" fill="#2DD4BF" font-family="Arial" font-size="10">Integration</text>
    </g>
    
    <!-- Security -->
    <g transform="translate(150, -180)">
      <rect x="-40" y="-30" width="80" height="60" rx="5" fill="#1A2B44" stroke="url(#orangeGradient)" stroke-width="2"/>
      
      <!-- Shield Icon -->
      <path d="M0,-15 L20,0 L0,15 L-20,0 Z" fill="none" stroke="#F97316" stroke-width="1.5"/>
      <path d="M0,-5 L7,0 L0,5 L-7,0 Z" fill="none" stroke="#F97316" stroke-width="1.5"/>
      <path d="M-7,0 L7,0" stroke="#F97316" stroke-width="1.5"/>
      <path d="M0,-5 L0,5" stroke="#F97316" stroke-width="1.5"/>
      
      <!-- Label -->
      <text x="0" y="35" text-anchor="middle" fill="#F97316" font-family="Arial" font-size="10">Security</text>
    </g>
    
    <!-- Business Applications -->
    <g transform="translate(0, 100)">
      <rect x="-150" y="-30" width="300" height="60" rx="5" fill="#1A2B44" stroke="url(#blueGradient)" stroke-width="2"/>
      
      <!-- App Icons -->
      <rect x="-120" y="-15" width="30" height="30" rx="5" fill="#1A2B44" stroke="#3B82F6" stroke-width="1.5"/>
      <rect x="-70" y="-15" width="30" height="30" rx="5" fill="#1A2B44" stroke="#8B5CF6" stroke-width="1.5"/>
      <rect x="-20" y="-15" width="30" height="30" rx="5" fill="#1A2B44" stroke="#F97316" stroke-width="1.5"/>
      <rect x="30" y="-15" width="30" height="30" rx="5" fill="#1A2B44" stroke="#2DD4BF" stroke-width="1.5"/>
      <rect x="80" y="-15" width="30" height="30" rx="5" fill="#1A2B44" stroke="#3B82F6" stroke-width="1.5"/>
      
      <!-- Label -->
      <text x="0" y="45" text-anchor="middle" fill="#3B82F6" font-family="Arial" font-size="12">Enterprise Applications</text>
    </g>
    
    <!-- Data Flow Lines -->
    <g>
      <!-- Cloud to Hub -->
      <path d="M-150,-150 L-30,-110" stroke="#3B82F6" stroke-width="2" stroke-dasharray="4 4">
        <animate attributeName="stroke-dashoffset" values="0;16" dur="1s" repeatCount="indefinite"/>
      </path>
      
      <!-- AI to Hub -->
      <path d="M-70,-150 L-20,-110" stroke="#8B5CF6" stroke-width="2" stroke-dasharray="4 4">
        <animate attributeName="stroke-dashoffset" values="0;16" dur="1s" repeatCount="indefinite"/>
      </path>
      
      <!-- Integration to Hub -->
      <path d="M70,-150 L20,-110" stroke="#2DD4BF" stroke-width="2" stroke-dasharray="4 4">
        <animate attributeName="stroke-dashoffset" values="0;16" dur="1s" repeatCount="indefinite"/>
      </path>
      
      <!-- Security to Hub -->
      <path d="M150,-150 L30,-110" stroke="#F97316" stroke-width="2" stroke-dasharray="4 4">
        <animate attributeName="stroke-dashoffset" values="0;16" dur="1s" repeatCount="indefinite"/>
      </path>
      
      <!-- Hub to Apps -->
      <path d="M0,-20 L0,70" stroke="#3B82F6" stroke-width="2" stroke-dasharray="4 4">
        <animate attributeName="stroke-dashoffset" values="0;16" dur="1s" repeatCount="indefinite"/>
      </path>
    </g>

    <!-- Data Flow Particles -->
    <g filter="url(#glow)">
      <!-- Cloud Flow -->
      <circle cx="0" cy="0" r="3" fill="#3B82F6">
        <animateMotion path="M-150,-150 L-30,-110" dur="1.5s" repeatCount="indefinite"/>
        <animate attributeName="opacity" values="0;1;0" dur="1.5s" repeatCount="indefinite"/>
      </circle>
      
      <!-- AI Flow -->
      <circle cx="0" cy="0" r="3" fill="#8B5CF6">
        <animateMotion path="M-70,-150 L-20,-110" dur="1.5s" repeatCount="indefinite"/>
        <animate attributeName="opacity" values="0;1;0" dur="1.5s" repeatCount="indefinite"/>
      </circle>
      
      <!-- Integration Flow -->
      <circle cx="0" cy="0" r="3" fill="#2DD4BF">
        <animateMotion path="M70,-150 L20,-110" dur="1.5s" repeatCount="indefinite"/>
        <animate attributeName="opacity" values="0;1;0" dur="1.5s" repeatCount="indefinite"/>
      </circle>
      
      <!-- Security Flow -->
      <circle cx="0" cy="0" r="3" fill="#F97316">
        <animateMotion path="M150,-150 L30,-110" dur="1.5s" repeatCount="indefinite"/>
        <animate attributeName="opacity" values="0;1;0" dur="1.5s" repeatCount="indefinite"/>
      </circle>
      
      <!-- Hub to Apps Flow -->
      <circle cx="0" cy="0" r="3" fill="#3B82F6">
        <animateMotion path="M0,-20 L0,70" dur="1.5s" repeatCount="indefinite"/>
        <animate attributeName="opacity" values="0;1;0" dur="1.5s" repeatCount="indefinite"/>
      </circle>
    </g>
  </g>

  <!-- Key Metrics -->
  <g>
    <!-- Cloud Metric -->
    <rect x="100" y="80" width="100" height="30" rx="15" fill="#1A2B44" stroke="#3B82F6" stroke-width="2"/>
    <text x="150" y="100" text-anchor="middle" fill="#3B82F6" font-family="Arial" font-size="12">99.9% Uptime</text>
    
    <!-- AI Metric -->
    <rect x="600" y="80" width="100" height="30" rx="15" fill="#1A2B44" stroke="#8B5CF6" stroke-width="2"/>
    <text x="650" y="100" text-anchor="middle" fill="#8B5CF6" font-family="Arial" font-size="12">+85% Efficiency</text>
    
    <!-- Integration Metric -->
    <rect x="100" y="500" width="100" height="30" rx="15" fill="#1A2B44" stroke="#2DD4BF" stroke-width="2"/>
    <text x="150" y="520" text-anchor="middle" fill="#2DD4BF" font-family="Arial" font-size="12">100% Connected</text>
    
    <!-- Security Metric -->
    <rect x="600" y="500" width="100" height="30" rx="15" fill="#1A2B44" stroke="#F97316" stroke-width="2"/>
    <text x="650" y="520" text-anchor="middle" fill="#F97316" font-family="Arial" font-size="12">-95% Threats</text>
  </g>
</svg> 