<?xml version="1.0" encoding="UTF-8"?>
<svg width="400" height="400" viewBox="0 0 400 400" fill="none" xmlns="http://www.w3.org/2000/svg">
  <!-- Server Rack -->
  <g transform="translate(100,50)">
    <rect x="0" y="0" width="200" height="300" rx="8" fill="#1A2B44" stroke="#3B82F6" stroke-width="2"/>
    
    <!-- Server Units -->
    <g>
      <!-- Unit 1 -->
      <rect x="20" y="30" width="160" height="40" rx="4" fill="#243B61"/>
      <circle cx="40" cy="50" r="6" fill="#FF6B2C">
        <animate attributeName="opacity" values="0.5;1;0.5" dur="2s" repeatCount="indefinite"/>
      </circle>
      <rect x="60" y="45" width="100" height="10" rx="2" fill="#3B82F6" fill-opacity="0.3"/>
      
      <!-- Unit 2 -->
      <rect x="20" y="90" width="160" height="40" rx="4" fill="#243B61"/>
      <circle cx="40" cy="110" r="6" fill="#FF6B2C">
        <animate attributeName="opacity" values="0.5;1;0.5" dur="2s" repeatCount="indefinite" begin="0.5s"/>
      </circle>
      <rect x="60" y="105" width="100" height="10" rx="2" fill="#3B82F6" fill-opacity="0.3"/>
      
      <!-- Unit 3 -->
      <rect x="20" y="150" width="160" height="40" rx="4" fill="#243B61"/>
      <circle cx="40" cy="170" r="6" fill="#FF6B2C">
        <animate attributeName="opacity" values="0.5;1;0.5" dur="2s" repeatCount="indefinite" begin="1s"/>
      </circle>
      <rect x="60" y="165" width="100" height="10" rx="2" fill="#3B82F6" fill-opacity="0.3"/>
      
      <!-- Unit 4 -->
      <rect x="20" y="210" width="160" height="40" rx="4" fill="#243B61"/>
      <circle cx="40" cy="230" r="6" fill="#FF6B2C">
        <animate attributeName="opacity" values="0.5;1;0.5" dur="2s" repeatCount="indefinite" begin="1.5s"/>
      </circle>
      <rect x="60" y="225" width="100" height="10" rx="2" fill="#3B82F6" fill-opacity="0.3"/>
    </g>
  </g>
  
  <!-- Cloud Elements -->
  <g transform="translate(50,20)">
    <path d="M30 40C30 25 45 15 60 15C75 15 85 30 85 40C85 55 70 65 60 65C45 65 30 55 30 40Z" 
          fill="#1A2B44" stroke="#3B82F6" stroke-width="2"/>
    <path d="M45 35L55 45L65 35" stroke="#3B82F6" stroke-width="2"/>
  </g>
  
  <!-- Connection Lines -->
  <g stroke="#3B82F6" stroke-width="2" stroke-dasharray="4 4">
    <path d="M85 50L100 80" opacity="0.3">
      <animate attributeName="stroke-dashoffset" values="0;100" dur="3s" repeatCount="indefinite"/>
    </path>
    <path d="M85 65L100 140" opacity="0.3">
      <animate attributeName="stroke-dashoffset" values="0;100" dur="3s" repeatCount="indefinite"/>
    </path>
    <path d="M85 80L100 200" opacity="0.3">
      <animate attributeName="stroke-dashoffset" values="0;100" dur="3s" repeatCount="indefinite"/>
    </path>
  </g>
  
  <!-- Data Flow Particles -->
  <g>
    <circle cx="90" cy="65" r="3" fill="#FF6B2C">
      <animate attributeName="opacity" values="1;0;1" dur="2s" repeatCount="indefinite"/>
      <animateMotion dur="2s" repeatCount="indefinite"
        path="M0 0L10 15"/>
    </circle>
    <circle cx="92" cy="140" r="3" fill="#3B82F6">
      <animate attributeName="opacity" values="0;1;0" dur="2s" repeatCount="indefinite"/>
      <animateMotion dur="2s" repeatCount="indefinite"
        path="M0 0L8 60"/>
    </circle>
  </g>
  
  <!-- Status Indicators -->
  <g transform="translate(320,100)">
    <!-- CPU Load -->
    <rect x="0" y="0" width="60" height="10" rx="2" fill="#243B61"/>
    <rect x="0" y="0" width="45" height="10" rx="2" fill="#FF6B2C" fill-opacity="0.5">
      <animate attributeName="width" values="0;45;0" dur="3s" repeatCount="indefinite"/>
    </rect>
    
    <!-- Memory Usage -->
    <rect x="0" y="20" width="60" height="10" rx="2" fill="#243B61"/>
    <rect x="0" y="20" width="30" height="10" rx="2" fill="#3B82F6" fill-opacity="0.5">
      <animate attributeName="width" values="0;30;0" dur="4s" repeatCount="indefinite"/>
    </rect>
    
    <!-- Network Traffic -->
    <rect x="0" y="40" width="60" height="10" rx="2" fill="#243B61"/>
    <rect x="0" y="40" width="50" height="10" rx="2" fill="#FF6B2C" fill-opacity="0.5">
      <animate attributeName="width" values="0;50;0" dur="2s" repeatCount="indefinite"/>
    </rect>
  </g>
</svg> 