<?xml version="1.0" encoding="UTF-8"?>
<svg width="800" height="600" viewBox="0 0 800 600" fill="none" xmlns="http://www.w3.org/2000/svg">
  <defs>
    <!-- Background Pattern -->
    <pattern id="grid" width="50" height="50" patternUnits="userSpaceOnUse">
      <path d="M 50 0 L 0 0 0 50" fill="none" stroke="#3B82F6" stroke-width="0.5" stroke-opacity="0.1"/>
    </pattern>
    
    <!-- Gradients -->
    <linearGradient id="orangeGlow" x1="0" y1="0" x2="1" y2="1">
      <stop offset="0%" stop-color="#FF6B2C" stop-opacity="0.2"/>
      <stop offset="100%" stop-color="#FF6B2C" stop-opacity="0.05"/>
    </linearGradient>
    <linearGradient id="blueGlow" x1="0" y1="0" x2="1" y2="1">
      <stop offset="0%" stop-color="#3B82F6" stop-opacity="0.2"/>
      <stop offset="100%" stop-color="#3B82F6" stop-opacity="0.05"/>
    </linearGradient>
    <linearGradient id="cardGradient" x1="0" y1="0" x2="0" y2="1">
      <stop offset="0%" stop-color="#FF6B2C" stop-opacity="0.08"/>
      <stop offset="100%" stop-color="#3B82F6" stop-opacity="0.08"/>
    </linearGradient>
    <linearGradient id="centerGradient" x1="0" y1="0" x2="0" y2="1">
      <stop offset="0%" stop-color="#FF6B2C" stop-opacity="0.12"/>
      <stop offset="100%" stop-color="#3B82F6" stop-opacity="0.12"/>
    </linearGradient>
  </defs>

  <!-- Background Grid Only -->
  <rect width="800" height="600" fill="url(#grid)"/>

  <!-- Central Hub -->
  <g transform="translate(400,300)">
    <!-- Base Circles -->
    <circle cx="0" cy="0" r="120" fill="url(#centerGradient)" stroke="#FF6B2C" stroke-width="1.5"/>
    <circle cx="0" cy="0" r="90" fill="url(#orangeGlow)" stroke="#FF6B2C" stroke-width="1.5"/>
    
    <!-- Decorative Elements -->
    <path d="M-60 0h120M0 -60v120" stroke="#FF6B2C" stroke-width="1.5" stroke-opacity="0.5"/>
    <circle cx="0" cy="0" r="40" fill="#FF6B2C" fill-opacity="0.15"/>
    
    <!-- Enterprise Badge -->
    <g>
      <rect x="-50" y="-15" width="100" height="30" rx="15" fill="url(#orangeGlow)" stroke="#FF6B2C" stroke-width="1.5"/>
      <text x="0" y="5" fill="#FF6B2C" font-family="system-ui" font-size="16" font-weight="500" text-anchor="middle">Enterprise</text>
    </g>
    
    <!-- Animated Rings -->
    <circle cx="0" cy="0" r="130" stroke="#FF6B2C" stroke-width="1" stroke-opacity="0.2">
      <animate attributeName="r" values="120;140;120" dur="4s" repeatCount="indefinite"/>
      <animate attributeName="stroke-opacity" values="0.2;0;0.2" dur="4s" repeatCount="indefinite"/>
    </circle>
  </g>

  <!-- Service Nodes -->
  <!-- Automation -->
  <g transform="translate(400,100)">
    <rect x="-80" y="-60" width="160" height="120" rx="16" fill="url(#cardGradient)" stroke="#FF6B2C" stroke-width="1.5"/>
    <!-- Modern Automation Icon -->
    <g transform="translate(-40,-20)">
      <circle cx="0" cy="0" r="25" fill="url(#orangeGlow)"/>
      <path d="M-15 0A15 15 0 0 1 15 0A15 15 0 0 1 -15 0" stroke="#FF6B2C" stroke-width="2" fill="none">
        <animateTransform attributeName="transform" type="rotate" from="0" to="360" dur="8s" repeatCount="indefinite"/>
      </path>
      <circle cx="0" cy="0" r="5" fill="#FF6B2C"/>
    </g>
    <!-- Code Window -->
    <g transform="translate(30,-20)">
      <rect x="-30" y="-15" width="60" height="30" rx="4" fill="url(#orangeGlow)" stroke="#FF6B2C" stroke-width="1.5"/>
      <path d="M-20 0h40" stroke="#FF6B2C" stroke-width="1.5" stroke-linecap="round"/>
    </g>
    <text x="0" y="35" fill="#FF6B2C" font-family="system-ui" font-size="16" font-weight="500" text-anchor="middle">Automation</text>
    
    <!-- Connection -->
    <path d="M0 60L0 150" stroke="#FF6B2C" stroke-width="1.5" stroke-dasharray="4 4">
      <animate attributeName="stroke-dashoffset" values="0;16" dur="1s" repeatCount="indefinite"/>
    </path>
  </g>

  <!-- Deployment -->
  <g transform="translate(650,300)">
    <rect x="-80" y="-60" width="160" height="120" rx="16" fill="url(#cardGradient)" stroke="#3B82F6" stroke-width="1.5"/>
    <!-- Cloud Platform Icon -->
    <g transform="translate(-40,-20)">
      <path d="M-20 10 A20 20 0 0 1 20 10 A15 15 0 0 0 -20 10" fill="url(#blueGlow)" stroke="#3B82F6" stroke-width="1.5"/>
      <path d="M-10 0L0 10L10 0" stroke="#3B82F6" stroke-width="1.5" fill="none"/>
    </g>
    <!-- Server Stack -->
    <g transform="translate(30,-20)">
      <rect x="-25" y="-15" width="50" height="30" rx="4" fill="url(#blueGlow)" stroke="#3B82F6" stroke-width="1.5"/>
      <path d="M-15 -5h30M-15 5h20" stroke="#3B82F6" stroke-width="1.5" stroke-linecap="round"/>
    </g>
    <text x="0" y="35" fill="#3B82F6" font-family="system-ui" font-size="16" font-weight="500" text-anchor="middle">Deployment</text>
    
    <!-- Connection -->
    <path d="M-80 0L-170 0" stroke="#3B82F6" stroke-width="1.5" stroke-dasharray="4 4">
      <animate attributeName="stroke-dashoffset" values="0;16" dur="1.5s" repeatCount="indefinite"/>
    </path>
  </g>

  <!-- Business Intelligence -->
  <g transform="translate(550,500)">
    <rect x="-80" y="-60" width="160" height="120" rx="16" fill="url(#cardGradient)" stroke="#FF6B2C" stroke-width="1.5"/>
    <!-- Analytics Dashboard -->
    <g transform="translate(-40,-20)">
      <rect x="-25" y="-25" width="50" height="50" rx="8" fill="url(#orangeGlow)" stroke="#FF6B2C" stroke-width="1.5"/>
      <path d="M-15 10l15-15l15 15l10-20" stroke="#FF6B2C" stroke-width="2" fill="none"/>
      <circle cx="-15" cy="10" r="3" fill="#FF6B2C"/>
      <circle cx="0" cy="-5" r="3" fill="#FF6B2C"/>
      <circle cx="15" cy="10" r="3" fill="#FF6B2C"/>
      <circle cx="25" cy="-10" r="3" fill="#FF6B2C"/>
    </g>
    <!-- Data Points -->
    <g transform="translate(30,-20)">
      <circle cx="0" cy="0" r="20" fill="url(#orangeGlow)"/>
      <path d="M-10 -10l20 20M-10 10l20-20" stroke="#FF6B2C" stroke-width="1.5"/>
    </g>
    <text x="0" y="35" fill="#FF6B2C" font-family="system-ui" font-size="16" font-weight="500" text-anchor="middle">Business Intelligence</text>
    
    <!-- Connection -->
    <path d="M-30 -60L-100 -140" stroke="#FF6B2C" stroke-width="1.5" stroke-dasharray="4 4">
      <animate attributeName="stroke-dashoffset" values="0;16" dur="2s" repeatCount="indefinite"/>
    </path>
  </g>

  <!-- Security -->
  <g transform="translate(250,500)">
    <rect x="-80" y="-60" width="160" height="120" rx="16" fill="url(#cardGradient)" stroke="#3B82F6" stroke-width="1.5"/>
    <!-- Shield Icon -->
    <g transform="translate(-40,-20)">
      <path d="M0 -25l25 10v30l-25 10l-25-10v-30l25-10z" fill="url(#blueGlow)" stroke="#3B82F6" stroke-width="1.5"/>
      <path d="M-10 0l10 10l20-20" stroke="#3B82F6" stroke-width="2" fill="none"/>
    </g>
    <!-- Lock Icon -->
    <g transform="translate(30,-20)">
      <rect x="-15" y="-5" width="30" height="25" rx="4" fill="url(#blueGlow)" stroke="#3B82F6" stroke-width="1.5"/>
      <path d="M-8 -5v-10a8 8 0 0 1 16 0v10" stroke="#3B82F6" stroke-width="1.5" fill="none"/>
    </g>
    <text x="0" y="35" fill="#3B82F6" font-family="system-ui" font-size="16" font-weight="500" text-anchor="middle">Security</text>
    
    <!-- Connection -->
    <path d="M30 -60L100 -140" stroke="#3B82F6" stroke-width="1.5" stroke-dasharray="4 4">
      <animate attributeName="stroke-dashoffset" values="0;16" dur="1.8s" repeatCount="indefinite"/>
    </path>
  </g>

  <!-- Infrastructure -->
  <g transform="translate(150,300)">
    <rect x="-80" y="-60" width="160" height="120" rx="16" fill="url(#cardGradient)" stroke="#FF6B2C" stroke-width="1.5"/>
    <!-- Server Rack -->
    <g transform="translate(-40,-20)">
      <rect x="-25" y="-25" width="50" height="50" rx="8" fill="url(#orangeGlow)" stroke="#FF6B2C" stroke-width="1.5"/>
      <rect x="-15" y="-15" width="30" height="8" rx="2" fill="none" stroke="#FF6B2C" stroke-width="1.5"/>
      <rect x="-15" y="-2" width="30" height="8" rx="2" fill="none" stroke="#FF6B2C" stroke-width="1.5"/>
      <rect x="-15" y="11" width="30" height="8" rx="2" fill="none" stroke="#FF6B2C" stroke-width="1.5"/>
    </g>
    <!-- Network -->
    <g transform="translate(30,-20)">
      <circle cx="0" cy="0" r="20" fill="url(#orangeGlow)"/>
      <path d="M-15 0h30M0 -15v30" stroke="#FF6B2C" stroke-width="1.5"/>
      <circle cx="-8" cy="-8" r="3" fill="#FF6B2C"/>
      <circle cx="8" cy="8" r="3" fill="#FF6B2C"/>
    </g>
    <text x="0" y="35" fill="#FF6B2C" font-family="system-ui" font-size="16" font-weight="500" text-anchor="middle">Infrastructure</text>
    
    <!-- Connection -->
    <path d="M80 0L170 0" stroke="#FF6B2C" stroke-width="1.5" stroke-dasharray="4 4">
      <animate attributeName="stroke-dashoffset" values="0;16" dur="1.3s" repeatCount="indefinite"/>
    </path>
  </g>

  <!-- Data Flow Particles -->
  <g>
    <!-- Automation Flow -->
    <circle cx="400" cy="100" r="3" fill="#FF6B2C">
      <animate attributeName="opacity" values="1;0;1" dur="2s" repeatCount="indefinite"/>
      <animateMotion path="M0 0v150" dur="2s" repeatCount="indefinite"/>
    </circle>
    
    <!-- Deployment Flow -->
    <circle cx="650" cy="300" r="3" fill="#3B82F6">
      <animate attributeName="opacity" values="1;0;1" dur="1.5s" repeatCount="indefinite"/>
      <animateMotion path="M0 0h-170" dur="1.5s" repeatCount="indefinite"/>
    </circle>
    
    <!-- BI Flow -->
    <circle cx="550" cy="500" r="3" fill="#FF6B2C">
      <animate attributeName="opacity" values="1;0;1" dur="2.2s" repeatCount="indefinite"/>
      <animateMotion path="M0 0l-100 -140" dur="2.2s" repeatCount="indefinite"/>
    </circle>
    
    <!-- Security Flow -->
    <circle cx="250" cy="500" r="3" fill="#3B82F6">
      <animate attributeName="opacity" values="1;0;1" dur="1.8s" repeatCount="indefinite"/>
      <animateMotion path="M0 0l100 -140" dur="1.8s" repeatCount="indefinite"/>
    </circle>
    
    <!-- Infrastructure Flow -->
    <circle cx="150" cy="300" r="3" fill="#FF6B2C">
      <animate attributeName="opacity" values="1;0;1" dur="1.6s" repeatCount="indefinite"/>
      <animateMotion path="M0 0h170" dur="1.6s" repeatCount="indefinite"/>
    </circle>
  </g>
</svg>