<?xml version="1.0" encoding="UTF-8"?>
<svg width="800" height="600" viewBox="0 0 800 600" fill="none" xmlns="http://www.w3.org/2000/svg">
  <!-- Background Elements -->
  <circle cx="400" cy="300" r="250" fill="#F59E0B" fill-opacity="0.05"/>
  <circle cx="400" cy="300" r="200" fill="#3B82F6" fill-opacity="0.05"/>
  
  <!-- Buildings Under Construction -->
  <g transform="translate(200,150)">
    <!-- Building 1 -->
    <g>
      <rect x="0" y="0" width="120" height="300" fill="#1A2B44" stroke="#F59E0B" stroke-width="2"/>
      <rect x="20" y="40" width="30" height="40" fill="#243B61" stroke="#3B82F6" stroke-width="2"/>
      <rect x="70" y="40" width="30" height="40" fill="#243B61" stroke="#3B82F6" stroke-width="2"/>
      <rect x="20" y="100" width="30" height="40" fill="#243B61" stroke="#3B82F6" stroke-width="2"/>
      <rect x="70" y="100" width="30" height="40" fill="#243B61" stroke="#3B82F6" stroke-width="2"/>
      <!-- Construction Lines -->
      <path d="M-10 0v300M130 0v300" stroke="#F59E0B" stroke-width="4" stroke-dasharray="8 8"/>
      <path d="M-10 100h140M-10 200h140" stroke="#F59E0B" stroke-width="4" stroke-dasharray="8 8"/>
    </g>
    
    <!-- Building 2 -->
    <g transform="translate(180,50)">
      <rect x="0" y="0" width="100" height="250" fill="#1A2B44" stroke="#F59E0B" stroke-width="2"/>
      <rect x="20" y="40" width="25" height="35" fill="#243B61" stroke="#3B82F6" stroke-width="2"/>
      <rect x="55" y="40" width="25" height="35" fill="#243B61" stroke="#3B82F6" stroke-width="2"/>
      <rect x="20" y="90" width="25" height="35" fill="#243B61" stroke="#3B82F6" stroke-width="2"/>
      <rect x="55" y="90" width="25" height="35" fill="#243B61" stroke="#3B82F6" stroke-width="2"/>
      <!-- Construction Lines -->
      <path d="M-10 0v250M110 0v250" stroke="#F59E0B" stroke-width="4" stroke-dasharray="8 8"/>
      <path d="M-10 80h120M-10 160h120" stroke="#F59E0B" stroke-width="4" stroke-dasharray="8 8"/>
    </g>
  </g>
  
  <!-- Construction Cranes -->
  <g>
    <!-- Crane 1 -->
    <g transform="translate(150,100)">
      <rect x="0" y="350" width="60" height="20" fill="#F59E0B"/>
      <rect x="20" y="50" width="20" height="300" fill="#F59E0B"/>
      <rect x="-50" y="50" width="200" height="20" fill="#F59E0B"/>
      <path d="M20 50L120 150" stroke="#F59E0B" stroke-width="4"/>
      <!-- Crane Cable -->
      <path d="M50 70v100" stroke="#3B82F6" stroke-width="2" stroke-dasharray="4 4">
        <animate attributeName="d" values="M50 70v100;M50 70v120;M50 70v100" dur="2s" repeatCount="indefinite"/>
      </path>
      <rect x="40" y="170" width="20" height="20" fill="#3B82F6">
        <animate attributeName="y" values="170;190;170" dur="2s" repeatCount="indefinite"/>
      </rect>
    </g>
    
    <!-- Crane 2 -->
    <g transform="translate(500,150)">
      <rect x="0" y="300" width="60" height="20" fill="#F59E0B"/>
      <rect x="20" y="50" width="20" height="250" fill="#F59E0B"/>
      <rect x="-50" y="50" width="200" height="20" fill="#F59E0B"/>
      <path d="M20 50L120 120" stroke="#F59E0B" stroke-width="4"/>
      <!-- Crane Cable -->
      <path d="M50 70v80" stroke="#3B82F6" stroke-width="2" stroke-dasharray="4 4">
        <animate attributeName="d" values="M50 70v80;M50 70v100;M50 70v80" dur="2.5s" repeatCount="indefinite"/>
      </path>
      <rect x="40" y="150" width="20" height="20" fill="#3B82F6">
        <animate attributeName="y" values="150;170;150" dur="2.5s" repeatCount="indefinite"/>
      </rect>
    </g>
  </g>
  
  <!-- Project Management Elements -->
  <g transform="translate(600,200)">
    <!-- Timeline -->
    <rect x="0" y="0" width="150" height="60" rx="8" fill="#1A2B44" stroke="#3B82F6" stroke-width="2"/>
    <path d="M20 30h110" stroke="#3B82F6" stroke-width="2" stroke-dasharray="4 4"/>
    <circle cx="40" cy="30" r="6" fill="#22C55E"/>
    <circle cx="75" cy="30" r="6" fill="#F59E0B"/>
    <circle cx="110" cy="30" r="6" fill="#EF4444"/>
    
    <!-- Task List -->
    <rect x="0" y="80" width="150" height="120" rx="8" fill="#1A2B44" stroke="#3B82F6" stroke-width="2"/>
    <rect x="10" y="90" width="130" height="20" rx="4" fill="#243B61"/>
    <rect x="10" y="120" width="130" height="20" rx="4" fill="#243B61"/>
    <rect x="10" y="150" width="130" height="20" rx="4" fill="#243B61"/>
    <rect x="10" y="180" width="130" height="20" rx="4" fill="#243B61"/>
  </g>
  
  <!-- Connection Lines -->
  <g stroke="#3B82F6" stroke-width="2" stroke-dasharray="4 4">
    <path d="M320 300L600 230">
      <animate attributeName="stroke-dashoffset" values="0;100" dur="3s" repeatCount="indefinite"/>
    </path>
    <path d="M480 350L600 300">
      <animate attributeName="stroke-dashoffset" values="0;100" dur="3s" repeatCount="indefinite"/>
    </path>
  </g>
  
  <!-- Status Indicators -->
  <g>
    <circle cx="320" cy="300" r="4" fill="#22C55E">
      <animate attributeName="opacity" values="1;0;1" dur="2s" repeatCount="indefinite"/>
    </circle>
    <circle cx="480" cy="350" r="4" fill="#F59E0B">
      <animate attributeName="opacity" values="0;1;0" dur="1.5s" repeatCount="indefinite"/>
    </circle>
  </g>
</svg>