<?xml version="1.0" encoding="UTF-8"?>
<svg width="800" height="600" viewBox="0 0 800 600" fill="none" xmlns="http://www.w3.org/2000/svg">
  <defs>
    <linearGradient id="bgGradient" x1="0" y1="0" x2="800" y2="600" gradientUnits="userSpaceOnUse">
      <stop offset="0%" stop-color="#1A2B44" />
      <stop offset="100%" stop-color="#0A1628" />
    </linearGradient>
    <linearGradient id="blueGradient" x1="0" y1="0" x2="1" y2="1" gradientUnits="objectBoundingBox">
      <stop offset="0%" stop-color="#3B82F6" />
      <stop offset="100%" stop-color="#2563EB" />
    </linearGradient>
    <linearGradient id="greenGradient" x1="0" y1="0" x2="1" y2="1" gradientUnits="objectBoundingBox">
      <stop offset="0%" stop-color="#10B981" />
      <stop offset="100%" stop-color="#059669" />
    </linearGradient>
  </defs>

  <!-- Background -->
  <rect width="800" height="600" fill="url(#bgGradient)" />
  
  <!-- Source Tenant -->
  <g transform="translate(100,150)">
    <rect width="200" height="300" rx="20" fill="#1A2B44" stroke="#243B61" stroke-width="2"/>
    <text x="40" y="40" fill="#3B82F6" font-size="16" font-family="system-ui">Source Tenant</text>
    <!-- SharePoint Sites -->
    <g transform="translate(20,60)">
      <rect width="160" height="30" rx="4" fill="#243B61" opacity="0.6"/>
      <text x="10" y="20" fill="white" font-size="12" font-family="system-ui">Site Collection A</text>
    </g>
    <g transform="translate(20,100)">
      <rect width="160" height="30" rx="4" fill="#243B61" opacity="0.6"/>
      <text x="10" y="20" fill="white" font-size="12" font-family="system-ui">Site Collection B</text>
    </g>
    <g transform="translate(20,140)">
      <rect width="160" height="30" rx="4" fill="#243B61" opacity="0.6"/>
      <text x="10" y="20" fill="white" font-size="12" font-family="system-ui">Document Libraries</text>
    </g>
    <!-- Users -->
    <g transform="translate(20,200)">
      <circle cx="20" cy="20" r="15" fill="url(#blueGradient)"/>
      <circle cx="50" cy="20" r="15" fill="url(#blueGradient)"/>
      <circle cx="80" cy="20" r="15" fill="url(#blueGradient)"/>
      <text x="110" y="25" fill="white" font-size="12" font-family="system-ui">5000+ Users</text>
    </g>
  </g>

  <!-- Target Tenant -->
  <g transform="translate(500,150)">
    <rect width="200" height="300" rx="20" fill="#1A2B44" stroke="#10B981" stroke-width="2"/>
    <text x="40" y="40" fill="#10B981" font-size="16" font-family="system-ui">Target Tenant</text>
    <!-- SharePoint Sites -->
    <g transform="translate(20,60)">
      <rect width="160" height="30" rx="4" fill="#243B61" opacity="0.6"/>
      <text x="10" y="20" fill="white" font-size="12" font-family="system-ui">Site Collection A</text>
    </g>
    <g transform="translate(20,100)">
      <rect width="160" height="30" rx="4" fill="#243B61" opacity="0.6"/>
      <text x="10" y="20" fill="white" font-size="12" font-family="system-ui">Site Collection B</text>
    </g>
    <g transform="translate(20,140)">
      <rect width="160" height="30" rx="4" fill="#243B61" opacity="0.6"/>
      <text x="10" y="20" fill="white" font-size="12" font-family="system-ui">Document Libraries</text>
    </g>
    <!-- Users -->
    <g transform="translate(20,200)">
      <circle cx="20" cy="20" r="15" fill="url(#greenGradient)"/>
      <circle cx="50" cy="20" r="15" fill="url(#greenGradient)"/>
      <circle cx="80" cy="20" r="15" fill="url(#greenGradient)"/>
      <text x="110" y="25" fill="white" font-size="12" font-family="system-ui">Mapped Users</text>
    </g>
  </g>

  <!-- Migration Flow -->
  <g transform="translate(300,250)">
    <!-- Progress Bar -->
    <rect width="200" height="30" rx="15" fill="#1A2B44" stroke="#243B61" stroke-width="2"/>
    <rect width="160" height="30" rx="15" fill="url(#greenGradient)">
      <animate attributeName="width" from="0" to="160" dur="2s" repeatCount="indefinite"/>
    </rect>
    <text x="70" y="20" fill="white" font-size="12" font-family="system-ui">Migrating...</text>
    
    <!-- Data Packets -->
    <g>
      <circle cx="40" cy="0" r="4" fill="#3B82F6">
        <animate attributeName="cx" from="0" to="200" dur="1.5s" repeatCount="indefinite"/>
      </circle>
      <circle cx="80" cy="0" r="4" fill="#3B82F6">
        <animate attributeName="cx" from="0" to="200" dur="1.5s" begin="0.5s" repeatCount="indefinite"/>
      </circle>
      <circle cx="120" cy="0" r="4" fill="#3B82F6">
        <animate attributeName="cx" from="0" to="200" dur="1.5s" begin="1s" repeatCount="indefinite"/>
      </circle>
    </g>
  </g>

  <!-- Stats -->
  <g transform="translate(300,400)">
    <rect width="200" height="80" rx="10" fill="#1A2B44" stroke="#243B61" stroke-width="2"/>
    <text x="20" y="30" fill="#3B82F6" font-size="14" font-family="system-ui">Migration Progress</text>
    <text x="20" y="60" fill="white" font-size="24" font-family="system-ui">99.9% Complete</text>
  </g>
</svg> 