<?xml version="1.0" encoding="UTF-8"?>
<svg width="400" height="300" viewBox="0 0 400 300" fill="none" xmlns="http://www.w3.org/2000/svg">
  <!-- Background Grid -->
  <path d="M0 0 L400 300 M0 300 L400 0" stroke="#243B61" stroke-width="1" opacity="0.1"/>
  
  <!-- Bank Building Icons -->
  <path d="M80 120 L120 120 L100 90 Z" fill="#1A2B44" stroke="#00A4EF" stroke-width="2"/>
  <rect x="85" y="120" width="30" height="40" fill="#1A2B44" stroke="#00A4EF" stroke-width="2"/>
  
  <path d="M280 120 L320 120 L300 90 Z" fill="#1A2B44" stroke="#00A4EF" stroke-width="2"/>
  <rect x="285" y="120" width="30" height="40" fill="#1A2B44" stroke="#00A4EF" stroke-width="2"/>
  
  <!-- SharePoint Tenants -->
  <rect x="60" y="180" width="80" height="60" rx="5" fill="#1A2B44" stroke="#00A4EF" stroke-width="2"/>
  <text x="75" y="215" fill="#00A4EF" font-family="Arial" font-size="12">Tenant A</text>
  
  <rect x="260" y="180" width="80" height="60" rx="5" fill="#1A2B44" stroke="#00A4EF" stroke-width="2"/>
  <text x="275" y="215" fill="#00A4EF" font-family="Arial" font-size="12">Tenant B</text>
  
  <!-- Migration Flow -->
  <path d="M140 210 Q200 150 260 210" stroke="#00A4EF" stroke-width="2" stroke-dasharray="5 5"/>
  <path d="M140 210 Q200 270 260 210" stroke="#00A4EF" stroke-width="2" stroke-dasharray="5 5"/>
  
  <!-- Data Packets -->
  <circle cx="180" cy="190" r="5" fill="#00A4EF"/>
  <circle cx="200" cy="180" r="5" fill="#00A4EF"/>
  <circle cx="220" cy="190" r="5" fill="#00A4EF"/>
  
  <!-- Uptime Indicator -->
  <rect x="160" y="80" width="80" height="30" rx="15" fill="#1A2B44" stroke="#2DD4BF" stroke-width="2"/>
  <text x="170" y="100" fill="#2DD4BF" font-family="Arial" font-size="12">99.9%</text>
</svg> 