<?xml version="1.0" encoding="UTF-8"?>
<svg width="800" height="600" viewBox="0 0 800 600" fill="none" xmlns="http://www.w3.org/2000/svg">
  <!-- Background Grid -->
  <defs>
    <pattern id="grid" x="0" y="0" width="40" height="40" patternUnits="userSpaceOnUse">
      <path d="M 40 0 L 0 0 0 40" fill="none" stroke="#243B61" stroke-width="0.5" opacity="0.2"/>
    </pattern>
    <radialGradient id="glow" cx="50%" cy="50%" r="50%" fx="50%" fy="50%">
      <stop offset="0%" style="stop-color:#FF6B2C;stop-opacity:0.2"/>
      <stop offset="100%" style="stop-color:#0A1628;stop-opacity:0"/>
    </radialGradient>
    <linearGradient id="progress-gradient" x1="0%" y1="0%" x2="100%" y2="0%">
      <stop offset="0%" style="stop-color:#FF6B2C"/>
      <stop offset="100%" style="stop-color:#3B82F6"/>
    </linearGradient>
  </defs>
  
  <!-- Background Elements -->
  <rect width="800" height="600" fill="url(#grid)"/>
  <circle cx="400" cy="300" r="250" fill="url(#glow)"/>

  <!-- Procore System -->
  <g transform="translate(100,200)">
    <rect x="0" y="0" width="200" height="160" rx="10" fill="#1A2B44" stroke="#243B61" stroke-width="2"/>
    <text x="100" y="40" fill="#FF6B2C" font-size="20" text-anchor="middle">Procore</text>
    <g transform="translate(20,60)">
      <rect x="0" y="0" width="160" height="20" rx="4" fill="#243B61" opacity="0.6"/>
      <text x="80" y="14" fill="white" font-size="12" text-anchor="middle">Project Data</text>
    </g>
    <g transform="translate(20,90)">
      <rect x="0" y="0" width="160" height="20" rx="4" fill="#243B61" opacity="0.4"/>
      <text x="80" y="14" fill="white" font-size="12" text-anchor="middle">Cost Codes</text>
    </g>
    <g transform="translate(20,120)">
      <rect x="0" y="0" width="160" height="20" rx="4" fill="#243B61" opacity="0.2"/>
      <text x="80" y="14" fill="white" font-size="12" text-anchor="middle">Commitments</text>
    </g>
  </g>

  <!-- PeopleSoft System -->
  <g transform="translate(500,200)">
    <rect x="0" y="0" width="200" height="160" rx="10" fill="#1A2B44" stroke="#243B61" stroke-width="2"/>
    <text x="100" y="40" fill="#FF6B2C" font-size="20" text-anchor="middle">PeopleSoft</text>
    <g transform="translate(20,60)">
      <rect x="0" y="0" width="160" height="20" rx="4" fill="#243B61" opacity="0.6"/>
      <text x="80" y="14" fill="white" font-size="12" text-anchor="middle">Financial Data</text>
    </g>
    <g transform="translate(20,90)">
      <rect x="0" y="0" width="160" height="20" rx="4" fill="#243B61" opacity="0.4"/>
      <text x="80" y="14" fill="white" font-size="12" text-anchor="middle">GL Accounts</text>
    </g>
    <g transform="translate(20,120)">
      <rect x="0" y="0" width="160" height="20" rx="4" fill="#243B61" opacity="0.2"/>
      <text x="80" y="14" fill="white" font-size="12" text-anchor="middle">AP/AR</text>
    </g>
  </g>

  <!-- Integration Layer -->
  <g transform="translate(300,250)">
    <rect x="0" y="0" width="200" height="100" rx="10" fill="#1A2B44" stroke="#FF6B2C" stroke-width="2"/>
    <text x="100" y="35" fill="#FF6B2C" font-size="16" text-anchor="middle">Integration Layer</text>
    <g transform="translate(20,50)">
      <rect x="0" y="0" width="160" height="10" rx="5" fill="#243B61"/>
      <rect x="0" y="0" width="160" height="10" rx="5" fill="url(#progress-gradient)" opacity="0.8">
        <animate 
          attributeName="width" 
          values="0;160" 
          dur="2s" 
          repeatCount="indefinite"/>
      </rect>
      <text x="80" y="30" fill="#FF6B2C" font-size="12" text-anchor="middle">Data Sync Progress</text>
    </g>
  </g>

  <!-- Data Flow Arrows -->
  <g>
    <!-- Procore to Integration -->
    <path d="M 300,280 L 240,280 Q 220,280 220,260 L 220,240" 
          stroke="#FF6B2C" stroke-width="2" stroke-dasharray="4 4">
      <animate 
        attributeName="stroke-dashoffset" 
        values="8;0" 
        dur="1s" 
        repeatCount="indefinite"/>
    </path>
    
    <!-- Integration to PeopleSoft -->
    <path d="M 500,280 L 560,280 Q 580,280 580,260 L 580,240" 
          stroke="#FF6B2C" stroke-width="2" stroke-dasharray="4 4">
      <animate 
        attributeName="stroke-dashoffset" 
        values="8;0" 
        dur="1s" 
        repeatCount="indefinite"/>
    </path>
  </g>

  <!-- Metrics -->
  <g transform="translate(300,400)">
    <rect x="0" y="0" width="200" height="100" rx="10" fill="#1A2B44" stroke="#243B61" stroke-width="2"/>
    <text x="100" y="30" fill="#FF6B2C" font-size="16" text-anchor="middle">Real-time Metrics</text>
    
    <!-- Progress Bar -->
    <g transform="translate(20,50)">
      <rect x="0" y="0" width="160" height="8" rx="4" fill="#243B61"/>
      <rect x="0" y="0" width="152" height="8" rx="4" fill="#FF6B2C">
        <animate 
          attributeName="width" 
          values="0;152" 
          dur="1.5s" 
          repeatCount="indefinite"/>
      </rect>
      <text x="80" y="30" fill="white" font-size="12" text-anchor="middle">40+ Hours Saved Weekly</text>
    </g>
  </g>

  <!-- Animated Elements -->
  <g>
    <!-- Data Packets -->
    <circle r="4" fill="#FF6B2C">
      <animateMotion 
        path="M 220,240 L 220,260 Q 220,280 240,280 L 300,280" 
        dur="1s" 
        repeatCount="indefinite"/>
    </circle>
    <circle r="4" fill="#FF6B2C">
      <animateMotion 
        path="M 580,240 L 580,260 Q 580,280 560,280 L 500,280" 
        dur="1s" 
        repeatCount="indefinite"/>
    </circle>
  </g>

  <!-- System Icons -->
  <g>
    <!-- Procore Icon -->
    <circle cx="200" cy="160" r="20" fill="#1A2B44" stroke="#FF6B2C" stroke-width="2"/>
    <path d="M 190,160 L 210,160 M 200,150 L 200,170" stroke="#FF6B2C" stroke-width="2"/>
    
    <!-- PeopleSoft Icon -->
    <circle cx="600" cy="160" r="20" fill="#1A2B44" stroke="#FF6B2C" stroke-width="2"/>
    <path d="M 590,160 L 610,160 M 600,150 L 600,170" stroke="#FF6B2C" stroke-width="2"/>
  </g>
</svg> 