<?xml version="1.0" encoding="UTF-8"?>
<svg width="800" height="600" viewBox="0 0 800 600" fill="none" xmlns="http://www.w3.org/2000/svg">
  <!-- Background Grid Pattern -->
  <defs>
    <pattern id="grid" x="0" y="0" width="40" height="40" patternUnits="userSpaceOnUse">
      <path d="M 40 0 L 0 0 0 40" fill="none" stroke="#243B61" stroke-width="0.5" opacity="0.2"/>
    </pattern>
    <linearGradient id="glow" x1="0%" y1="0%" x2="100%" y2="100%">
      <stop offset="0%" style="stop-color:#FF6B2C;stop-opacity:0.2"/>
      <stop offset="100%" style="stop-color:#3B82F6;stop-opacity:0.2"/>
    </linearGradient>
  </defs>
  
  <!-- Background -->
  <rect width="800" height="600" fill="url(#grid)"/>
  <rect width="800" height="600" fill="url(#glow)"/>

  <!-- Hospital Management System -->
  <g transform="translate(400, 300)">
    <!-- Central Hospital Icon -->
    <g>
      <rect x="-50" y="-50" width="100" height="100" rx="10" fill="#1A2B44" stroke="#FF6B2C" stroke-width="2"/>
      <path d="M-20,0 L20,0 M0,-20 L0,20" stroke="#FF6B2C" stroke-width="4"/>
      <!-- Pulse Line -->
      <path d="M-40,0 L-20,0 L-10,-20 L0,20 L10,-20 L20,0 L40,0" 
            stroke="#3B82F6" stroke-width="2" fill="none" transform="translate(0, 30)">
        <animate
          attributeName="d"
          values="M-40,0 L-20,0 L-10,-20 L0,20 L10,-20 L20,0 L40,0;
                  M-40,0 L-20,0 L-10,20 L0,-20 L10,20 L20,0 L40,0;
                  M-40,0 L-20,0 L-10,-20 L0,20 L10,-20 L20,0 L40,0"
          dur="2s"
          repeatCount="indefinite"
        />
      </path>
    </g>

    <!-- Connected Systems -->
    <g>
      <!-- Patient Records -->
      <g transform="translate(-150, -100)">
        <rect x="-40" y="-30" width="80" height="60" rx="5" fill="#1A2B44" stroke="#3B82F6" stroke-width="2"/>
        <line x1="-25" y1="-15" x2="25" y2="-15" stroke="#3B82F6" stroke-width="2"/>
        <line x1="-25" y1="0" x2="25" y2="0" stroke="#3B82F6" stroke-width="2"/>
        <line x1="-25" y1="15" x2="25" y2="15" stroke="#3B82F6" stroke-width="2"/>
        <!-- Data Flow -->
        <circle cx="0" cy="0" r="3" fill="#3B82F6">
          <animate attributeName="cx" values="-25;25;-25" dur="3s" repeatCount="indefinite"/>
        </circle>
      </g>

      <!-- Lab Results -->
      <g transform="translate(150, -100)">
        <rect x="-40" y="-30" width="80" height="60" rx="5" fill="#1A2B44" stroke="#FF6B2C" stroke-width="2"/>
        <path d="M-20,-15 L20,-15 M-20,0 L0,0 M-20,15 L10,15" stroke="#FF6B2C" stroke-width="2"/>
        <!-- Animated Graph -->
        <path d="M-15,-10 L0,10 L15,-5" stroke="#FF6B2C" stroke-width="2" fill="none">
          <animate
            attributeName="d"
            values="M-15,-10 L0,10 L15,-5;M-15,5 L0,-10 L15,10;M-15,-10 L0,10 L15,-5"
            dur="3s"
            repeatCount="indefinite"
          />
        </path>
      </g>

      <!-- Pharmacy System -->
      <g transform="translate(-150, 100)">
        <rect x="-40" y="-30" width="80" height="60" rx="5" fill="#1A2B44" stroke="#FF6B2C" stroke-width="2"/>
        <circle cx="0" cy="-10" r="10" stroke="#FF6B2C" stroke-width="2" fill="none"/>
        <path d="M-5,10 L5,10 M0,5 L0,15" stroke="#FF6B2C" stroke-width="2"/>
      </g>

      <!-- Scheduling -->
      <g transform="translate(150, 100)">
        <rect x="-40" y="-30" width="80" height="60" rx="5" fill="#1A2B44" stroke="#3B82F6" stroke-width="2"/>
        <rect x="-25" y="-15" width="50" height="30" rx="2" stroke="#3B82F6" stroke-width="2" fill="none"/>
        <line x1="-15" y1="0" x2="15" y2="0" stroke="#3B82F6" stroke-width="2">
          <animate attributeName="x1" values="-15;15;-15" dur="2s" repeatCount="indefinite"/>
        </line>
      </g>
    </g>

    <!-- Connection Lines -->
    <g>
      <!-- Animated Paths -->
      <path d="M-150,-100 L-50,-50" stroke="#3B82F6" stroke-width="2" stroke-dasharray="5,5">
        <animate attributeName="stroke-dashoffset" values="0;20" dur="2s" repeatCount="indefinite"/>
      </path>
      <path d="M150,-100 L50,-50" stroke="#FF6B2C" stroke-width="2" stroke-dasharray="5,5">
        <animate attributeName="stroke-dashoffset" values="0;20" dur="2s" repeatCount="indefinite"/>
      </path>
      <path d="M-150,100 L-50,50" stroke="#FF6B2C" stroke-width="2" stroke-dasharray="5,5">
        <animate attributeName="stroke-dashoffset" values="0;20" dur="2s" repeatCount="indefinite"/>
      </path>
      <path d="M150,100 L50,50" stroke="#3B82F6" stroke-width="2" stroke-dasharray="5,5">
        <animate attributeName="stroke-dashoffset" values="0;20" dur="2s" repeatCount="indefinite"/>
      </path>
    </g>

    <!-- Data Flow Particles -->
    <g>
      <circle cx="-100" cy="-75" r="3" fill="#3B82F6">
        <animate attributeName="cx" values="-100;-75;-100" dur="2s" repeatCount="indefinite"/>
        <animate attributeName="cy" values="-75;-60;-75" dur="2s" repeatCount="indefinite"/>
      </circle>
      <circle cx="100" cy="-75" r="3" fill="#FF6B2C">
        <animate attributeName="cx" values="100;75;100" dur="2s" repeatCount="indefinite"/>
        <animate attributeName="cy" values="-75;-60;-75" dur="2s" repeatCount="indefinite"/>
      </circle>
      <circle cx="-100" cy="75" r="3" fill="#FF6B2C">
        <animate attributeName="cx" values="-100;-75;-100" dur="2s" repeatCount="indefinite"/>
        <animate attributeName="cy" values="75;60;75" dur="2s" repeatCount="indefinite"/>
      </circle>
      <circle cx="100" cy="75" r="3" fill="#3B82F6">
        <animate attributeName="cx" values="100;75;100" dur="2s" repeatCount="indefinite"/>
        <animate attributeName="cy" values="75;60;75" dur="2s" repeatCount="indefinite"/>
      </circle>
    </g>
  </g>

  <!-- Floating Elements -->
  <g>
    <circle cx="200" cy="150" r="3" fill="#FF6B2C">
      <animate attributeName="opacity" values="0;1;0" dur="3s" repeatCount="indefinite"/>
    </circle>
    <circle cx="600" cy="450" r="3" fill="#3B82F6">
      <animate attributeName="opacity" values="0;1;0" dur="4s" repeatCount="indefinite"/>
    </circle>
    <circle cx="300" cy="350" r="3" fill="#FF6B2C">
      <animate attributeName="opacity" values="0;1;0" dur="5s" repeatCount="indefinite"/>
    </circle>
  </g>
</svg> 