<?xml version="1.0" encoding="UTF-8"?>
<svg width="800" height="600" viewBox="0 0 800 600" fill="none" xmlns="http://www.w3.org/2000/svg">
  <!-- Background Grid Pattern -->
  <defs>
    <pattern id="grid" x="0" y="0" width="40" height="40" patternUnits="userSpaceOnUse">
      <path d="M 40 0 L 0 0 0 40" fill="none" stroke="#243B61" stroke-width="0.5" opacity="0.2"/>
    </pattern>
    <linearGradient id="glow" x1="0%" y1="0%" x2="100%" y2="100%">
      <stop offset="0%" style="stop-color:#FF6B2C;stop-opacity:0.2"/>
      <stop offset="100%" style="stop-color:#3B82F6;stop-opacity:0.2"/>
    </linearGradient>
  </defs>
  
  <!-- Background -->
  <rect width="800" height="600" fill="url(#grid)"/>
  <rect width="800" height="600" fill="url(#glow)"/>

  <!-- Central Platform -->
  <g transform="translate(400, 300)">
    <!-- Rotating Ring -->
    <circle r="150" fill="none" stroke="#FF6B2C" stroke-width="2" stroke-dasharray="10,5" opacity="0.3">
      <animateTransform
        attributeName="transform"
        type="rotate"
        from="0 0 0"
        to="360 0 0"
        dur="20s"
        repeatCount="indefinite"
      />
    </circle>

    <!-- Connected Vehicle Icons -->
    <g>
      <!-- Vehicle 1 -->
      <g transform="translate(-60, -60)">
        <rect x="-20" y="-15" width="40" height="30" rx="5" fill="#1A2B44" stroke="#FF6B2C" stroke-width="2"/>
        <circle cx="-10" cy="15" r="5" fill="#FF6B2C"/>
        <circle cx="10" cy="15" r="5" fill="#FF6B2C"/>
        <animateTransform
          attributeName="transform"
          type="translate"
          values="-60,-60; -65,-55; -60,-60"
          dur="3s"
          repeatCount="indefinite"
        />
      </g>

      <!-- Vehicle 2 -->
      <g transform="translate(60, 60)">
        <rect x="-20" y="-15" width="40" height="30" rx="5" fill="#1A2B44" stroke="#3B82F6" stroke-width="2"/>
        <circle cx="-10" cy="15" r="5" fill="#3B82F6"/>
        <circle cx="10" cy="15" r="5" fill="#3B82F6"/>
        <animateTransform
          attributeName="transform"
          type="translate"
          values="60,60; 65,65; 60,60"
          dur="4s"
          repeatCount="indefinite"
        />
      </g>
    </g>

    <!-- Cloud Services -->
    <g transform="translate(0, -100)">
      <path d="M-30,-10 Q-30,-30 -10,-30 L10,-30 Q30,-30 30,-10 Q30,10 10,10 L-10,10 Q-30,10 -30,-10" 
            fill="#1A2B44" stroke="#FF6B2C" stroke-width="2"/>
      <path d="M-15,0 L15,0 M0,-15 L0,15" stroke="#FF6B2C" stroke-width="2"/>
    </g>

    <!-- Data Flow Lines -->
    <g>
      <path d="M-100,-100 Q0,0 100,100" stroke="#FF6B2C" stroke-width="2" fill="none" stroke-dasharray="5,5">
        <animate
          attributeName="stroke-dashoffset"
          values="0;20"
          dur="2s"
          repeatCount="indefinite"
        />
      </path>
      <path d="M100,-100 Q0,0 -100,100" stroke="#3B82F6" stroke-width="2" fill="none" stroke-dasharray="5,5">
        <animate
          attributeName="stroke-dashoffset"
          values="0;20"
          dur="2s"
          repeatCount="indefinite"
        />
      </path>
    </g>

    <!-- Automation Gears -->
    <g transform="translate(100, -50)">
      <path d="M0,0 L20,0 L25,10 L20,20 L0,20 L-5,10 Z" fill="#1A2B44" stroke="#3B82F6" stroke-width="2">
        <animateTransform
          attributeName="transform"
          type="rotate"
          values="0 0 0; 360 0 0"
          dur="10s"
          repeatCount="indefinite"
        />
      </path>
    </g>
    <g transform="translate(-100, 50)">
      <path d="M0,0 L20,0 L25,10 L20,20 L0,20 L-5,10 Z" fill="#1A2B44" stroke="#FF6B2C" stroke-width="2">
        <animateTransform
          attributeName="transform"
          type="rotate"
          values="360 0 0; 0 0 0"
          dur="10s"
          repeatCount="indefinite"
        />
      </path>
    </g>
  </g>

  <!-- Floating Particles -->
  <g>
    <circle cx="100" cy="100" r="3" fill="#FF6B2C">
      <animate attributeName="opacity" values="0;1;0" dur="3s" repeatCount="indefinite"/>
    </circle>
    <circle cx="700" cy="500" r="3" fill="#3B82F6">
      <animate attributeName="opacity" values="0;1;0" dur="4s" repeatCount="indefinite"/>
    </circle>
    <circle cx="200" cy="400" r="3" fill="#FF6B2C">
      <animate attributeName="opacity" values="0;1;0" dur="5s" repeatCount="indefinite"/>
    </circle>
  </g>
</svg> 