<?xml version="1.0" encoding="UTF-8"?>
<svg width="800" height="400" viewBox="0 0 800 400" fill="none" xmlns="http://www.w3.org/2000/svg">
  <defs>
    <pattern id="grid" width="40" height="40" patternUnits="userSpaceOnUse">
      <path d="M 40 0 L 0 0 0 40" fill="none" stroke="#2DD4BF" stroke-width="0.5"/>
    </pattern>
    <linearGradient id="supportGradient" x1="0" y1="0" x2="1" y2="1">
      <stop offset="0%" stop-color="#2DD4BF"/>
      <stop offset="100%" stop-color="#14B8A6"/>
    </linearGradient>
  </defs>
  
  <!-- Background -->
  <rect width="800" height="400" fill="#0A1628"/>
  <rect width="800" height="400" fill="url(#grid)" opacity="0.1"/>
  
  <!-- Support Timeline -->
  <g transform="translate(400,200)">
    <!-- Before Circle -->
    <circle cx="-150" cy="0" r="80" fill="#1A2B44" stroke="#243B61" stroke-width="2"/>
    <text x="-150" y="-20" text-anchor="middle" fill="white" font-family="Arial" font-size="16">Before</text>
    <text x="-150" y="10" text-anchor="middle" fill="#FF6B6B" font-family="Arial" font-size="14">Response Time</text>
    <text x="-150" y="30" text-anchor="middle" fill="#FF6B6B" font-family="Arial" font-size="24">45min</text>
    
    <!-- After Circle -->
    <circle cx="150" cy="0" r="80" fill="#1A2B44" stroke="#2DD4BF" stroke-width="2"/>
    <text x="150" y="-20" text-anchor="middle" fill="white" font-family="Arial" font-size="16">After</text>
    <text x="150" y="10" text-anchor="middle" fill="#2DD4BF" font-family="Arial" font-size="14">Response Time</text>
    <text x="150" y="30" text-anchor="middle" fill="#2DD4BF" font-family="Arial" font-size="24">15min</text>
    
    <!-- Arrow -->
    <path d="M-50 0h100" stroke="url(#supportGradient)" stroke-width="4" marker-end="url(#arrowhead)"/>
    <defs>
      <marker id="arrowhead" markerWidth="10" markerHeight="7" refX="9" refY="3.5" orient="auto">
        <polygon points="0 0, 10 3.5, 0 7" fill="url(#supportGradient)"/>
      </marker>
    </defs>
    
    <!-- Moving Dots -->
    <g>
      <circle r="4" fill="#2DD4BF">
        <animateMotion path="M-50 0h100" dur="2s" repeatCount="indefinite"/>
      </circle>
      <circle r="4" fill="#2DD4BF">
        <animateMotion path="M-50 0h100" dur="2s" begin="0.5s" repeatCount="indefinite"/>
      </circle>
      <circle r="4" fill="#2DD4BF">
        <animateMotion path="M-50 0h100" dur="2s" begin="1s" repeatCount="indefinite"/>
      </circle>
    </g>
  </g>
  
  <!-- Cost Savings -->
  <g transform="translate(400,350)">
    <!-- Savings Bar -->
    <rect x="-200" y="-20" width="400" height="40" rx="20" fill="#1A2B44" stroke="#243B61" stroke-width="2"/>
    <text x="0" y="5" text-anchor="middle" fill="white" font-family="Arial" font-size="16">Annual Cost Savings</text>
    
    <!-- Animated Savings Counter -->
    <text x="0" y="-40" text-anchor="middle" fill="#2DD4BF" font-family="Arial" font-size="24">
      $1.5M
      <animate attributeName="opacity" values="0.5;1;0.5" dur="2s" repeatCount="indefinite"/>
    </text>
  </g>
  
  <!-- Support Icons -->
  <g transform="translate(400,80)">
    <!-- Ticket Icon -->
    <g transform="translate(-160,0)">
      <rect width="60" height="60" rx="10" fill="url(#supportGradient)"/>
      <path d="M15 30h30M15 20h30M15 40h30" stroke="white" stroke-width="2"/>
    </g>
    
    <!-- Chat Icon -->
    <g transform="translate(0,0)">
      <rect width="60" height="60" rx="10" fill="url(#supportGradient)"/>
      <path d="M15 20h30v25h-20l-10 10v-35z" stroke="white" stroke-width="2" fill="none"/>
    </g>
    
    <!-- Phone Icon -->
    <g transform="translate(160,0)">
      <rect width="60" height="60" rx="10" fill="url(#supportGradient)"/>
      <path d="M20 15c10 0 20 10 20 20" stroke="white" stroke-width="2" fill="none"/>
      <path d="M15 25v20h10l5-5h10v-10l-5-5v-5h-15z" fill="white"/>
    </g>
  </g>
</svg> 