<?xml version="1.0" encoding="UTF-8"?>
<svg width="800" height="600" viewBox="0 0 800 600" fill="none" xmlns="http://www.w3.org/2000/svg">
  <!-- Background Grid Pattern -->
  <defs>
    <pattern id="grid" x="0" y="0" width="40" height="40" patternUnits="userSpaceOnUse">
      <path d="M 40 0 L 0 0 0 40" fill="none" stroke="#243B61" stroke-width="0.5" opacity="0.2"/>
    </pattern>
    <linearGradient id="glow" x1="0%" y1="0%" x2="100%" y2="100%">
      <stop offset="0%" style="stop-color:#FF6B2C;stop-opacity:0.2"/>
      <stop offset="100%" style="stop-color:#3B82F6;stop-opacity:0.2"/>
    </linearGradient>
  </defs>
  
  <!-- Background -->
  <rect width="800" height="600" fill="url(#grid)"/>
  <rect width="800" height="600" fill="url(#glow)"/>

  <!-- Cloud Infrastructure -->
  <g transform="translate(400, 300)">
    <!-- Cloud Platform -->
    <g>
      <path d="M-100,-50 Q-80,-80 -50,-80 L50,-80 Q80,-80 100,-50 L100,50 Q80,80 50,80 L-50,80 Q-80,80 -100,50 Z" 
            fill="#1A2B44" stroke="#3B82F6" stroke-width="2"/>
      
      <!-- Cloud Animation -->
      <circle cx="0" cy="0" r="60" stroke="#3B82F6" stroke-width="2" fill="none" opacity="0.5">
        <animate attributeName="r" values="60;65;60" dur="3s" repeatCount="indefinite"/>
        <animate attributeName="opacity" values="0.5;0.2;0.5" dur="3s" repeatCount="indefinite"/>
      </circle>
    </g>

    <!-- Server Racks -->
    <g transform="translate(-150, 0)">
      <!-- Rack 1 -->
      <rect x="-30" y="-40" width="60" height="80" rx="5" fill="#1A2B44" stroke="#FF6B2C" stroke-width="2"/>
      <!-- Server Units -->
      <rect x="-25" y="-35" width="50" height="10" fill="#FF6B2C" opacity="0.5"/>
      <rect x="-25" y="-20" width="50" height="10" fill="#FF6B2C" opacity="0.7"/>
      <rect x="-25" y="-5" width="50" height="10" fill="#FF6B2C" opacity="0.6"/>
      <rect x="-25" y="10" width="50" height="10" fill="#FF6B2C" opacity="0.8"/>
      <rect x="-25" y="25" width="50" height="10" fill="#FF6B2C" opacity="0.5"/>
      <!-- Status Lights -->
      <circle cx="-20" cy="-30" r="2" fill="#FF6B2C">
        <animate attributeName="opacity" values="1;0.5;1" dur="1s" repeatCount="indefinite"/>
      </circle>
      <circle cx="-20" cy="-15" r="2" fill="#FF6B2C">
        <animate attributeName="opacity" values="1;0.5;1" dur="1.2s" repeatCount="indefinite"/>
      </circle>
      <circle cx="-20" cy="0" r="2" fill="#FF6B2C">
        <animate attributeName="opacity" values="1;0.5;1" dur="0.8s" repeatCount="indefinite"/>
      </circle>
    </g>

    <!-- Migration Path -->
    <g>
      <path d="M-120,0 C-80,-50 80,-50 120,0" stroke="#3B82F6" stroke-width="2" stroke-dasharray="5,5" fill="none">
        <animate attributeName="stroke-dashoffset" values="0;20" dur="2s" repeatCount="indefinite"/>
      </path>
      <!-- Data Packets -->
      <circle cx="0" cy="0" r="4" fill="#3B82F6">
        <animateMotion
          path="M-120,0 C-80,-50 80,-50 120,0"
          dur="3s"
          repeatCount="indefinite"
        />
      </circle>
      <circle cx="0" cy="0" r="4" fill="#FF6B2C">
        <animateMotion
          path="M-120,0 C-80,-50 80,-50 120,0"
          dur="3s"
          begin="1s"
          repeatCount="indefinite"
        />
      </circle>
    </g>

    <!-- Cloud Services -->
    <g transform="translate(150, 0)">
      <!-- Service Stack -->
      <g>
        <rect x="-30" y="-40" width="60" height="80" rx="5" fill="#1A2B44" stroke="#3B82F6" stroke-width="2"/>
        <!-- Service Layers -->
        <rect x="-25" y="-35" width="50" height="15" rx="2" fill="#3B82F6" opacity="0.3"/>
        <rect x="-25" y="-15" width="50" height="15" rx="2" fill="#3B82F6" opacity="0.5"/>
        <rect x="-25" y="5" width="50" height="15" rx="2" fill="#3B82F6" opacity="0.7"/>
        <rect x="-25" y="25" width="50" height="15" rx="2" fill="#3B82F6" opacity="0.9"/>
      </g>
    </g>

    <!-- Connection Lines -->
    <g>
      <path d="M-150,-60 L-50,-60" stroke="#FF6B2C" stroke-width="2" stroke-dasharray="5,5">
        <animate attributeName="stroke-dashoffset" values="0;20" dur="2s" repeatCount="indefinite"/>
      </path>
      <path d="M50,-60 L150,-60" stroke="#3B82F6" stroke-width="2" stroke-dasharray="5,5">
        <animate attributeName="stroke-dashoffset" values="0;20" dur="2s" repeatCount="indefinite"/>
      </path>
    </g>
  </g>

  <!-- Floating Elements -->
  <g>
    <circle cx="200" cy="150" r="3" fill="#FF6B2C">
      <animate attributeName="opacity" values="0;1;0" dur="3s" repeatCount="indefinite"/>
    </circle>
    <circle cx="600" cy="450" r="3" fill="#3B82F6">
      <animate attributeName="opacity" values="0;1;0" dur="4s" repeatCount="indefinite"/>
    </circle>
    <circle cx="300" cy="350" r="3" fill="#FF6B2C">
      <animate attributeName="opacity" values="0;1;0" dur="5s" repeatCount="indefinite"/>
    </circle>
  </g>
</svg> 