<?xml version="1.0" encoding="UTF-8"?>
<svg width="400" height="300" viewBox="0 0 400 300" fill="none" xmlns="http://www.w3.org/2000/svg">
  <!-- Background Grid -->
  <path d="M50 50 h300 M50 150 h300 M50 250 h300" stroke="#243B61" stroke-width="1" opacity="0.1"/>
  <path d="M150 50 v200 M250 50 v200" stroke="#243B61" stroke-width="1" opacity="0.1"/>
  
  <!-- Procore System -->
  <rect x="80" y="100" width="100" height="100" rx="10" fill="#1A2B44" stroke="#F97316" stroke-width="2"/>
  <text x="105" y="155" fill="#F97316" font-family="Arial" font-size="14">Procore</text>
  
  <!-- PeopleSoft System -->
  <rect x="220" y="100" width="100" height="100" rx="10" fill="#1A2B44" stroke="#3B82F6" stroke-width="2"/>
  <text x="230" y="155" fill="#3B82F6" font-family="Arial" font-size="14">PeopleSoft</text>
  
  <!-- Integration Flow -->
  <path d="M180 130 L220 130" stroke="#F97316" stroke-width="2" stroke-dasharray="5 5"/>
  <path d="M180 170 L220 170" stroke="#3B82F6" stroke-width="2" stroke-dasharray="5 5"/>
  
  <!-- Data Icons -->
  <circle cx="200" cy="130" r="5" fill="#F97316"/>
  <circle cx="200" cy="170" r="5" fill="#3B82F6"/>
  
  <!-- Construction Icons -->
  <path d="M100 120 L140 120 L120 90 Z" fill="none" stroke="#F97316" stroke-width="2"/>
  <rect x="240" y="110" width="20" height="20" fill="none" stroke="#3B82F6" stroke-width="2"/>
  
  <!-- Integration Success Indicators -->
  <path d="M90 220 L170 220" stroke="#F97316" stroke-width="2"/>
  <path d="M230 220 L310 220" stroke="#3B82F6" stroke-width="2"/>
  <circle cx="200" cy="220" r="10" fill="#1A2B44" stroke="#2DD4BF" stroke-width="2"/>
  <path d="M195 220 L198 223 L205 216" stroke="#2DD4BF" stroke-width="2"/>
</svg> 