<?xml version="1.0" encoding="UTF-8"?>
<svg width="800" height="600" viewBox="0 0 800 600" fill="none" xmlns="http://www.w3.org/2000/svg">
  <!-- Background Grid Pattern -->
  <defs>
    <pattern id="grid" x="0" y="0" width="40" height="40" patternUnits="userSpaceOnUse">
      <path d="M 40 0 L 0 0 0 40" fill="none" stroke="#243B61" stroke-width="0.5" opacity="0.2"/>
    </pattern>
    <linearGradient id="glow" x1="0%" y1="0%" x2="100%" y2="100%">
      <stop offset="0%" style="stop-color:#FF6B2C;stop-opacity:0.2"/>
      <stop offset="100%" style="stop-color:#3B82F6;stop-opacity:0.2"/>
    </linearGradient>
  </defs>
  
  <!-- Background -->
  <rect width="800" height="600" fill="url(#grid)"/>
  <rect width="800" height="600" fill="url(#glow)"/>

  <!-- Healthcare System Hub -->
  <g transform="translate(400, 300)">
    <!-- Central Health Icon -->
    <g>
      <circle r="60" fill="#1A2B44" stroke="#FF6B2C" stroke-width="2"/>
      <path d="M-30,0 L30,0 M0,-30 L0,30" stroke="#FF6B2C" stroke-width="4"/>
      <!-- Pulse Animation -->
      <path d="M-40,0 L-20,0 L-10,-20 L0,20 L10,-20 L20,0 L40,0" 
            stroke="#3B82F6" stroke-width="2" fill="none" transform="translate(0, -10)">
        <animate
          attributeName="d"
          values="M-40,0 L-20,0 L-10,-20 L0,20 L10,-20 L20,0 L40,0;
                  M-40,0 L-20,0 L-10,20 L0,-20 L10,20 L20,0 L40,0;
                  M-40,0 L-20,0 L-10,-20 L0,20 L10,-20 L20,0 L40,0"
          dur="2s"
          repeatCount="indefinite"
        />
      </path>
    </g>

    <!-- Orbiting Elements -->
    <g>
      <!-- Patient Records -->
      <g transform="rotate(0)">
        <g transform="translate(0, -120)">
          <rect x="-25" y="-35" width="50" height="70" rx="5" fill="#1A2B44" stroke="#3B82F6" stroke-width="2"/>
          <line x1="-15" y1="-20" x2="15" y2="-20" stroke="#3B82F6" stroke-width="2"/>
          <line x1="-15" y1="0" x2="15" y2="0" stroke="#3B82F6" stroke-width="2"/>
          <line x1="-15" y1="20" x2="15" y2="20" stroke="#3B82F6" stroke-width="2"/>
        </g>
        <animateTransform
          attributeName="transform"
          type="rotate"
          from="0 0 0"
          to="360 0 0"
          dur="20s"
          repeatCount="indefinite"
        />
      </g>

      <!-- Analytics -->
      <g transform="rotate(120)">
        <g transform="translate(0, -120)">
          <rect x="-30" y="-30" width="60" height="60" rx="5" fill="#1A2B44" stroke="#FF6B2C" stroke-width="2"/>
          <path d="M-20,-10 L-10,10 L0,-15 L10,5 L20,-5" 
                stroke="#FF6B2C" stroke-width="2" fill="none"/>
          <circle cx="-20" cy="-10" r="2" fill="#FF6B2C"/>
          <circle cx="-10" cy="10" r="2" fill="#FF6B2C"/>
          <circle cx="0" cy="-15" r="2" fill="#FF6B2C"/>
          <circle cx="10" cy="5" r="2" fill="#FF6B2C"/>
          <circle cx="20" cy="-5" r="2" fill="#FF6B2C"/>
        </g>
        <animateTransform
          attributeName="transform"
          type="rotate"
          from="120 0 0"
          to="480 0 0"
          dur="20s"
          repeatCount="indefinite"
        />
      </g>

      <!-- Connected Devices -->
      <g transform="rotate(240)">
        <g transform="translate(0, -120)">
          <rect x="-25" y="-25" width="50" height="50" rx="25" fill="#1A2B44" stroke="#3B82F6" stroke-width="2"/>
          <circle cx="0" cy="0" r="15" stroke="#3B82F6" stroke-width="2" fill="none"/>
          <circle cx="0" cy="0" r="5" fill="#3B82F6"/>
        </g>
        <animateTransform
          attributeName="transform"
          type="rotate"
          from="240 0 0"
          to="600 0 0"
          dur="20s"
          repeatCount="indefinite"
        />
      </g>
    </g>

    <!-- Connection Lines -->
    <g>
      <!-- Animated Paths -->
      <path d="M0,-60 L0,-120" stroke="#FF6B2C" stroke-width="2" stroke-dasharray="5,5">
        <animate attributeName="stroke-dashoffset" values="0;20" dur="2s" repeatCount="indefinite"/>
      </path>
      <path d="M52,30 L104,60" stroke="#3B82F6" stroke-width="2" stroke-dasharray="5,5">
        <animate attributeName="stroke-dashoffset" values="0;20" dur="2s" repeatCount="indefinite"/>
      </path>
      <path d="M-52,30 L-104,60" stroke="#FF6B2C" stroke-width="2" stroke-dasharray="5,5">
        <animate attributeName="stroke-dashoffset" values="0;20" dur="2s" repeatCount="indefinite"/>
      </path>
    </g>

    <!-- Data Flow Particles -->
    <g>
      <circle cx="0" cy="-90" r="3" fill="#FF6B2C">
        <animate attributeName="cy" values="-90;-60;-90" dur="2s" repeatCount="indefinite"/>
        <animate attributeName="opacity" values="0;1;0" dur="2s" repeatCount="indefinite"/>
      </circle>
      <circle cx="80" cy="45" r="3" fill="#3B82F6">
        <animate attributeName="cx" values="80;50;80" dur="2s" repeatCount="indefinite"/>
        <animate attributeName="opacity" values="0;1;0" dur="2s" repeatCount="indefinite"/>
      </circle>
      <circle cx="-80" cy="45" r="3" fill="#FF6B2C">
        <animate attributeName="cx" values="-80;-50;-80" dur="2s" repeatCount="indefinite"/>
        <animate attributeName="opacity" values="0;1;0" dur="2s" repeatCount="indefinite"/>
      </circle>
    </g>
  </g>

  <!-- Floating Elements -->
  <g>
    <circle cx="200" cy="150" r="3" fill="#FF6B2C">
      <animate attributeName="opacity" values="0;1;0" dur="3s" repeatCount="indefinite"/>
    </circle>
    <circle cx="600" cy="450" r="3" fill="#3B82F6">
      <animate attributeName="opacity" values="0;1;0" dur="4s" repeatCount="indefinite"/>
    </circle>
    <circle cx="300" cy="350" r="3" fill="#FF6B2C">
      <animate attributeName="opacity" values="0;1;0" dur="5s" repeatCount="indefinite"/>
    </circle>
  </g>
</svg> 