<?xml version="1.0" encoding="UTF-8"?>
<svg width="200" height="60" viewBox="0 0 200 60" fill="none" xmlns="http://www.w3.org/2000/svg">
  <g transform="translate(10,10)">
    <!-- Crown Symbol -->
    <path d="M0 20L20 0L40 20L60 0L80 20L40 40L0 20Z" fill="currentColor"/>
    
    <!-- POLY Letters -->
    <g transform="translate(90,0)">
      <path d="M0 0H20C30 0 35 5 35 15V25C35 35 30 40 20 40H0V0ZM15 15H20V25H15V15Z" fill="currentColor"/>
      <path d="M45 0H65V40H45V0Z" fill="currentColor"/>
      <path d="M75 0H95V40H75V0Z" fill="currentColor"/>
      <path d="M105 0H125V40L115 30L105 40V0Z" fill="currentColor"/>
    </g>
  </g>
</svg> 