<?xml version="1.0" encoding="UTF-8"?>
<svg width="200" height="60" viewBox="0 0 200 60" fill="none" xmlns="http://www.w3.org/2000/svg">
  <g transform="translate(10,10)">
    <!-- Medical Cross Symbol -->
    <path d="M20 0V40M0 20H40" stroke="currentColor" stroke-width="4"/>
    <circle cx="20" cy="20" r="18" stroke="currentColor" stroke-width="2" fill="none"/>
    
    <!-- HPMC Letters -->
    <g transform="translate(50,0)">
      <path d="M0 0H20V15H40V0H60V40H40V25H20V40H0V0Z" fill="currentColor"/>
      <path d="M70 0H90C100 0 105 5 105 15V25C105 35 100 40 90 40H70V0ZM85 15H90V25H85V15Z" fill="currentColor"/>
      <path d="M115 0H135V15L145 0H165L145 20L165 40H145L135 25V40H115V0Z" fill="currentColor"/>
      <path d="M175 0H195V40H175V0Z" fill="currentColor"/>
    </g>
  </g>
</svg> 