<?xml version="1.0" encoding="UTF-8"?>
<svg width="150" height="150" viewBox="0 0 150 150" fill="none" xmlns="http://www.w3.org/2000/svg">
  <g transform="translate(25,45)">
    <!-- IBM Stripes -->
    <rect x="0" y="0" width="100" height="10" fill="currentColor"/>
    <rect x="0" y="20" width="100" height="10" fill="currentColor"/>
    <rect x="0" y="40" width="100" height="10" fill="currentColor"/>
    <rect x="0" y="60" width="100" height="10" fill="currentColor"/>
    
    <!-- I -->
    <rect x="10" y="15" width="10" height="50" fill="currentColor"/>
    
    <!-- B -->
    <path d="M30 15H60C65.5 15 70 19.5 70 25V35C70 40.5 65.5 45 60 45H30V15Z" fill="currentColor"/>
    <path d="M30 45H60C65.5 45 70 49.5 70 55V65C70 70.5 65.5 75 60 75H30V45Z" fill="currentColor"/>
    
    <!-- M -->
    <path d="M80 15V65H90V35L95 45L100 35V65H110V15H100L95 25L90 15H80Z" fill="currentColor"/>
  </g>
</svg> 