<?xml version="1.0" encoding="UTF-8"?>
<svg width="150" height="150" viewBox="0 0 150 150" fill="none" xmlns="http://www.w3.org/2000/svg">
  <g transform="translate(25,35)">
    <!-- Cloud Shape -->
    <path d="M75 40C75 17.9 57.1 0 35 0C15.7 0 0 15.7 0 35C0 41.6 1.9 47.8 5.3 53.1C2 57.8 0 63.5 0 69.7C0 84.4 11.9 96.3 26.6 96.3C31.5 96.3 36.1 95 40.1 92.7C44.1 97.1 49.9 100 56.3 100C68.4 100 78.4 90 78.4 77.9C78.4 75.8 78.1 73.8 77.5 71.9C90.2 69.5 100 58.3 100 45C100 31.7 88.8 21 75 40Z" fill="currentColor"/>
  </g>
</svg> 