<?xml version="1.0" encoding="UTF-8"?>
<svg width="800" height="600" viewBox="0 0 800 600" fill="none" xmlns="http://www.w3.org/2000/svg">
  <!-- Background Circle -->
  <circle cx="400" cy="300" r="250" fill="url(#solutionGradient)" opacity="0.1"/>
  
  <!-- Gradients -->
  <defs>
    <linearGradient id="solutionGradient" x1="0" y1="0" x2="800" y2="600" gradientUnits="userSpaceOnUse">
      <stop offset="0%" stop-color="#10B981"/>
      <stop offset="100%" stop-color="#059669"/>
    </linearGradient>
    <linearGradient id="rpaGradient" x1="0" y1="0" x2="1" y2="1" gradientUnits="objectBoundingBox">
      <stop offset="0%" stop-color="#6366F1"/>
      <stop offset="100%" stop-color="#4F46E5"/>
    </linearGradient>
  </defs>

  <!-- RPA System -->
  <g transform="translate(200,200)">
    <!-- Robot Icons -->
    <rect x="0" y="0" width="50" height="70" rx="10" fill="url(#rpaGradient)"/>
    <circle cx="25" cy="20" r="10" fill="#10B981"/>
    <rect x="15" y="40" width="20" height="20" fill="#10B981"/>
    
    <rect x="80" y="0" width="50" height="70" rx="10" fill="url(#rpaGradient)"/>
    <circle cx="105" cy="20" r="10" fill="#10B981"/>
    <rect x="95" y="40" width="20" height="20" fill="#10B981"/>
  </g>

  <!-- Data Flow -->
  <g transform="translate(300,300)">
    <!-- Flow Lines -->
    <path d="M0 0 L200 0" stroke="#10B981" stroke-width="2"/>
    <path d="M0 20 L200 20" stroke="#10B981" stroke-width="2"/>
    
    <!-- Data Points -->
    <circle cx="50" cy="0" r="5" fill="#10B981"/>
    <circle cx="100" cy="0" r="5" fill="#10B981"/>
    <circle cx="150" cy="0" r="5" fill="#10B981"/>
    
    <circle cx="50" cy="20" r="5" fill="#10B981"/>
    <circle cx="100" cy="20" r="5" fill="#10B981"/>
    <circle cx="150" cy="20" r="5" fill="#10B981"/>
  </g>

  <!-- Integration Hub -->
  <g transform="translate(400,200)">
    <!-- Central System -->
    <rect x="0" y="0" width="120" height="160" rx="10" fill="#1F2937"/>
    
    <!-- Connection Points -->
    <circle cx="-20" cy="40" r="5" fill="#10B981"/>
    <circle cx="-20" cy="80" r="5" fill="#10B981"/>
    <circle cx="-20" cy="120" r="5" fill="#10B981"/>
    
    <circle cx="140" cy="40" r="5" fill="#10B981"/>
    <circle cx="140" cy="80" r="5" fill="#10B981"/>
    <circle cx="140" cy="120" r="5" fill="#10B981"/>
    
    <!-- Processing Indicators -->
    <rect x="20" y="30" width="80" height="20" rx="5" fill="#10B981" opacity="0.2"/>
    <rect x="20" y="70" width="80" height="20" rx="5" fill="#10B981" opacity="0.2"/>
    <rect x="20" y="110" width="80" height="20" rx="5" fill="#10B981" opacity="0.2"/>
  </g>

  <!-- Real-time Analytics -->
  <g transform="translate(600,200)">
    <!-- Dashboard -->
    <rect x="0" y="0" width="160" height="120" rx="10" fill="#1F2937"/>
    
    <!-- Charts -->
    <path d="M20 100 L20 40 L60 60 L100 20 L140 40" 
          stroke="#10B981" stroke-width="2" fill="none"/>
    
    <!-- Live Indicator -->
    <circle cx="140" cy="20" r="5" fill="#10B981">
      <animate attributeName="opacity" values="1;0.2;1" dur="1.5s" repeatCount="indefinite"/>
    </circle>
  </g>

  <!-- Success Indicators -->
  <g transform="translate(300,450)">
    <!-- Progress Bars -->
    <rect x="0" y="0" width="200" height="15" rx="7.5" fill="#1F2937"/>
    <rect x="0" y="0" width="160" height="15" rx="7.5" fill="#10B981"/>
    
    <rect x="0" y="30" width="200" height="15" rx="7.5" fill="#1F2937"/>
    <rect x="0" y="30" width="180" height="15" rx="7.5" fill="#10B981"/>
  </g>

  <!-- Security Shield -->
  <g transform="translate(600,400)">
    <!-- Shield -->
    <path d="M40 0 L80 20 L80 60 L40 80 L0 60 L0 20 Z" fill="url(#rpaGradient)"/>
    <path d="M35 30 L45 40 L65 20" stroke="white" stroke-width="3"/>
  </g>
</svg> 