<?xml version="1.0" encoding="UTF-8"?>
<svg width="400" height="300" viewBox="0 0 400 300" fill="none" xmlns="http://www.w3.org/2000/svg">
  <defs>
    <linearGradient id="helpdeskGradient" x1="0" y1="0" x2="1" y2="1">
      <stop offset="0%" stop-color="#2DD4BF"/>
      <stop offset="100%" stop-color="#14B8A6"/>
    </linearGradient>
    <filter id="glow" x="-50%" y="-50%" width="200%" height="200%">
      <feGaussianBlur in="SourceGraphic" stdDeviation="4" result="blur"/>
      <feMerge>
        <feMergeNode in="blur"/>
        <feMergeNode in="SourceGraphic"/>
      </feMerge>
    </filter>
  </defs>

  <!-- Background Grid -->
  <pattern id="grid" width="20" height="20" patternUnits="userSpaceOnUse">
    <path d="M 20 0 L 0 0 0 20" fill="none" stroke="#2DD4BF" stroke-width="0.5" opacity="0.2"/>
  </pattern>
  <rect width="400" height="300" fill="url(#grid)"/>

  <!-- Support Tickets -->
  <g transform="translate(200,150)">
    <!-- Ticket Stack -->
    <g transform="translate(0,20)">
      <!-- Bottom Ticket -->
      <rect x="-90" y="-10" width="180" height="60" rx="5" fill="#1A2B44" filter="url(#glow)"/>
      <rect x="-85" y="-5" width="170" height="50" rx="3" fill="#0A1628"/>
      <circle cx="-65" cy="20" r="10" fill="url(#helpdeskGradient)"/>
      <rect x="-45" y="15" width="100" height="10" rx="2" fill="#243B61"/>

      <!-- Middle Ticket -->
      <rect x="-90" y="-30" width="180" height="60" rx="5" fill="#1A2B44" filter="url(#glow)"/>
      <rect x="-85" y="-25" width="170" height="50" rx="3" fill="#0A1628"/>
      <circle cx="-65" cy="0" r="10" fill="url(#helpdeskGradient)"/>
      <rect x="-45" y="-5" width="100" height="10" rx="2" fill="#243B61"/>

      <!-- Top Ticket -->
      <rect x="-90" y="-50" width="180" height="60" rx="5" fill="#1A2B44" filter="url(#glow)"/>
      <rect x="-85" y="-45" width="170" height="50" rx="3" fill="#0A1628"/>
      <circle cx="-65" cy="-20" r="10" fill="url(#helpdeskGradient)"/>
      <rect x="-45" y="-25" width="100" height="10" rx="2" fill="#243B61"/>
    </g>

    <!-- Support Agent Icon -->
    <g transform="translate(0,-60)">
      <circle r="30" fill="url(#helpdeskGradient)" filter="url(#glow)"/>
      <path d="M-15,-5 a15,15 0 1,1 30,0 v10 h-30 v-10" fill="#0A1628"/>
      <circle cx="0" cy="-15" r="10" fill="#0A1628"/>
      <path d="M-20,15 h40 v10 a20,20 0 0,1 -40,0 v-10" fill="url(#helpdeskGradient)"/>
    </g>

    <!-- Status Indicators -->
    <g transform="translate(-80,-80)">
      <circle r="8" fill="#22C55E">
        <animate attributeName="opacity" values="0.5;1;0.5" dur="1.5s" repeatCount="indefinite"/>
      </circle>
    </g>
    <g transform="translate(80,-80)">
      <circle r="8" fill="#F59E0B">
        <animate attributeName="opacity" values="0.5;1;0.5" dur="1.5s" repeatCount="indefinite" begin="0.5s"/>
      </circle>
    </g>

    <!-- Connection Lines -->
    <g stroke="url(#helpdeskGradient)" stroke-width="2">
      <path d="M-80,-80 L0,-30">
        <animate attributeName="stroke-dasharray" values="0,200;200,0" dur="2s" repeatCount="indefinite"/>
      </path>
      <path d="M80,-80 L0,-30">
        <animate attributeName="stroke-dasharray" values="0,200;200,0" dur="2s" repeatCount="indefinite"/>
      </path>
    </g>

    <!-- Animated Particles -->
    <g fill="#2DD4BF">
      <circle r="2">
        <animateMotion path="M-80,-80 L0,-30" dur="1.5s" repeatCount="indefinite"/>
      </circle>
      <circle r="2">
        <animateMotion path="M80,-80 L0,-30" dur="1.5s" repeatCount="indefinite"/>
      </circle>
    </g>
  </g>
</svg> 