<?xml version="1.0" encoding="UTF-8"?>
<svg width="800" height="600" viewBox="0 0 800 600" fill="none" xmlns="http://www.w3.org/2000/svg">
  <defs>
    <linearGradient id="supportGradient" x1="0" y1="0" x2="1" y2="1">
      <stop offset="0%" stop-color="#2DD4BF"/>
      <stop offset="100%" stop-color="#14B8A6"/>
    </linearGradient>
    <filter id="glow" x="-50%" y="-50%" width="200%" height="200%">
      <feGaussianBlur in="SourceGraphic" stdDeviation="4" result="blur"/>
      <feMerge>
        <feMergeNode in="blur"/>
        <feMergeNode in="SourceGraphic"/>
      </feMerge>
    </filter>
  </defs>

  <!-- Background Grid -->
  <pattern id="grid" width="40" height="40" patternUnits="userSpaceOnUse">
    <path d="M 40 0 L 0 0 0 40" fill="none" stroke="#2DD4BF" stroke-width="0.5" opacity="0.2"/>
  </pattern>
  <rect width="800" height="600" fill="url(#grid)"/>

  <!-- Central Support Hub -->
  <g transform="translate(400,300)">
    <!-- Connection Lines -->
    <g stroke="url(#supportGradient)" stroke-width="2">
      <path d="M-150,-150 L-50,-50">
        <animate attributeName="stroke-dasharray" values="0,200;200,0" dur="2s" repeatCount="indefinite"/>
      </path>
      <path d="M150,-150 L50,-50">
        <animate attributeName="stroke-dasharray" values="0,200;200,0" dur="2s" repeatCount="indefinite"/>
      </path>
      <path d="M-150,150 L-50,50">
        <animate attributeName="stroke-dasharray" values="0,200;200,0" dur="2s" repeatCount="indefinite"/>
      </path>
      <path d="M150,150 L50,50">
        <animate attributeName="stroke-dasharray" values="0,200;200,0" dur="2s" repeatCount="indefinite"/>
      </path>
    </g>

    <!-- Central Circle -->
    <circle r="60" fill="url(#supportGradient)" filter="url(#glow)">
      <animate attributeName="r" values="55;60;55" dur="2s" repeatCount="indefinite"/>
    </circle>
    <circle r="50" fill="#0A1628"/>
    <path d="M-25,-25 h50 v50 h-50z" fill="url(#supportGradient)"/>
    <path d="M-15,-15 h30 v30 h-30z" fill="#0A1628"/>

    <!-- Corner Elements -->
    <!-- Laptop (Top Left) -->
    <g transform="translate(-150,-150)">
      <rect width="80" height="60" rx="5" fill="url(#supportGradient)"/>
      <rect x="5" y="5" width="70" height="40" fill="#0A1628"/>
      <rect x="20" y="50" width="40" height="5" fill="#0A1628"/>
    </g>

    <!-- Server (Top Right) -->
    <g transform="translate(150,-150)">
      <rect width="80" height="80" rx="5" fill="url(#supportGradient)"/>
      <rect x="10" y="10" width="60" height="10" fill="#0A1628"/>
      <rect x="10" y="25" width="60" height="10" fill="#0A1628"/>
      <rect x="10" y="40" width="60" height="10" fill="#0A1628"/>
      <rect x="10" y="55" width="60" height="10" fill="#0A1628"/>
    </g>

    <!-- Mobile Device (Bottom Left) -->
    <g transform="translate(-150,150)">
      <rect width="60" height="80" rx="10" fill="url(#supportGradient)"/>
      <rect x="5" y="5" width="50" height="70" fill="#0A1628"/>
      <circle cx="30" cy="65" r="5" fill="url(#supportGradient)"/>
    </g>

    <!-- Cloud (Bottom Right) -->
    <g transform="translate(150,150)">
      <path d="M0,40 a30,30 0 1,1 60,0 a20,20 0 1,1 -60,0" fill="url(#supportGradient)"/>
      <path d="M10,35 a20,20 0 1,1 40,0 a15,15 0 1,1 -40,0" fill="#0A1628"/>
    </g>

    <!-- Animated Particles -->
    <g fill="#2DD4BF">
      <circle r="3">
        <animateMotion path="M-150,-150 L-50,-50" dur="1.5s" repeatCount="indefinite"/>
      </circle>
      <circle r="3">
        <animateMotion path="M150,-150 L50,-50" dur="1.5s" repeatCount="indefinite"/>
      </circle>
      <circle r="3">
        <animateMotion path="M-150,150 L-50,50" dur="1.5s" repeatCount="indefinite"/>
      </circle>
      <circle r="3">
        <animateMotion path="M150,150 L50,50" dur="1.5s" repeatCount="indefinite"/>
      </circle>
    </g>

    <!-- Pulse Effect -->
    <circle r="70" stroke="url(#supportGradient)" stroke-width="2" fill="none">
      <animate attributeName="r" values="70;90;70" dur="2s" repeatCount="indefinite"/>
      <animate attributeName="opacity" values="1;0;1" dur="2s" repeatCount="indefinite"/>
    </circle>
  </g>
</svg> 