<?xml version="1.0" encoding="UTF-8"?>
<svg width="400" height="300" viewBox="0 0 400 300" fill="none" xmlns="http://www.w3.org/2000/svg">
  <defs>
    <linearGradient id="maintenanceGradient" x1="0" y1="0" x2="1" y2="1">
      <stop offset="0%" stop-color="#2DD4BF"/>
      <stop offset="100%" stop-color="#14B8A6"/>
    </linearGradient>
    <filter id="glow" x="-50%" y="-50%" width="200%" height="200%">
      <feGaussianBlur in="SourceGraphic" stdDeviation="4" result="blur"/>
      <feMerge>
        <feMergeNode in="blur"/>
        <feMergeNode in="SourceGraphic"/>
      </feMerge>
    </filter>
  </defs>

  <!-- Background Grid -->
  <pattern id="grid" width="20" height="20" patternUnits="userSpaceOnUse">
    <path d="M 20 0 L 0 0 0 20" fill="none" stroke="#2DD4BF" stroke-width="0.5" opacity="0.2"/>
  </pattern>
  <rect width="400" height="300" fill="url(#grid)"/>

  <!-- Server Rack -->
  <g transform="translate(200,150)">
    <!-- Main Server Frame -->
    <rect x="-100" y="-80" width="200" height="160" rx="10" fill="#1A2B44" filter="url(#glow)"/>
    <rect x="-95" y="-75" width="190" height="150" rx="8" fill="#0A1628"/>

    <!-- Server Units -->
    <g>
      <!-- Unit 1 -->
      <rect x="-90" y="-70" width="180" height="30" rx="4" fill="#1A2B44"/>
      <circle cx="-75" cy="-55" r="5" fill="url(#maintenanceGradient)">
        <animate attributeName="opacity" values="0.5;1;0.5" dur="2s" repeatCount="indefinite"/>
      </circle>
      <rect x="-60" y="-60" width="140" height="10" rx="2" fill="#243B61"/>

      <!-- Unit 2 -->
      <rect x="-90" y="-30" width="180" height="30" rx="4" fill="#1A2B44"/>
      <circle cx="-75" cy="-15" r="5" fill="url(#maintenanceGradient)">
        <animate attributeName="opacity" values="0.5;1;0.5" dur="2s" repeatCount="indefinite" begin="0.5s"/>
      </circle>
      <rect x="-60" y="-20" width="140" height="10" rx="2" fill="#243B61"/>

      <!-- Unit 3 -->
      <rect x="-90" y="10" width="180" height="30" rx="4" fill="#1A2B44"/>
      <circle cx="-75" cy="25" r="5" fill="url(#maintenanceGradient)">
        <animate attributeName="opacity" values="0.5;1;0.5" dur="2s" repeatCount="indefinite" begin="1s"/>
      </circle>
      <rect x="-60" y="20" width="140" height="10" rx="2" fill="#243B61"/>

      <!-- Unit 4 -->
      <rect x="-90" y="50" width="180" height="30" rx="4" fill="#1A2B44"/>
      <circle cx="-75" cy="65" r="5" fill="url(#maintenanceGradient)">
        <animate attributeName="opacity" values="0.5;1;0.5" dur="2s" repeatCount="indefinite" begin="1.5s"/>
      </circle>
      <rect x="-60" y="60" width="140" height="10" rx="2" fill="#243B61"/>
    </g>

    <!-- Monitoring Graph -->
    <g transform="translate(0,-120)">
      <rect x="-90" y="-30" width="180" height="60" rx="5" fill="#1A2B44" filter="url(#glow)"/>
      <rect x="-85" y="-25" width="170" height="50" rx="3" fill="#0A1628"/>
      
      <!-- Graph Line -->
      <path d="M-80 0 L-40 10 L0 -10 L40 5 L80 -5" 
        stroke="url(#maintenanceGradient)" 
        stroke-width="2"
        fill="none">
        <animate attributeName="d" 
          values="
            M-80 0 L-40 10 L0 -10 L40 5 L80 -5;
            M-80 -5 L-40 5 L0 -5 L40 10 L80 0;
            M-80 0 L-40 10 L0 -10 L40 5 L80 -5"
          dur="3s"
          repeatCount="indefinite"/>
      </path>
    </g>

    <!-- Status Indicators -->
    <g transform="translate(-120,-100)">
      <circle r="8" fill="#22C55E">
        <animate attributeName="opacity" values="0.5;1;0.5" dur="1.5s" repeatCount="indefinite"/>
      </circle>
    </g>
    <g transform="translate(120,-100)">
      <circle r="8" fill="#F59E0B">
        <animate attributeName="opacity" values="0.5;1;0.5" dur="1.5s" repeatCount="indefinite" begin="0.5s"/>
      </circle>
    </g>

    <!-- Connection Lines -->
    <g stroke="url(#maintenanceGradient)" stroke-width="2">
      <path d="M-120,-100 L-90,-90">
        <animate attributeName="stroke-dasharray" values="0,100;100,0" dur="2s" repeatCount="indefinite"/>
      </path>
      <path d="M120,-100 L90,-90">
        <animate attributeName="stroke-dasharray" values="0,100;100,0" dur="2s" repeatCount="indefinite"/>
      </path>
    </g>

    <!-- Animated Particles -->
    <g fill="#2DD4BF">
      <circle r="2">
        <animateMotion path="M-120,-100 L-90,-90" dur="1.5s" repeatCount="indefinite"/>
      </circle>
      <circle r="2">
        <animateMotion path="M120,-100 L90,-90" dur="1.5s" repeatCount="indefinite"/>
      </circle>
    </g>

    <!-- Maintenance Tools -->
    <g transform="translate(120,0)">
      <circle r="20" fill="url(#maintenanceGradient)" filter="url(#glow)"/>
      <path d="M-8,-8 L8,8 M-8,8 L8,-8" stroke="#0A1628" stroke-width="4"/>
    </g>
    <g transform="translate(-120,0)">
      <circle r="20" fill="url(#maintenanceGradient)" filter="url(#glow)"/>
      <path d="M0,-10 L0,10 M-10,0 L10,0" stroke="#0A1628" stroke-width="4"/>
    </g>
  </g>
</svg> 